<svg xmlns="http://www.w3.org/2000/svg" xmlns:xlink="http://www.w3.org/1999/xlink" width="761.78" height="196.59" viewBox="0 0 761.78 196.59">
  <defs>
    <filter id="Path_13799" x="0" y="0" width="761.78" height="196.59" filterUnits="userSpaceOnUse">
      <feOffset dy="3" input="SourceAlpha"/>
      <feGaussianBlur stdDeviation="4.5" result="blur"/>
      <feFlood flood-color="#ffc124"/>
      <feComposite operator="in" in2="blur"/>
      <feComposite in="SourceGraphic"/>
    </filter>
  </defs>
  <g transform="matrix(1, 0, 0, 1, 0, 0)" filter="url(#Path_13799)">
    <path id="Path_13799-2" data-name="Path 13799" d="M74.005-65.835V0H65.36V-52.535L44.365,0H36.67L15.58-52.345V0H6.935V-65.835H17.29l23.37,55.29,22.99-55.29Zm53.1,50.35H97.66L92.055,0h-9.31L107.54-65.74h9.785L142.025,0h-9.31Zm-2.47-6.745L112.385-56.05,100.13-22.23Zm34.77-44.745V0h-8.645V-66.975ZM225.34,0H216.7l-34.77-52.915V0H173.28V-66.975h8.645l34.77,53.01v-53.01h8.645Zm56.24-17.385A17.833,17.833,0,0,1,279.3-8.55a17.164,17.164,0,0,1-6.935,6.65A23.551,23.551,0,0,1,260.87.665a27.6,27.6,0,0,1-11.827-2.423,21.041,21.041,0,0,1-8.265-6.65,18.816,18.816,0,0,1-3.562-9.643h9.215a13.03,13.03,0,0,0,1.948,5.558,12.935,12.935,0,0,0,4.75,4.465,14.848,14.848,0,0,0,7.457,1.758q5.7,0,8.74-3.04a10.547,10.547,0,0,0,3.04-7.79,10.041,10.041,0,0,0-2.138-6.65,15.144,15.144,0,0,0-5.272-4.038,71.653,71.653,0,0,0-8.55-3.182,86.467,86.467,0,0,1-10.213-3.943,17.436,17.436,0,0,1-6.555-5.557q-2.708-3.705-2.708-9.785a16.9,16.9,0,0,1,2.518-9.215,16.5,16.5,0,0,1,7.22-6.175,26.043,26.043,0,0,1,11.067-2.185q9.88,0,15.675,4.8a18.358,18.358,0,0,1,6.745,12.208h-9.31a12.592,12.592,0,0,0-4.085-7.03q-3.325-3.04-9.025-3.04a12.346,12.346,0,0,0-8.36,2.708,9.56,9.56,0,0,0-3.135,7.647,9.468,9.468,0,0,0,2.043,6.317,14.216,14.216,0,0,0,5.082,3.8,81.814,81.814,0,0,0,8.36,3.088,84.788,84.788,0,0,1,10.4,3.99,17.573,17.573,0,0,1,6.7,5.747Q281.58-23.75,281.58-17.385Zm52.63-49.59v7.03H315.3V0H306.66V-59.945h-18.9v-7.03ZM378.29,0,360.81-27.36H351.4V0H342.76V-66.975H364.8q11.4,0,17.1,5.463t5.7,14.488q0,8.17-4.56,13.157t-13.2,6.223L388.075,0ZM351.4-33.63H364.04q14.725,0,14.725-12.92T364.04-59.47H351.4ZM406.79-59.945v22.9h25.46v6.65H406.79V-7.03H435.1V0H398.145V-66.975H435.1v7.03Zm78.66,44.46H456L450.395,0h-9.31l24.8-65.74h9.785L500.365,0h-9.31Zm-2.47-6.745L470.725-56.05,458.47-22.23Zm93.195-43.6V0H567.53V-52.535L546.535,0h-7.7L517.75-52.345V0H509.1V-65.835H519.46l23.37,55.29,22.99-55.29Zm22.515-1.14V0h-8.645V-66.975ZM664.62,0h-8.645l-34.77-52.915V0H612.56V-66.975h8.645l34.77,53.01v-53.01h8.645Zm44.27-67.64q11.685,0,19.617,5.795A28.188,28.188,0,0,1,739.2-46.075h-9.12a20.49,20.49,0,0,0-7.932-9.785,23.164,23.164,0,0,0-13.158-3.705,23.73,23.73,0,0,0-12.255,3.182,22.216,22.216,0,0,0-8.5,9.073,29.48,29.48,0,0,0-3.087,13.87,29.826,29.826,0,0,0,3.135,14.108,22.171,22.171,0,0,0,8.692,9.12A25.253,25.253,0,0,0,709.745-7.03a24.188,24.188,0,0,0,11.3-2.66,21.884,21.884,0,0,0,8.408-7.743A26.353,26.353,0,0,0,733.4-29.355H707.085v-6.46h33.63v7.98a33.261,33.261,0,0,1-4.94,14.44,29.632,29.632,0,0,1-11.02,10.26,32.275,32.275,0,0,1-15.77,3.8,33.31,33.31,0,0,1-17.1-4.323,30.046,30.046,0,0,1-11.543-12.065A37.046,37.046,0,0,1,676.21-33.44a37.046,37.046,0,0,1,4.132-17.717A30.372,30.372,0,0,1,691.885-63.27,32.841,32.841,0,0,1,708.89-67.64ZM39.615,65.325a17.538,17.538,0,0,1,10.023,5.89A16.124,16.124,0,0,1,53.485,81.95q0,8.17-5.557,13.11T31.825,100H6.935V33.025h24.51q10.07,0,15.295,4.465t5.225,12.255q0,6.46-3.468,10.45A15.712,15.712,0,0,1,39.615,65.325ZM15.58,62.38H30.02q6.365,0,9.737-2.945T43.13,51.17a10.233,10.233,0,0,0-3.325-8.075Q36.48,40.15,29.64,40.15H15.58Zm14.63,30.4q6.84,0,10.593-3.135t3.752-8.835a10.784,10.784,0,0,0-3.847-8.787Q36.86,68.84,30.02,68.84H15.58V92.78Zm42.75.475H96.71V100h-32.4V33.025H72.96ZM136.23,32.17A32.543,32.543,0,0,1,153,36.54,31.1,31.1,0,0,1,164.73,48.748a36.39,36.39,0,0,1,4.275,17.717,36.39,36.39,0,0,1-4.275,17.718A31.1,31.1,0,0,1,153,96.39a32.543,32.543,0,0,1-16.767,4.37,33.055,33.055,0,0,1-16.863-4.37A30.9,30.9,0,0,1,107.54,84.183a36.39,36.39,0,0,1-4.275-17.718,36.39,36.39,0,0,1,4.275-17.717A30.9,30.9,0,0,1,119.368,36.54,33.055,33.055,0,0,1,136.23,32.17Zm0,8.075a24.169,24.169,0,0,0-12.4,3.182,22.051,22.051,0,0,0-8.55,9.12,29.768,29.768,0,0,0-3.088,13.917,29.841,29.841,0,0,0,3.088,13.87,21.987,21.987,0,0,0,8.55,9.168,24.169,24.169,0,0,0,12.4,3.182,23.711,23.711,0,0,0,12.3-3.23,22.37,22.37,0,0,0,8.55-9.168,29.551,29.551,0,0,0,3.087-13.823,29.768,29.768,0,0,0-3.087-13.917,22.051,22.051,0,0,0-8.55-9.12A23.985,23.985,0,0,0,136.23,40.245Zm74.1-7.885q12.255,0,20.235,6.032a30.759,30.759,0,0,1,11.02,16.482h-9.12A22.332,22.332,0,0,0,224.2,44.282a23.952,23.952,0,0,0-13.965-3.942,21.5,21.5,0,0,0-19.9,12.3A30.553,30.553,0,0,0,187.34,66.56a30.033,30.033,0,0,0,2.992,13.775,21.562,21.562,0,0,0,19.9,12.255A23.952,23.952,0,0,0,224.2,88.647a22.332,22.332,0,0,0,8.265-10.592h9.12a30.759,30.759,0,0,1-11.02,16.482q-7.98,6.033-20.235,6.033a31.735,31.735,0,0,1-16.625-4.323,29.8,29.8,0,0,1-11.257-12.065A37.547,37.547,0,0,1,178.41,66.56a38.044,38.044,0,0,1,4.038-17.765,29.724,29.724,0,0,1,11.257-12.113A31.735,31.735,0,0,1,210.33,32.36ZM269.8,66.18,300.39,100H289.75L261.82,68.745V100h-8.645V33.025h8.645V64.09l28.025-31.065H300.39Zm68.78-33.82q12.255,0,20.235,6.032a30.759,30.759,0,0,1,11.02,16.482h-9.12a22.332,22.332,0,0,0-8.265-10.593,23.952,23.952,0,0,0-13.965-3.942,21.5,21.5,0,0,0-19.9,12.3A30.553,30.553,0,0,0,315.59,66.56a30.032,30.032,0,0,0,2.993,13.775,21.562,21.562,0,0,0,19.9,12.255,23.952,23.952,0,0,0,13.965-3.942,22.332,22.332,0,0,0,8.265-10.592h9.12a30.759,30.759,0,0,1-11.02,16.482q-7.98,6.033-20.235,6.033a31.735,31.735,0,0,1-16.625-4.323A29.8,29.8,0,0,1,310.7,84.183,37.547,37.547,0,0,1,306.66,66.56,38.044,38.044,0,0,1,310.7,48.795a29.724,29.724,0,0,1,11.258-12.113A31.735,31.735,0,0,1,338.58,32.36Zm94.24.665V100h-8.74V69.03H390.07V100h-8.645V33.025h8.645V62h34.01V33.025Zm53.105,51.49h-29.45L450.87,100h-9.31l24.8-65.74h9.785L500.84,100h-9.31Zm-2.47-6.745L471.2,43.95,458.945,77.77Zm34.77-44.745V100H509.58V33.025ZM584.155,100H575.51L540.74,47.085V100H532.1V33.025h8.645l34.77,53.01V33.025h8.645Z" transform="translate(7.06 78.83)" fill="none" stroke="#eab046" stroke-width="1" opacity="0.35"/>
  </g>
</svg>
