<svg xmlns="http://www.w3.org/2000/svg" width="30.877" height="27.79" viewBox="0 0 30.877 27.79">
  <g id="app-store-apple-symbol" transform="translate(0)">
    <path id="App_Store" d="M0,38.534v-4.19a.7.7,0,0,1,.7-.7h7.4L4.882,39.232H.7A.7.7,0,0,1,0,38.534Zm5.274,8.58-2.363,1.6c-.318.216-.543.079-.5-.3l.315-2.739a.429.429,0,0,1,.688-.347l1.829,1.045A.4.4,0,0,1,5.274,47.113Zm.567-1.544L4.013,44.524a.7.7,0,0,1-.258-.952l8.468-14.679a.7.7,0,0,1,.959-.257l1.829,1.042a.7.7,0,0,1,.258.954L6.8,45.313A.708.708,0,0,1,5.842,45.57Zm6.445-6.337,3.224-5.586h1.856l2.618,5.586Zm10.5,1.667c-.732-.366-4.378-8.74-5.312-10.925s-3.759-8-2.845-8.454c.65-.324,2.982,4.256,4.731,7.005s5.4,9.84,5.847,10.647-.43,1.484-.918,1.686A1.412,1.412,0,0,1,22.785,40.9Zm2.4,3.849-1.1-1.733a.684.684,0,0,1,.26-1l1.05-.538a.776.776,0,0,1,1.031.341l.869,1.664A.821.821,0,0,1,27,44.561l-.751.447A.791.791,0,0,1,25.181,44.749Zm4.054,4.544c-.23-.734-1.987-.783-2.774-1.888a1.261,1.261,0,0,1,.137-1.931C29.789,43.685,29.235,49.293,29.235,49.293Zm1.642-10.76a.7.7,0,0,1-.7.7H26.47a2.1,2.1,0,0,0-.219-.633c-.1-.172-.34-.636-.68-1.282-.491-.933-1.2-2.267-1.949-3.672h6.554a.7.7,0,0,1,.7.7v4.19Z" transform="translate(0 -21.503)" fill="#e2ac57"/>
  </g>
</svg>
