<svg xmlns="http://www.w3.org/2000/svg" width="124.957" height="33.333" viewBox="0 0 124.957 33.333">
  <g id="Group_5913" data-name="Group 5913" transform="translate(-453.348 -1014.333)">
    <g id="icon" transform="translate(453.347 1014.333)">
      <path id="Fill-2" d="M121.861,273.341a6.621,6.621,0,0,1,3.15-5.558,6.842,6.842,0,0,0-5.342-2.9c-2.246-.233-4.429,1.35-5.571,1.35s-2.917-1.317-4.829-1.288a7.108,7.108,0,0,0-5.987,3.654c-2.583,4.479-.658,11.067,1.821,14.692,1.25,1.771,2.688,3.75,4.583,3.683s2.554-1.183,4.787-1.183,2.871,1.183,4.808,1.146,3.242-1.783,4.446-3.575a14.55,14.55,0,0,0,2.029-4.137,6.417,6.417,0,0,1-3.912-5.888" transform="translate(-102.055 -257.837)" fill="#e2ac57"/>
      <path id="Fill-3" d="M134.708,252.675A6.554,6.554,0,0,0,136.2,248a6.621,6.621,0,0,0-4.292,2.225,6.245,6.245,0,0,0-1.533,4.5,5.521,5.521,0,0,0,4.333-2.046" transform="translate(-118.556 -248)" fill="#e2ac57"/>
    </g>
    <path id="Fill-4" d="M196.194,296.044H193.6l-1.421-4.471H187.24l-1.35,4.471h-2.5l4.888-15.2h3.029l4.908,15.2Zm-4.437-6.342-1.288-3.962c-.133-.417-.387-1.362-.758-2.863h-.054c-.154.646-.392,1.6-.721,2.863l-1.25,3.962Z" transform="translate(303.847 747.177)" fill="#e2ac57"/>
    <path id="Fill-5" d="M229.5,296.062a6.175,6.175,0,0,1-1.525,4.417,4.438,4.438,0,0,1-3.375,1.442,3.373,3.373,0,0,1-3.129-1.554v5.754h-2.442V294.312c0-1.175-.029-2.367-.092-3.6h2.142l.133,1.742h.042a4.325,4.325,0,0,1,6.929-.417,5.971,5.971,0,0,1,1.317,4.046Zm-2.5.083a4.458,4.458,0,0,0-.721-2.638,2.5,2.5,0,0,0-2.121-1.079,2.571,2.571,0,0,0-1.633.6,2.758,2.758,0,0,0-.958,1.567,3.414,3.414,0,0,0-.113.742v1.833a2.95,2.95,0,0,0,.729,2.017,2.425,2.425,0,0,0,1.9.833,2.5,2.5,0,0,0,2.142-1.058,4.642,4.642,0,0,0,.771-2.8Z" transform="translate(283.109 741.546)" fill="#e2ac57"/>
    <path id="Fill-6" d="M259.742,296.062a6.174,6.174,0,0,1-1.525,4.417,4.438,4.438,0,0,1-3.375,1.442,3.387,3.387,0,0,1-3.129-1.554v5.754h-2.442V294.312c0-1.175-.029-2.367-.092-3.6h2.142l.133,1.742h.042a4.325,4.325,0,0,1,6.929-.417,5.971,5.971,0,0,1,1.317,4.046Zm-2.5.083a4.488,4.488,0,0,0-.717-2.638,2.5,2.5,0,0,0-2.121-1.079,2.575,2.575,0,0,0-1.638.6,2.825,2.825,0,0,0-.958,1.567,3.415,3.415,0,0,0-.112.742v1.833a2.95,2.95,0,0,0,.729,2.017,2.433,2.433,0,0,0,1.9.833,2.5,2.5,0,0,0,2.142-1.058,4.583,4.583,0,0,0,.771-2.8Z" transform="translate(265.469 741.546)" fill="#e2ac57"/>
    <path id="Fill-7" d="M295.191,291.456a4.067,4.067,0,0,1-1.35,3.158,5.983,5.983,0,0,1-4.138,1.329A7.266,7.266,0,0,1,285.77,295l.567-2.029a6.829,6.829,0,0,0,3.521.946A3.333,3.333,0,0,0,292,293.3a2.021,2.021,0,0,0,.771-1.667,2.146,2.146,0,0,0-.629-1.554,5.833,5.833,0,0,0-2.083-1.171c-2.683-1-4.012-2.45-4.012-4.358a3.862,3.862,0,0,1,1.408-3.067,5.6,5.6,0,0,1,3.75-1.192,7.308,7.308,0,0,1,3.45.721l-.617,1.975a6.1,6.1,0,0,0-2.917-.7,3.025,3.025,0,0,0-2.017.629,1.817,1.817,0,0,0-.608,1.379,1.842,1.842,0,0,0,.7,1.479,7.73,7.73,0,0,0,2.212,1.175,7.387,7.387,0,0,1,2.883,1.854,3.842,3.842,0,0,1,.938,2.646" transform="translate(244.125 747.502)" fill="#e2ac57"/>
    <path id="Fill-8" d="M318.411,289.028h-2.688v5.325c0,1.346.475,2.025,1.421,2.025a4.585,4.585,0,0,0,1.079-.112l.075,1.854a5.676,5.676,0,0,1-1.9.267,2.917,2.917,0,0,1-2.254-.883,4.3,4.3,0,0,1-.813-2.958V289.02h-1.6v-1.829h1.6v-2l2.388-.721v2.721h2.688v1.833" transform="translate(228.976 745.059)" fill="#e2ac57"/>
    <path id="Fill-9" d="M341.711,296.17a6.025,6.025,0,0,1-1.442,4.167A5.15,5.15,0,0,1,336.257,302a4.946,4.946,0,0,1-3.85-1.6,5.787,5.787,0,0,1-1.433-4.033,5.975,5.975,0,0,1,1.475-4.167,5.129,5.129,0,0,1,3.983-1.625,5,5,0,0,1,3.879,1.6,5.717,5.717,0,0,1,1.4,4Zm-2.521.05a4.9,4.9,0,0,0-.65-2.583,2.525,2.525,0,0,0-4.425,0,4.947,4.947,0,0,0-.65,2.638,4.885,4.885,0,0,0,.65,2.583,2.5,2.5,0,0,0,4.4-.021,4.958,4.958,0,0,0,.671-2.633Z" transform="translate(217.759 741.497)" fill="#e2ac57"/>
    <path id="Fill-10" d="M367.549,292.837a4.492,4.492,0,0,0-.775-.063,2.292,2.292,0,0,0-1.983.971,3.655,3.655,0,0,0-.608,2.162v5.754h-2.442v-7.5c0-1.25,0-2.421-.071-3.45h2.121l.092,2.083h.071a3.75,3.75,0,0,1,1.217-1.737,2.962,2.962,0,0,1,1.758-.588,5.05,5.05,0,0,1,.608.042v2.325" transform="translate(199.85 741.559)" fill="#e2ac57"/>
    <path id="Fill-11" d="M388.265,295.611a5.519,5.519,0,0,1-.1,1.1h-7.308a3.188,3.188,0,0,0,1.063,2.479,3.646,3.646,0,0,0,2.388.762,8.158,8.158,0,0,0,2.954-.517l.379,1.692a9.166,9.166,0,0,1-3.675.679,5.317,5.317,0,0,1-4-1.5,5.552,5.552,0,0,1-1.45-4.025,6.3,6.3,0,0,1,1.358-4.129,4.658,4.658,0,0,1,3.842-1.758,4.066,4.066,0,0,1,3.583,1.758,5.946,5.946,0,0,1,.979,3.458Zm-2.329-.625a3.283,3.283,0,0,0-.471-1.875,2.133,2.133,0,0,0-1.937-1.021,2.308,2.308,0,0,0-1.933.987,3.654,3.654,0,0,0-.721,1.9h5.063Z" transform="translate(190.026 741.606)" fill="#e2ac57"/>
    <g id="Available-on-the" transform="translate(488.108 1014.713)">
      <path id="Fill-12" d="M191.8,257.325h-1.279l-.7-2.192H187.4l-.667,2.192h-1.25l2.4-7.475h1.483Zm-2.2-3.121-.625-1.954c-.063-.2-.187-.671-.383-1.412h-.021c-.079.321-.183.783-.358,1.412L187.6,254.2Z" transform="translate(-185.48 -249.458)" fill="#e2ac57"/>
      <path id="Fill-13" d="M207.835,254.84l-2.038,5.417h-1.163l-1.975-5.417h1.287l.913,2.854c.158.471.292.925.392,1.358h.05c.092-.392.225-.833.392-1.358l.9-2.854h1.25" transform="translate(-195.502 -252.369)" fill="#e2ac57"/>
      <path id="Fill-14" d="M220.8,260.128l-.092-.617h-.033a1.85,1.85,0,0,1-1.575.742,1.562,1.562,0,0,1-1.667-1.588c0-1.329,1.154-2.017,3.15-2.017v-.1c0-.708-.379-1.058-1.121-1.058a2.525,2.525,0,0,0-1.413.417l-.246-.783a3.467,3.467,0,0,1,1.854-.462c1.408,0,2.121.742,2.121,2.233v1.987a7.114,7.114,0,0,0,.083,1.288h-1.083Zm-.162-2.687c-1.329,0-2,.321-2,1.092a.767.767,0,0,0,.833.833,1.15,1.15,0,0,0,1.175-1.1Z" transform="translate(-204.117 -252.261)" fill="#e2ac57"/>
      <path id="Fill-15" d="M233.353,250.714a.717.717,0,1,1,.75-.721.7.7,0,0,1-.75.721Zm-.579.883h1.2v5.388h-1.2Z" transform="translate(-213.008 -249.127)" fill="#e2ac57"/>
      <path id="Fill-16" d="M240.9,248.91h1.2v7.858h-1.2Z" transform="translate(-217.808 -248.91)" fill="#e2ac57"/>
      <path id="Fill-17" d="M251.292,260.116l-.092-.617h-.029a1.858,1.858,0,0,1-1.575.742,1.567,1.567,0,0,1-1.667-1.587c0-1.329,1.154-2.017,3.15-2.017v-.1c0-.708-.379-1.058-1.121-1.058a2.5,2.5,0,0,0-1.408.417l-.25-.792a3.479,3.479,0,0,1,1.854-.462c1.413,0,2.121.742,2.121,2.233v1.987a8.66,8.66,0,0,0,.071,1.283h-1.054Zm-.163-2.687c-1.329,0-2,.321-2,1.092a.762.762,0,0,0,.833.833,1.15,1.15,0,0,0,1.175-1.1Z" transform="translate(-221.909 -252.25)" fill="#e2ac57"/>
      <path id="Fill-18" d="M266.1,256.9a1.833,1.833,0,0,1-1.7-.958h0l-.075.833H263.31c.029-.417.042-.917.042-1.45V248.91h1.2v3.267h.021a1.842,1.842,0,0,1,1.717-.9c1.3,0,2.2,1.108,2.2,2.725A2.634,2.634,0,0,1,266.1,256.9Zm-.246-4.687a1.375,1.375,0,0,0-1.317,1.433v.946a1.317,1.317,0,0,0,1.3,1.35c.9,0,1.429-.733,1.429-1.9.012-1.092-.542-1.833-1.4-1.833Z" transform="translate(-230.881 -248.91)" fill="#e2ac57"/>
      <path id="Fill-19" d="M280,248.91h1.2v7.858H280Z" transform="translate(-240.617 -248.91)" fill="#e2ac57"/>
      <path id="Fill-20" d="M291.846,257.648h-3.592a1.55,1.55,0,0,0,1.7,1.6,4.008,4.008,0,0,0,1.45-.258l.188.833a4.333,4.333,0,0,1-1.8.329,2.5,2.5,0,0,1-2.687-2.717,2.627,2.627,0,0,1,2.554-2.892A2.268,2.268,0,0,1,291.9,257.1,2.083,2.083,0,0,1,291.846,257.648Zm-1.087-.833c0-.833-.417-1.421-1.187-1.421a1.416,1.416,0,0,0-1.3,1.421Z" transform="translate(-244.758 -252.194)" fill="#e2ac57"/>
      <path id="Fill-21" d="M312.282,260.221a2.561,2.561,0,0,1-2.592-2.771,2.62,2.62,0,0,1,2.683-2.85,2.541,2.541,0,0,1,2.6,2.758A2.666,2.666,0,0,1,312.282,260.221Zm.038-4.746c-.867,0-1.421.813-1.421,1.933s.567,1.917,1.408,1.917,1.413-.867,1.413-1.946S313.161,255.475,312.319,255.475Z" transform="translate(-257.936 -252.229)" fill="#e2ac57"/>
      <path id="Fill-22" d="M331.2,260.078h-1.192v-3.1c0-.954-.371-1.429-1.092-1.429a1.25,1.25,0,0,0-1.2,1.317v3.2h-1.192v-3.842c0-.475,0-.987-.042-1.546h1.046l.05.833h.029a1.946,1.946,0,0,1,1.712-.946c1.129,0,1.871.867,1.871,2.275v3.233" transform="translate(-267.736 -252.211)" fill="#e2ac57"/>
      <path id="Fill-23" d="M352.032,253.867h-1.317v2.612c0,.671.237,1,.7,1a2.772,2.772,0,0,0,.538-.05l.029.9a2.616,2.616,0,0,1-.925.133c-.95,0-1.5-.525-1.5-1.883v-2.717h-.783v-.9h.783v-.979l1.175-.363v1.338h1.317v.9" transform="translate(-280.732 -250.497)" fill="#e2ac57"/>
      <path id="Fill-24" d="M365.3,256.777h-1.175V253.7c0-.967-.371-1.45-1.092-1.45a1.175,1.175,0,0,0-1.2,1.275v3.246H360.65V248.91h1.192v3.233h0a1.812,1.812,0,0,1,1.617-.875c1.142,0,1.842.888,1.842,2.3v3.212" transform="translate(-287.662 -248.91)" fill="#e2ac57"/>
      <path id="Fill-25" d="M379.856,257.648h-3.592a1.546,1.546,0,0,0,1.7,1.6,4.018,4.018,0,0,0,1.454-.258l.183.833a4.315,4.315,0,0,1-1.8.329,2.5,2.5,0,0,1-2.688-2.717,2.627,2.627,0,0,1,2.554-2.892,2.268,2.268,0,0,1,2.242,2.563A2.083,2.083,0,0,1,379.856,257.648Zm-1.092-.833c0-.833-.417-1.421-1.183-1.421a1.4,1.4,0,0,0-1.308,1.421Z" transform="translate(-296.097 -252.194)" fill="#e2ac57"/>
    </g>
  </g>
</svg>
