<svg xmlns="http://www.w3.org/2000/svg" xmlns:xlink="http://www.w3.org/1999/xlink" width="362" height="532" viewBox="0 0 362 532">
  <defs>
    <linearGradient id="linear-gradient" y1="0.5" x2="1" y2="0.5" gradientUnits="objectBoundingBox">
      <stop offset="0" stop-color="#ffa7d2"/>
      <stop offset="0.364" stop-color="#ff82b2"/>
      <stop offset="0.975" stop-color="#ff3d77"/>
    </linearGradient>
    <clipPath id="clip-path">
      <rect id="Rectangle_699" data-name="Rectangle 699" width="362" height="395" transform="translate(168 1220)" fill="#23262a" opacity="0.9"/>
    </clipPath>
    <filter id="Path_5826" x="13.752" y="184.583" width="208.832" height="205.626" filterUnits="userSpaceOnUse">
      <feOffset dy="3" input="SourceAlpha"/>
      <feGaussianBlur stdDeviation="4.5" result="blur"/>
      <feFlood flood-color="#9f7e40" flood-opacity="0.302"/>
      <feComposite operator="in" in2="blur"/>
      <feComposite in="SourceGraphic"/>
    </filter>
    <filter id="Path_5827" x="-8.661" y="209.725" width="209.497" height="204.853" filterUnits="userSpaceOnUse">
      <feOffset dy="3" input="SourceAlpha"/>
      <feGaussianBlur stdDeviation="4.5" result="blur-2"/>
      <feFlood flood-color="#9f7e40" flood-opacity="0.302"/>
      <feComposite operator="in" in2="blur-2"/>
      <feComposite in="SourceGraphic"/>
    </filter>
    <clipPath id="clip-path-2">
      <path id="Path_5831" data-name="Path 5831" d="M84.376,43.87,48.5,51.5l-.047.01-.047.009-.048.008-.047.008,35.874-7.634.048-.008.048-.009.048-.009Z" transform="translate(-48.309 -43.87)" fill="url(#linear-gradient)"/>
    </clipPath>
    <filter id="Path_5836" x="111.112" y="346.757" width="216.534" height="196.359" filterUnits="userSpaceOnUse">
      <feOffset dy="3" input="SourceAlpha"/>
      <feGaussianBlur stdDeviation="4.5" result="blur-3"/>
      <feFlood flood-color="#9f7e40" flood-opacity="0.302"/>
      <feComposite operator="in" in2="blur-3"/>
      <feComposite in="SourceGraphic"/>
    </filter>
    <filter id="Path_5837" x="94.792" y="315.885" width="213.662" height="199.46" filterUnits="userSpaceOnUse">
      <feOffset dy="3" input="SourceAlpha"/>
      <feGaussianBlur stdDeviation="4.5" result="blur-4"/>
      <feFlood flood-color="#9f7e40" flood-opacity="0.302"/>
      <feComposite operator="in" in2="blur-4"/>
      <feComposite in="SourceGraphic"/>
    </filter>
    <linearGradient id="linear-gradient-5" x1="0.492" y1="0.3" x2="0.515" y2="0.886" xlink:href="#linear-gradient"/>
    <filter id="Path_5850" x="221.873" y="100.983" width="145.976" height="217.114" filterUnits="userSpaceOnUse">
      <feOffset dy="3" input="SourceAlpha"/>
      <feGaussianBlur stdDeviation="4.5" result="blur-5"/>
      <feFlood flood-color="#9e7e3f"/>
      <feComposite operator="in" in2="blur-5"/>
      <feComposite in="SourceGraphic"/>
    </filter>
    <filter id="Path_5851" x="149.761" y="90.54" width="191.432" height="227.58" filterUnits="userSpaceOnUse">
      <feOffset dy="3" input="SourceAlpha"/>
      <feGaussianBlur stdDeviation="4.5" result="blur-6"/>
      <feFlood flood-color="#9e7e40" flood-opacity="0.302"/>
      <feComposite operator="in" in2="blur-6"/>
      <feComposite in="SourceGraphic"/>
    </filter>
    <clipPath id="clip-path-3">
      <rect id="Rectangle_687" data-name="Rectangle 687" width="308" height="137" transform="translate(214 1003)" fill="#23262a"/>
    </clipPath>
    <filter id="Path_5826-2" x="13.752" y="183.583" width="208.832" height="205.626" filterUnits="userSpaceOnUse">
      <feOffset dy="3" input="SourceAlpha"/>
      <feGaussianBlur stdDeviation="4.5" result="blur-7"/>
      <feFlood flood-color="#9f7e40" flood-opacity="0.302"/>
      <feComposite operator="in" in2="blur-7"/>
      <feComposite in="SourceGraphic"/>
    </filter>
    <filter id="Path_5836-2" x="111.112" y="345.757" width="216.534" height="196.359" filterUnits="userSpaceOnUse">
      <feOffset dy="3" input="SourceAlpha"/>
      <feGaussianBlur stdDeviation="4.5" result="blur-8"/>
      <feFlood flood-color="#9f7e40" flood-opacity="0.302"/>
      <feComposite operator="in" in2="blur-8"/>
      <feComposite in="SourceGraphic"/>
    </filter>
    <filter id="Path_5837-2" x="94.792" y="314.885" width="213.662" height="199.46" filterUnits="userSpaceOnUse">
      <feOffset dy="3" input="SourceAlpha"/>
      <feGaussianBlur stdDeviation="4.5" result="blur-9"/>
      <feFlood flood-color="#9f7e40" flood-opacity="0.302"/>
      <feComposite operator="in" in2="blur-9"/>
      <feComposite in="SourceGraphic"/>
    </filter>
  </defs>
  <g id="Symbol_46_1" data-name="Symbol 46 – 1" transform="translate(-1019 -86)">
    <g id="Chips1" transform="translate(851 -997)" clip-path="url(#clip-path)">
      <g id="Group_5739" data-name="Group 5739" transform="translate(173.339 1088.845)" opacity="0.6">
        <g id="Group_5723" data-name="Group 5723" transform="translate(0 189.748)">
          <g id="Group_5722" data-name="Group 5722">
            <g id="Group_5720" data-name="Group 5720" transform="translate(22.429)">
              <g transform="matrix(1, 0, 0, 1, -27.77, -195.59)" filter="url(#Path_5826)">
                <path id="Path_5826-3" data-name="Path 5826" d="M77.955,58.641a80.439,80.439,0,0,1,32.6-2.164,108.837,108.837,0,0,1,32.8,9.919,129.983,129.983,0,0,1,29.981,19.932A131.757,131.757,0,0,1,197.6,114.877a112.307,112.307,0,0,1,14.187,32.933,84.669,84.669,0,0,1,1.875,31.906A63.669,63.669,0,0,1,203.044,207.4a58.242,58.242,0,0,1-23.583,19.548,73.187,73.187,0,0,1-33.347,6.358,103,103,0,0,1-36.5-8.4,128.588,128.588,0,0,1-34.509-21.787,130.758,130.758,0,0,1-27.073-32.9A107.171,107.171,0,0,1,34.61,133.089a77.325,77.325,0,0,1,1.84-33.407A59.761,59.761,0,0,1,51.575,73.856,60.861,60.861,0,0,1,77.955,58.641Zm77.121,127.867a56.616,56.616,0,0,1-1.591-5.715,85.646,85.646,0,0,1-1.965-13.21,81.906,81.906,0,0,1,.673-18.032,71.043,71.043,0,0,1,6.134-20.142,125.944,125.944,0,0,1-23.817-8.916,132.134,132.134,0,0,1-17.977-10.707,121.369,121.369,0,0,1-11.45-9.171c-2.668-2.434-4.169-4.069-4.443-4.363a51.249,51.249,0,0,1,1.416,5.361,77.472,77.472,0,0,1,.309,30.29,74.6,74.6,0,0,1-7.351,20.935,129.991,129.991,0,0,1,43.779,19.847,118.325,118.325,0,0,1,11.714,9.335c2.738,2.493,4.284,4.184,4.568,4.488" transform="translate(-5.84 139.86)" fill="#2f3337" stroke="#9f7e40" stroke-width="1"/>
              </g>
            </g>
            <g transform="matrix(1, 0, 0, 1, -5.34, -195.59)" filter="url(#Path_5827)">
              <path id="Path_5827-2" data-name="Path 5827" d="M207.75,200.948q-1.578,1.152-3.246,2.2t-3.451,2.03c-1.187.643-2.4,1.257-3.66,1.835a73.187,73.187,0,0,1-33.347,6.358,103,103,0,0,1-36.5-8.4A128.588,128.588,0,0,1,93.039,183.19a130.758,130.758,0,0,1-27.073-32.9,112.953,112.953,0,0,1-10.816-25.238,90.83,90.83,0,0,1-3.605-24.186,72.9,72.9,0,0,1,3.047-21.817,61.049,61.049,0,0,1,9.071-18.312l-22.3,30.489a61.721,61.721,0,0,0-9.016,17.967,72,72,0,0,0-3.236,21.239,87.287,87.287,0,0,0,3.162,23.4,105.821,105.821,0,0,0,10.1,24.286A121.056,121.056,0,0,0,68.045,209.56a119.608,119.608,0,0,0,33.008,20.59,97.814,97.814,0,0,0,35.182,7.625,72.28,72.28,0,0,0,32.424-6.6q1.84-.868,3.585-1.83c1.157-.638,2.284-1.312,3.381-2.01s2.159-1.426,3.192-2.184,2.025-1.531,2.992-2.339l28.978-24.236C209.8,199.4,208.793,200.185,207.75,200.948Z" transform="translate(-23.77 159.79)" fill="#2f3337" stroke="#9f7e40" stroke-width="1"/>
            </g>
          </g>
        </g>
        <g id="Group_5726" data-name="Group 5726" transform="translate(95.734 130.58)">
          <path id="Path_5829" data-name="Path 5829" d="M84.376,43.87,48.5,51.5l-.047.01-.047.009-.048.008-.047.008,35.874-7.634.048-.008.048-.009.048-.009Z" transform="translate(-48.309 -43.87)" fill="url(#linear-gradient)"/>
          <g id="Group_5725" data-name="Group 5725" clip-path="url(#clip-path-2)">
            <g id="Group_5724" data-name="Group 5724">
              <path id="Path_5830" data-name="Path 5830" d="M84.376,43.87,48.5,51.5l-.047.01-.047.009-.048.008-.047.008,35.874-7.634.048-.008.048-.009.048-.009.048-.01" transform="translate(-48.309 -43.87)" fill="url(#linear-gradient)"/>
            </g>
          </g>
        </g>
        <g id="Group_5730" data-name="Group 5730" transform="translate(103.464 321.048)">
          <g id="Group_5728" data-name="Group 5728">
            <g transform="matrix(1, 0, 0, 1, -108.8, -326.89)" filter="url(#Path_5836)">
              <path id="Path_5836-3" data-name="Path 5836" d="M241.533,159.47c.055-.658.1-1.307.135-1.96l.01-.175c.02-.444.035-.883.05-1.321.015-.389.03-.778.04-1.162.01-.439,0-.878,0-1.316,0-.384,0-.763,0-1.147a1.126,1.126,0,0,0,0-.13c-.01-.668-.03-1.337-.06-2l-.015-.329-.015-.3c-.03-.6-.075-1.207-.12-1.81l-.03-.349c-.01-.145-.02-.289-.035-.434-.05-.554-.1-1.1-.17-1.651l-.04-.339c-.025-.189-.045-.379-.07-.573-.065-.5-.135-1-.209-1.5l-.045-.289c-.04-.244-.075-.489-.115-.728-.05-.3-.11-.6-.165-.9-.05-.254-.095-.514-.145-.768l-.05-.3c-.095-.454-.194-.9-.294-1.356-.03-.14-.055-.279-.085-.419l-.02-.075-.02-.09c-.15-.643-.3-1.282-.474-1.915l-.025-.095c-.045-.175-.1-.344-.145-.514-.115-.429-.234-.858-.359-1.277l-.095-.3c-.055-.185-.115-.369-.17-.549-.08-.249-.155-.5-.234-.753s-.17-.489-.249-.738c-.065-.18-.125-.359-.19-.539-.035-.1-.065-.2-.1-.3-.189-.524-.379-1.042-.583-1.561l-.02-.045-.08-.2c-.17-.429-.339-.858-.519-1.287-.06-.14-.125-.284-.185-.424l-.2-.464c-.075-.165-.145-.329-.219-.494q-.284-.636-.583-1.257l-.04-.085-.01-.025c-.214-.454-.439-.9-.668-1.346-.07-.14-.145-.274-.219-.414s-.155-.294-.229-.439-.165-.314-.249-.469l-.175-.324-.18-.319-.18-.319-.185-.319L214.41,88.2c.339.583.663,1.177.977,1.77.08.15.16.3.234.449.314.6.618,1.2.908,1.81l.045.095c.279.583.544,1.177.8,1.77l.2.469c.244.578.484,1.157.708,1.74l.085.209c.244.638.479,1.287.7,1.94.06.184.12.369.185.554.165.5.329,1.007.484,1.516.055.185.115.369.17.559.155.534.3,1.072.444,1.611.05.175.1.349.145.524.18.708.354,1.421.509,2.144.04.165.07.334.1.5.12.559.229,1.122.334,1.686.05.264.095.529.14.793.095.554.185,1.107.264,1.661l.045.294c.1.708.185,1.416.264,2.129l.035.344c.075.708.135,1.416.185,2.129l.025.359c.05.718.085,1.441.115,2.169l.01.334c.02.723.035,1.451.035,2.184,0,.389-.01.783-.02,1.177-.005.449-.005.9-.02,1.351-.015.394-.04.793-.06,1.187-.02.454-.04.908-.07,1.361q-.075,1.092-.18,2.184l-.025.309c-.075.748-.165,1.506-.259,2.264l-.04.319c-.1.758-.214,1.521-.339,2.284l-.05.329c-.13.763-.264,1.526-.414,2.294l-.065.334c-.15.768-.314,1.536-.489,2.309l-.08.334c-.175.773-.364,1.546-.564,2.324l-.14.524-.18.673c-.065.224-.125.454-.189.678s-.125.444-.19.668-.135.459-.2.688-.135.439-.2.663-.145.459-.214.693-.14.439-.214.658-.15.464-.229.7-.145.439-.219.658-.16.474-.244.708-.155.439-.229.658-.17.469-.259.7-.16.444-.239.663l-.269.7c-.085.224-.17.444-.254.668s-.184.464-.279.7l-.269.673c-.095.229-.189.459-.289.693s-.185.454-.284.683-.194.459-.294.683l-.3.688c-.1.229-.2.459-.309.688s-.2.459-.309.688-.214.454-.319.683-.214.459-.324.688-.224.459-.334.688-.219.459-.334.688l-.344.688c-.115.229-.229.459-.344.683s-.244.464-.364.7-.234.449-.354.678l-.214.4c-.2.389-.419.778-.633,1.172l-.3.539c-.195.349-.389.7-.588,1.042-.1.19-.214.374-.319.559-.209.359-.419.723-.633,1.082l-.289.489c-.314.519-.628,1.037-.947,1.556q-.7,1.122-1.421,2.229l-.01.02q-.711,1.085-1.446,2.164l-.035.05q-.733,1.077-1.5,2.139c-.354.5-.723.992-1.087,1.486-.155.209-.3.424-.464.633-.359.484-.733.962-1.1,1.446-.165.209-.324.424-.489.638-.369.474-.748.943-1.127,1.411-.17.214-.339.429-.514.643s-.374.444-.559.673c-.339.409-.678.818-1.022,1.222-.234.274-.469.549-.708.823-.3.349-.6.7-.908,1.047l-.753.843c-.3.334-.608.673-.913,1.007l-.763.823c-.344.369-.688.733-1.037,1.1l-.6.633q-.808.83-1.631,1.656c-.14.14-.279.274-.419.409-.434.429-.868.853-1.307,1.277-.214.2-.429.409-.643.608-.389.369-.778.733-1.167,1.1-.2.185-.4.369-.6.549-.484.439-.967.878-1.456,1.312l-.309.279q-.89.778-1.785,1.541c-.17.15-.344.289-.514.434-.454.379-.9.758-1.356,1.132-.19.155-.379.309-.569.459-.514.419-1.027.828-1.546,1.237l-.319.254q-.927.726-1.86,1.426l-.539.4c-.459.339-.918.678-1.381,1.017l-.643.464c-.5.359-1,.708-1.5,1.057-.15.1-.294.209-.444.309-.623.434-1.252.858-1.885,1.282-.209.14-.424.279-.638.424-.439.289-.883.573-1.326.858-.254.165-.509.329-.768.489-.444.284-.893.563-1.346.843l-.658.4c-.638.389-1.282.778-1.93,1.152-.214.13-.429.249-.643.374-.459.264-.918.524-1.376.783-.284.165-.573.319-.858.479-.419.229-.838.459-1.252.683-.284.155-.564.3-.848.454-.464.244-.933.489-1.4.728-.229.12-.459.239-.688.354q-1.017.516-2.05,1.017c-.249.12-.5.234-.748.354-.479.229-.957.459-1.436.678-.289.135-.578.264-.873.394-.439.2-.883.4-1.331.6-.3.13-.6.259-.9.389-.439.19-.878.379-1.321.564-.3.125-.6.249-.9.369-.414.17-.828.334-1.242.5l-1.142.449c-.394.15-.788.3-1.182.444s-.773.289-1.157.429-.778.274-1.167.414-.788.274-1.182.409-.768.254-1.152.379-.8.264-1.2.389c-.314.1-.633.2-.948.294-.643.2-1.287.389-1.93.573-.284.085-.563.165-.848.244-.753.209-1.506.414-2.259.608-.155.04-.309.085-.464.125q-1.384.352-2.758.663c-.19.045-.374.08-.559.12-.723.165-1.451.319-2.179.464-.434.09-.863.175-1.3.259l-.643.12c-.673.125-1.351.239-2.03.354l-.6.09c-.509.085-1.022.16-1.531.234-.239.035-.479.065-.723.1-.544.075-1.082.145-1.626.209-.16.02-.319.04-.484.055-.683.08-1.371.15-2.055.214-.2.02-.394.035-.588.055-.524.045-1.042.085-1.561.125l-.643.045c-.633.045-1.267.08-1.9.11l-.19.01c-.693.03-1.381.05-2.07.065l-.588.01c-.514.01-1.022.015-1.536.015-.2,0-.394,0-.593-.005-.678,0-1.351-.01-2.025-.03l-.145-.005c-.623-.02-1.247-.05-1.87-.08-.214-.01-.429-.025-.638-.035-.484-.03-.967-.065-1.446-.1l-.618-.045c-.653-.055-1.3-.115-1.945-.185l-.374-.04c-.534-.06-1.067-.125-1.6-.194l-.673-.09c-.464-.065-.923-.135-1.386-.2-.2-.03-.4-.06-.6-.095-.628-.1-1.252-.209-1.875-.329-.165-.03-.329-.065-.494-.1-.479-.09-.957-.189-1.436-.294-.219-.045-.444-.095-.663-.145-.464-.1-.928-.209-1.386-.324-.175-.04-.354-.085-.529-.13-.608-.15-1.217-.314-1.82-.479l-.514-.15c-.459-.13-.918-.269-1.376-.409-.2-.06-.4-.125-.6-.185-.5-.165-1.007-.329-1.506-.5l-.329-.11c-.6-.209-1.2-.429-1.79-.648-.165-.065-.329-.13-.5-.194-.449-.175-.9-.354-1.346-.539-.175-.07-.349-.145-.524-.214-.588-.249-1.177-.5-1.76-.768q-2.827-1.279-5.426-2.768t-4.962-3.152q-2.356-1.668-4.493-3.506c-1.421-1.222-2.768-2.5-4.039-3.83l26.37,27.607q1.885,1.967,3.979,3.785t4.413,3.476q2.319,1.653,4.852,3.132t5.3,2.773c.568.264,1.142.519,1.72.768.165.07.334.145.5.214.439.185.878.364,1.316.544.16.065.324.13.484.189.578.229,1.157.449,1.74.658l.309.11q.741.262,1.481.509c.189.06.384.125.578.185.444.145.893.284,1.341.419l.494.15q.823.239,1.646.464l.125.03c.17.045.339.09.509.13.449.12.9.229,1.351.339l.638.15c.464.1.928.209,1.4.3l.479.1c.6.12,1.207.234,1.815.344.194.035.384.065.578.1.449.075.9.15,1.346.219.214.03.429.065.648.095q.778.112,1.556.209l.349.045q.815.1,1.631.18l.254.025c.2.02.394.035.593.055.469.04.933.08,1.406.115l.608.045c.6.04,1.207.075,1.815.1l.135,0c.653.03,1.3.05,1.96.06.189,0,.379.01.573.01.494.01.987.01,1.481.01h.563c.668-.01,1.336-.02,2-.04l.17-.005q.718-.022,1.436-.06c.135-.005.269-.015.4-.02.2-.01.409-.025.613-.035.5-.03,1.007-.065,1.516-.1.185-.01.369-.025.559-.04.658-.055,1.322-.11,1.985-.18.15-.015.3-.035.454-.05.524-.055,1.052-.115,1.581-.18l.683-.09c.494-.065.992-.13,1.486-.2.189-.025.379-.05.573-.08.648-.1,1.3-.2,1.955-.314.2-.035.409-.075.608-.11.309-.055.613-.1.918-.165l.339-.065c.7-.135,1.391-.274,2.089-.424.14-.025.279-.055.424-.085l.115-.025q1.324-.284,2.648-.608l.085-.02c.125-.03.244-.065.369-.095.723-.18,1.441-.364,2.164-.559.1-.03.209-.055.319-.08.165-.045.329-.1.494-.145.618-.17,1.232-.349,1.85-.529.165-.05.334-.095.5-.145.14-.045.274-.09.414-.13.384-.12.768-.239,1.147-.359.229-.07.454-.14.678-.214.145-.045.289-.095.434-.145.374-.12.748-.249,1.122-.374.229-.08.454-.155.683-.229.145-.055.294-.11.444-.16.369-.13.738-.264,1.107-.4.224-.08.454-.16.678-.244.15-.055.3-.115.454-.169s.3-.11.449-.17c.219-.08.434-.169.648-.254s.444-.165.668-.254c.175-.065.344-.14.519-.209.289-.115.578-.229.863-.349.195-.08.389-.155.578-.234.229-.095.459-.195.688-.289.289-.125.578-.244.863-.369l.4-.17c.294-.13.588-.264.883-.394.274-.12.554-.244.828-.369l.234-.1c.384-.174.768-.359,1.152-.539.234-.11.469-.214.7-.329l.08-.035c.593-.284,1.187-.578,1.78-.873l.1-.05.643-.329c.339-.175.683-.344,1.022-.519l.329-.175.8-.429.628-.329c.194-.1.384-.214.573-.319.269-.145.544-.294.813-.449.12-.065.244-.13.364-.2.324-.18.643-.364.962-.549.2-.115.4-.229.6-.344l.09-.05c.549-.324,1.1-.648,1.646-.977l.115-.07c.2-.125.414-.249.618-.379.3-.185.6-.364.9-.549.135-.085.264-.17.4-.254.239-.155.479-.3.723-.459.165-.1.329-.209.5-.314.259-.17.519-.339.773-.514.2-.13.4-.259.6-.394l.185-.12c.519-.349,1.037-.7,1.551-1.052l.065-.045.414-.289c.354-.244.708-.494,1.062-.743l.374-.269c.2-.145.4-.294.608-.439.18-.13.359-.259.539-.394.259-.19.519-.384.778-.578.17-.13.344-.254.514-.384l.209-.155c.494-.374.992-.758,1.481-1.142l.08-.06.3-.244c.364-.284.723-.569,1.087-.863.13-.1.254-.209.384-.314l.244-.194c.1-.08.195-.165.294-.244.175-.145.354-.289.529-.434l.763-.643.489-.414.2-.175c.484-.414.962-.833,1.436-1.252l.055-.05.294-.259c.359-.324.718-.643,1.072-.967.1-.1.209-.194.314-.294.189-.17.374-.344.563-.519s.349-.324.524-.489c.2-.19.394-.379.593-.568s.4-.379.6-.574l.244-.239c.339-.324.673-.658,1.007-.992.125-.13.259-.254.389-.384l.025-.025c.469-.474.933-.948,1.391-1.426l.13-.135c.194-.2.379-.4.573-.6.224-.239.449-.474.673-.713.1-.115.2-.229.309-.339.239-.264.484-.529.723-.793.14-.155.284-.309.424-.469s.294-.329.444-.5c.234-.264.474-.534.708-.8.095-.1.19-.214.284-.319.195-.229.389-.464.583-.693.224-.259.449-.519.668-.783l.15-.175c.274-.334.549-.668.818-1.007.175-.214.354-.424.524-.638l.03-.035c.155-.19.309-.389.464-.583.354-.449.708-.9,1.057-1.351l.02-.025c.15-.195.3-.4.449-.6.349-.459.7-.918,1.037-1.381l.01-.01c.145-.2.289-.4.434-.6.843-1.167,1.666-2.339,2.468-3.536.224-.334.444-.673.668-1.012s.464-.713.693-1.072h0l.01-.015c.224-.354.449-.708.668-1.062s.444-.723.668-1.087c.3-.5.6-1,.888-1.5l.075-.13.2-.344c.2-.349.4-.693.593-1.037l.14-.244.165-.3c.185-.334.369-.668.549-1l.18-.324.1-.2c.2-.374.4-.753.593-1.127l.16-.3.045-.085c.11-.214.219-.429.324-.643s.234-.454.344-.683.214-.429.319-.648.219-.449.329-.678.209-.434.309-.653.214-.449.314-.673.2-.439.3-.658.2-.444.3-.668l.284-.658c.1-.224.2-.449.294-.673s.185-.434.274-.653.189-.449.279-.673.175-.434.264-.653l.269-.673c.085-.219.165-.434.249-.653.06-.16.125-.319.185-.479l.045-.115q.434-1.159.833-2.314l.11-.314c.19-.559.379-1.112.554-1.666.07-.209.135-.419.2-.628l.1-.329c.239-.758.459-1.521.673-2.279l.095-.324c.209-.758.4-1.516.593-2.274l.045-.17.035-.155c.185-.753.354-1.506.519-2.254l.07-.324c.155-.748.3-1.5.439-2.239l.06-.329c.135-.743.254-1.486.369-2.229l.045-.319c.11-.743.209-1.481.294-2.219l.02-.135.015-.175c.085-.738.16-1.471.219-2.209Z" transform="translate(71.87 269.3)" fill="#2f3337" stroke="#9f7e40" stroke-width="1"/>
            </g>
            <g id="Group_5727" data-name="Group 5727">
              <g transform="matrix(1, 0, 0, 1, -108.8, -326.89)" filter="url(#Path_5837)">
                <path id="Path_5837-3" data-name="Path 5837" d="M191.1,85.252a63.171,63.171,0,0,1,26.6,15.085,57.366,57.366,0,0,1,15.09,25.074,71.018,71.018,0,0,1,1.561,32.215,100,100,0,0,1-13.993,35.7A128.108,128.108,0,0,1,192.41,224.9a132.806,132.806,0,0,1-35.581,20.81,110.683,110.683,0,0,1-37.615,7.789,78.8,78.8,0,0,1-34.264-6.608,59.009,59.009,0,0,1-24.011-19.409,59.873,59.873,0,0,1-10.487-27.188,78.248,78.248,0,0,1,2.493-31.063,106.342,106.342,0,0,1,15.17-31.766,129.67,129.67,0,0,1,25.363-27.228,133.762,133.762,0,0,1,30.958-18.705A115.827,115.827,0,0,1,158,82.584,86.523,86.523,0,0,1,191.1,85.252ZM166.449,174.4a28.84,28.84,0,0,0,7.575-4.538A27.683,27.683,0,0,0,179.6,163.6a21.913,21.913,0,0,0,3.027-7.126,15.623,15.623,0,0,0-.025-7.141,13.078,13.078,0,0,0-1.237-3.167,12.181,12.181,0,0,0-1.935-2.6,13.069,13.069,0,0,0-2.523-2.025,14.82,14.82,0,0,0-3.022-1.411,17.478,17.478,0,0,0-3.416-.773,20.346,20.346,0,0,0-3.715-.1,22.941,22.941,0,0,0-3.925.593,26.282,26.282,0,0,0-4.044,1.312l-6,2.488-1.122-4.977a12.526,12.526,0,0,0-1.117-3.057,11.525,11.525,0,0,0-1.8-2.513,12.017,12.017,0,0,0-2.384-1.95,13.787,13.787,0,0,0-2.872-1.346,15.856,15.856,0,0,0-3.261-.728,19.191,19.191,0,0,0-3.566-.085,22.408,22.408,0,0,0-3.78.593,25.818,25.818,0,0,0-3.91,1.3,28.6,28.6,0,0,0-7.156,4.339,27.592,27.592,0,0,0-5.371,5.9,22.126,22.126,0,0,0-3.107,6.747,15.553,15.553,0,0,0-.314,6.857l7.271,38.393L166.449,174.4" transform="translate(58.94 244.83)" fill="#2f3337" stroke="#9f7e40" stroke-width="1"/>
              </g>
            </g>
          </g>
        </g>
        <g id="Group_5733" data-name="Group 5733" transform="translate(27.156)">
          <path id="Path_5841" data-name="Path 5841" d="M90.762,40.932h0l-35.92,8.233c-.469.334-.952.643-1.441.923s-1,.539-1.506.768-1.037.429-1.566.608-1.062.324-1.606.449h0l35.83-8.153a15.537,15.537,0,0,0,1.631-.459,16.6,16.6,0,0,0,1.586-.623c.519-.239,1.032-.5,1.531-.793.249-.145.494-.3.738-.459s.484-.324.723-.494Z" transform="translate(21.919 74.995)" fill="url(#linear-gradient-5)"/>
          <g id="Group_5731" data-name="Group 5731" transform="translate(34.125)">
            <path id="Path_5842" data-name="Path 5842" d="M138.247,24.032a89.572,89.572,0,0,1,27.4,19.837,116.5,116.5,0,0,1,19.982,28.854,131.683,131.683,0,0,1,11.41,34.464,125.973,125.973,0,0,1,1.316,37.177,103.171,103.171,0,0,1-9.689,33.825,77.16,77.16,0,0,1-19.07,24.854,61.287,61.287,0,0,1-26.52,13.285,62.344,62.344,0,0,1-31.711-1.551A82.541,82.541,0,0,1,80.44,196.865a112.449,112.449,0,0,1-23.747-30.793,131.2,131.2,0,0,1-13.375-39.047A124.064,124.064,0,0,1,43.059,85.1a96.834,96.834,0,0,1,13.22-35.73,70.721,70.721,0,0,1,22.83-22.9,59.582,59.582,0,0,1,28.47-8.717A66.642,66.642,0,0,1,138.247,24.032Zm13.434,121.015a16,16,0,0,0,2.523-3.536,21.4,21.4,0,0,0,1.715-4.309,26.824,26.824,0,0,0,.888-4.812,29.5,29.5,0,0,0,.04-5.057,37.59,37.59,0,0,0-1.421-7.55,55.613,55.613,0,0,0-2.7-7.181c-1.057-2.334-2.234-4.618-3.451-6.852s-2.463-4.428-3.66-6.578c-1.162-2.089-2.344-4.194-3.5-6.328s-2.279-4.3-3.346-6.5-2.06-4.438-2.957-6.722a68.782,68.782,0,0,1-2.329-6.992c-.055-.2-.155-.568-.279-1.032s-.274-1.022-.419-1.6-.284-1.157-.394-1.681a10.174,10.174,0,0,1-.209-1.3,6.016,6.016,0,0,1-.529.992c-.234.379-.514.788-.8,1.182s-.559.778-.8,1.087-.424.564-.529.7a34.693,34.693,0,0,1-3.969,4.413,46.311,46.311,0,0,1-4.513,3.71c-1.576,1.152-3.207,2.219-4.862,3.246s-3.341,2.025-5.017,3.017c-1.725,1.022-3.521,2.05-5.306,3.152a52.6,52.6,0,0,0-5.251,3.62A29.938,29.938,0,0,0,95.939,96.7a23.9,23.9,0,0,0-3.571,5.964,24.751,24.751,0,0,0-1.421,4.782,29.041,29.041,0,0,0-.035,10.587,27.162,27.162,0,0,0,1.481,5.226,26.359,26.359,0,0,0,2.314,4.543,21.837,21.837,0,0,0,2.862,3.605,19.192,19.192,0,0,0,3.276,2.673,17.618,17.618,0,0,0,3.556,1.765,16.9,16.9,0,0,0,4.029.923,16.642,16.642,0,0,0,7.929-1.157,17.14,17.14,0,0,0,3.6-2c-.354,1.621-.778,3.306-1.282,4.927a33.57,33.57,0,0,1-1.755,4.583,13.922,13.922,0,0,1-2.3,3.5,5.206,5.206,0,0,1-2.892,1.681l17.055,6.039a9.22,9.22,0,0,1-2.114-3.431,21.6,21.6,0,0,1-1.112-4.688c-.234-1.7-.354-5.311-.354-5.311s.055-3.61.17-5.311a32.321,32.321,0,0,0,2.668,4.274,28.391,28.391,0,0,0,3.152,3.6,23.816,23.816,0,0,0,3.5,2.8,18.343,18.343,0,0,0,3.71,1.865,13.91,13.91,0,0,0,3.486.793,11.732,11.732,0,0,0,3.446-.19,11.229,11.229,0,0,0,3.3-1.267,13.35,13.35,0,0,0,3.057-2.429" transform="translate(-41.4 -17.685)" fill="#2f3337" stroke="#9f7e40" stroke-width="1"/>
          </g>
          <path id="Path_5843" data-name="Path 5843" d="M158.5,214.484a61.535,61.535,0,0,1-6.473-.254,64.688,64.688,0,0,1-6.627-.957q-3.351-.666-6.752-1.7c-.628-.19-1.252-.394-1.875-.6-.184-.06-.369-.125-.549-.185-.474-.165-.943-.329-1.411-.5-.17-.06-.339-.125-.514-.185-.608-.234-1.222-.469-1.825-.713l-.294-.125c-.514-.209-1.027-.429-1.541-.648-.19-.085-.379-.17-.574-.254-.454-.2-.908-.414-1.361-.623l-.479-.224c-.583-.279-1.167-.569-1.745-.863-.155-.075-.3-.155-.454-.234-.444-.229-.893-.464-1.331-.7-.2-.1-.394-.214-.588-.319-.449-.249-.9-.5-1.341-.758l-.419-.239c-.559-.329-1.117-.663-1.671-1.007-.175-.1-.349-.214-.524-.324-.4-.254-.813-.514-1.217-.778-.19-.125-.379-.244-.568-.369-.479-.319-.952-.638-1.421-.962l-.259-.175c-.544-.379-1.082-.768-1.621-1.157l-.519-.384c-.4-.294-.793-.593-1.187-.893-.165-.13-.334-.259-.5-.389-.539-.419-1.072-.843-1.606-1.277l-.045-.035q-.785-.643-1.556-1.3c-.15-.125-.3-.254-.454-.384-.4-.349-.8-.7-1.2-1.057-.14-.12-.274-.244-.414-.369q-.785-.711-1.566-1.441l-.165-.155c-.459-.439-.918-.878-1.371-1.326-.15-.145-.294-.289-.444-.439q-.591-.583-1.167-1.182c-.125-.125-.249-.249-.369-.379-.489-.5-.972-1.017-1.451-1.536l-.349-.384c-.374-.4-.738-.813-1.107-1.222-.155-.18-.314-.359-.474-.539-.359-.414-.723-.833-1.077-1.252l-.344-.4q-.673-.8-1.331-1.616c-.145-.18-.289-.359-.434-.544-.314-.394-.628-.788-.938-1.192-.16-.2-.314-.4-.474-.608-.359-.469-.713-.942-1.062-1.416l-.249-.334c-.424-.569-.838-1.147-1.247-1.73-.14-.195-.279-.394-.414-.588-.3-.429-.593-.858-.888-1.292-.135-.195-.269-.394-.4-.588-.409-.608-.808-1.217-1.207-1.83l-.08-.125c-.374-.588-.743-1.182-1.112-1.775-.12-.19-.234-.379-.349-.569-.294-.484-.588-.972-.878-1.461-.1-.175-.2-.344-.3-.519q-.568-.972-1.122-1.96l-.135-.244c-.324-.583-.643-1.167-.957-1.755l-.309-.573c-.279-.534-.559-1.067-.833-1.6-.08-.16-.165-.319-.244-.479-.339-.673-.678-1.351-1.007-2.035l-.224-.469c-.254-.539-.509-1.077-.758-1.621l-.309-.668c-.249-.544-.489-1.087-.728-1.636-.075-.165-.145-.324-.219-.489q-.441-1.025-.868-2.065c-.09-.214-.18-.434-.269-.648-.2-.509-.4-1.012-.6-1.521-.1-.249-.194-.494-.289-.743-.224-.583-.444-1.162-.658-1.75-.055-.14-.11-.279-.16-.419-.254-.7-.5-1.406-.748-2.114-.085-.239-.165-.479-.244-.718-.175-.514-.344-1.027-.514-1.541-.08-.249-.16-.494-.239-.743q-.337-1.047-.658-2.109l-.09-.309c-.194-.658-.389-1.322-.573-1.985-.07-.244-.135-.489-.2-.733-.15-.544-.294-1.087-.439-1.636-.06-.224-.12-.449-.175-.673-.189-.743-.374-1.491-.554-2.239l-.095-.4c-.145-.633-.289-1.267-.429-1.9-.05-.239-.1-.479-.15-.713-.13-.593-.249-1.187-.369-1.78-.035-.19-.075-.374-.11-.564-.075-.384-.145-.768-.214-1.157-.095-.509-.19-1.022-.279-1.536-.065-.389-.125-.778-.19-1.162-.08-.5-.165-1.007-.239-1.511-.06-.389-.115-.783-.17-1.172-.07-.5-.145-1.007-.209-1.516-.05-.389-.095-.773-.14-1.167-.065-.509-.125-1.017-.18-1.531-.04-.384-.08-.768-.12-1.157-.05-.514-.1-1.032-.145-1.551-.035-.379-.065-.758-.095-1.142-.04-.524-.075-1.047-.11-1.571-.025-.379-.05-.753-.07-1.127-.03-.534-.055-1.067-.08-1.6l-.045-1.107c-.02-.539-.035-1.077-.045-1.621-.01-.364-.015-.728-.02-1.092-.01-.544-.01-1.087-.01-1.631v-1.087c0-.549.015-1.1.03-1.641,0-.359.015-.718.025-1.072.015-.554.04-1.107.065-1.661.015-.354.03-.7.045-1.057.03-.559.07-1.117.1-1.671.025-.349.045-.7.07-1.042.045-.563.095-1.122.145-1.681.03-.344.06-.688.09-1.027.06-.573.125-1.147.19-1.72.035-.329.07-.653.11-.982.075-.618.16-1.232.244-1.85.04-.279.07-.559.115-.838q.195-1.339.419-2.678.239-1.4.509-2.778l.07-.364c.175-.868.354-1.73.549-2.588l.1-.459c.11-.464.224-.918.334-1.376.15-.633.3-1.267.469-1.89.11-.414.224-.828.334-1.242.165-.6.334-1.192.509-1.785.12-.409.239-.813.364-1.217.189-.618.384-1.227.583-1.835.125-.384.254-.773.384-1.152.214-.633.439-1.257.663-1.88.125-.339.244-.683.374-1.022.279-.748.573-1.486.873-2.214.08-.2.155-.4.239-.6.379-.923.778-1.835,1.182-2.733.11-.249.229-.489.344-.733.3-.648.6-1.287.913-1.92.155-.324.319-.638.479-.957.279-.549.559-1.092.848-1.631.18-.334.359-.663.539-.992.284-.514.573-1.027.863-1.531l.568-.972c.3-.5.613-1.007.928-1.506.219-.354.434-.708.658-1.052l.234-.359c.409-.623.823-1.242,1.242-1.845l.194-.274c.434-.623.878-1.242,1.326-1.845l.03-.04c.454-.6.908-1.192,1.371-1.775l.229-.289c.444-.554.9-1.1,1.356-1.641l.264-.309q.7-.815,1.411-1.6l.175-.194c.474-.514.952-1.022,1.436-1.521l.135-.135q.741-.763,1.506-1.5l.269-.259c.5-.474,1-.938,1.506-1.391l.279-.249c.524-.464,1.047-.923,1.581-1.366l.14-.11c.534-.444,1.072-.878,1.611-1.3l.15-.12c.544-.419,1.087-.823,1.636-1.222l.284-.2c.539-.384,1.077-.763,1.621-1.127l.3-.2c.559-.369,1.117-.728,1.681-1.077l.2-.12q.853-.524,1.72-1.017l.115-.07c.583-.334,1.177-.653,1.77-.962l.289-.155c.573-.294,1.152-.583,1.735-.863l.319-.155c.588-.274,1.182-.544,1.78-.8l.249-.1c.628-.269,1.262-.529,1.895-.778l-34.578,13.4c-.623.239-1.242.494-1.86.758l-.249.1c-.588.254-1.172.519-1.75.788l-.314.15c-.12.06-.244.115-.364.175-.449.214-.9.444-1.346.673l-.284.145c-.583.309-1.162.618-1.74.943l-.115.065c-.309.175-.613.349-.918.529-.259.15-.514.309-.773.464l-.194.115c-.559.344-1.107.693-1.656,1.052l-.294.19c-.449.3-.9.6-1.341.913l-.259.185-.279.2c-.539.384-1.077.778-1.606,1.182l-.045.035-.1.08c-.534.409-1.067.828-1.591,1.257l-.135.11-.07.055c-.5.414-1,.833-1.486,1.262l-.279.244c-.5.439-.992.888-1.481,1.341l-.269.254c-.5.474-1,.952-1.486,1.441l-.125.13c-.479.484-.953.972-1.416,1.471l-.18.185c-.339.369-.678.738-1.017,1.117-.075.085-.15.175-.224.264-.384.434-.763.873-1.137,1.321-.185.219-.374.434-.554.653-.514.628-1.022,1.262-1.516,1.91l-.115.14-.01.015c-.534.693-1.052,1.4-1.566,2.124-.165.229-.319.464-.479.693-.354.5-.7,1.007-1.042,1.521-.06.09-.12.175-.18.264-.13.194-.249.4-.374.6-.309.479-.613.957-.913,1.446-.189.309-.379.618-.564.933-.289.484-.573.977-.853,1.471-.18.314-.359.633-.539.952-.284.514-.559,1.037-.838,1.566-.16.3-.319.608-.474.913-.309.608-.608,1.227-.908,1.845-.095.2-.194.394-.289.593l-.05.11c-.389.833-.773,1.681-1.142,2.538l-.03.08c-.085.189-.16.389-.244.578-.294.7-.583,1.406-.863,2.119-.125.324-.249.658-.369.982-.229.6-.449,1.192-.663,1.8-.13.364-.254.733-.384,1.1-.2.578-.394,1.167-.583,1.755-.06.194-.13.384-.189.583s-.115.389-.175.583c-.17.564-.339,1.132-.5,1.705-.07.244-.15.484-.214.733-.045.15-.08.3-.12.454-.165.6-.319,1.2-.474,1.81-.07.274-.15.549-.219.828-.025.1-.045.214-.07.319-.16.668-.314,1.346-.464,2.02-.06.279-.13.549-.184.828l-.05.234-.07.344c-.18.878-.354,1.76-.514,2.653-.155.853-.294,1.705-.429,2.558-.04.269-.075.539-.115.808-.09.588-.175,1.172-.254,1.76-.04.314-.075.628-.11.938-.07.549-.135,1.092-.194,1.641-.035.329-.065.658-.1.987-.05.534-.1,1.062-.15,1.6l-.02.219c-.02.259-.035.524-.055.783-.04.529-.08,1.057-.11,1.586-.02.339-.035.678-.055,1.017-.025.524-.055,1.047-.075,1.571l-.03,1.032c-.015.519-.03,1.042-.035,1.561-.005.344-.01.693-.01,1.037,0,.519,0,1.032,0,1.551,0,.15,0,.294,0,.439,0,.2.01.409.01.608.01.514.02,1.027.035,1.541.01.354.025.708.035,1.062.02.5.045,1.012.07,1.516l.06,1.077c.03.5.065,1,.1,1.5.03.364.055.728.085,1.092.04.494.085.982.135,1.476l.06.688c.015.14.035.274.045.414.055.484.11.972.165,1.456.045.369.085.743.135,1.117q.09.718.194,1.436c.05.374.1.748.155,1.117.07.484.15.962.224,1.441.06.369.12.733.18,1.1l.04.254c.07.4.15.813.224,1.217.055.294.1.588.16.883l.04.209.1.544c.115.564.229,1.122.344,1.686.05.229.1.454.15.683.13.6.264,1.2.4,1.805l.09.389c.17.713.344,1.421.529,2.129.055.214.11.424.165.638.135.519.274,1.042.419,1.561.065.229.13.459.194.693.18.638.364,1.272.554,1.9l.075.259c.2.678.419,1.356.633,2.03.075.234.155.464.229.7.16.494.324.982.494,1.471.075.224.155.454.234.683.234.673.474,1.346.718,2.015l.145.384c.209.559.424,1.117.638,1.671.09.234.185.469.274.7.194.489.389.972.588,1.451.085.2.165.414.254.613.274.658.554,1.312.838,1.965.07.155.14.314.209.469l.479,1.077c.075.16.15.314.219.474.1.209.2.424.3.633.239.519.484,1.032.733,1.546.075.145.145.294.214.439.319.648.643,1.3.972,1.935.08.155.16.3.234.454.264.509.534,1.017.8,1.516l.16.3.14.249c.3.559.613,1.117.928,1.671l.125.229c.359.623.718,1.242,1.087,1.86l.294.494c.279.464.564.928.848,1.386l.339.539q.531.853,1.077,1.691l.075.115q.576.875,1.167,1.735c.13.189.259.374.384.563.289.409.573.818.863,1.227.135.185.264.369.4.559.4.549.8,1.1,1.212,1.646l.234.309c.344.454.688.9,1.037,1.351.15.19.3.384.459.574.125.16.249.324.379.484.175.219.354.434.534.653.14.17.274.339.414.509.429.519.858,1.032,1.3,1.541.11.125.219.249.329.379.349.4.7.8,1.052,1.192l.459.509c.354.389.713.778,1.072,1.162.115.12.224.239.339.359.464.494.938.982,1.411,1.461l.354.359c.379.374.758.753,1.137,1.122l.429.414c.444.424.888.843,1.336,1.257l.16.15c.5.464,1.012.918,1.521,1.366l.14.125.264.224c.389.339.778.673,1.172,1,.145.12.294.244.439.369.5.419,1.007.828,1.521,1.232l.04.035c.514.409,1.037.813,1.566,1.207.16.125.324.244.489.369.384.284.768.568,1.157.848.165.12.334.239.5.359l.234.17c.444.314.9.628,1.346.933l.244.16c.464.309.928.618,1.4.918.18.115.364.234.549.349.4.249.8.5,1.2.738.165.1.334.2.5.3.544.329,1.087.648,1.641.957.13.075.264.15.4.224q.658.367,1.316.718c.189.1.379.2.569.3.434.224.873.449,1.307.668.145.07.289.145.439.219.564.279,1.137.549,1.71.813.155.075.309.14.464.214.444.2.888.394,1.331.588.19.08.374.16.559.239.5.209,1,.414,1.506.613l.289.12c.593.229,1.187.454,1.785.668l.5.18c.459.16.918.319,1.376.474l.534.175c.613.194,1.227.389,1.84.569q3.329.972,6.613,1.591a64.48,64.48,0,0,0,6.5.893,61.913,61.913,0,0,0,6.353.224q2.356-.045,4.658-.259c.514-.05,1.027-.1,1.536-.165l36.818-4.413A59.612,59.612,0,0,1,158.5,214.484Z" transform="translate(-34.557 -14.485)" fill="#2f3337" stroke="#9f7e40" stroke-width="1"/>
        </g>
        <g id="Group_5736" data-name="Group 5736" transform="translate(158.43 95.697)">
          <g transform="matrix(1, 0, 0, 1, -163.77, -101.54)" filter="url(#Path_5850)">
            <path id="Path_5850-2" data-name="Path 5850" d="M193.658,131.982l0-.284c.01-.334.015-.673.025-1.007.005-.374.015-.748.02-1.127,0-.339,0-.678,0-1.017V128.1c0-.229,0-.454-.01-.678,0-.334,0-.663-.01-1-.01-.4-.02-.808-.035-1.212-.01-.3-.015-.593-.025-.888l0-.075c-.025-.648-.06-1.292-.095-1.94-.015-.239-.035-.474-.05-.718-.025-.384-.05-.768-.08-1.157l-.02-.224-.075-.853c-.035-.419-.075-.833-.115-1.252-.03-.284-.06-.574-.095-.858l-.06-.583c-.02-.155-.045-.314-.06-.469-.065-.539-.135-1.072-.209-1.606-.04-.294-.08-.593-.125-.888-.08-.569-.17-1.137-.264-1.705-.03-.19-.06-.384-.09-.578l-.03-.155-.03-.189c-.13-.738-.264-1.471-.409-2.2l-.065-.3c-.14-.693-.284-1.381-.439-2.07l-.045-.214c-.04-.18-.085-.354-.13-.534q-.187-.815-.389-1.616c-.065-.274-.135-.539-.2-.808-.14-.529-.284-1.057-.429-1.581-.045-.155-.085-.314-.125-.469l-.085-.284c-.17-.588-.349-1.167-.529-1.75-.055-.175-.1-.354-.16-.529q-.382-1.2-.793-2.389c-.2-.564-.4-1.127-.6-1.681-.095-.259-.195-.514-.294-.773s-.2-.544-.309-.813l-.1-.244c-.11-.274-.219-.544-.329-.813-.135-.334-.274-.668-.414-1-.115-.269-.229-.539-.344-.8-.06-.135-.115-.274-.174-.409-.09-.2-.185-.4-.274-.608-.115-.249-.224-.5-.339-.748-.175-.379-.354-.753-.534-1.132-.1-.2-.195-.4-.294-.608l-.04-.085c-.259-.534-.529-1.067-.8-1.6-.075-.145-.155-.284-.229-.424-.185-.359-.369-.713-.564-1.067l-.1-.18c-.19-.339-.379-.678-.574-1.017-.12-.214-.239-.439-.364-.653l-.095-.155c-.189-.329-.389-.658-.588-.982-.135-.224-.264-.454-.4-.678l-.085-.125-.08-.14c-.189-.3-.389-.608-.583-.913-.125-.2-.249-.4-.379-.593L179.49,78c-.264-.4-.529-.788-.8-1.182-.1-.155-.209-.314-.314-.469l-.03-.04c-.075-.11-.155-.219-.234-.334-.234-.329-.464-.663-.7-.987l-.125-.17c-.135-.189-.274-.369-.409-.554-.155-.2-.3-.409-.454-.608-.075-.1-.16-.2-.234-.3-.155-.2-.309-.4-.464-.6-.1-.135-.209-.274-.314-.4-.12-.15-.244-.3-.364-.444-.16-.2-.319-.394-.479-.593l-.2-.244c-.219-.264-.449-.529-.673-.793L173.456,70l-.015-.02c-.314-.359-.628-.718-.948-1.072l-.15-.165c-.13-.145-.264-.289-.4-.429s-.274-.3-.414-.454-.269-.284-.4-.424-.274-.284-.414-.429l-.17-.175c-.3-.314-.608-.618-.913-.923l-.055-.055-.284-.274c-.2-.189-.394-.384-.593-.573-.13-.12-.259-.239-.384-.359l-.369-.344-.195-.18c-.319-.289-.638-.578-.962-.863l-.065-.06-.244-.209c-.2-.175-.4-.354-.608-.529-.165-.14-.334-.279-.5-.419l-.294-.244-.14-.115c-.309-.254-.623-.509-.942-.758l-.2-.16-.3-.234c-.15-.12-.3-.234-.449-.349-.294-.224-.593-.449-.893-.668l-.035-.025q-.456-.337-.913-.658c-.165-.12-.334-.234-.5-.349l-.249-.175-.189-.13c-.314-.214-.633-.429-.952-.638l-.09-.06-.095-.065-.095-.06-.095-.06Q144.8,48.129,130.659,38.953q.808.531,1.6,1.077l.264.185c.5.349,1,.708,1.5,1.072h.005l.03.025c.474.354.942.713,1.411,1.077l.324.254c.454.359.908.728,1.351,1.1l.319.264c.389.329.778.663,1.162,1l.259.229c.434.389.863.778,1.287,1.177.13.125.264.249.394.374.349.334.688.663,1.027,1,.1.095.2.194.3.294.4.4.8.818,1.2,1.232.15.16.294.319.444.479.289.3.569.613.853.928l.429.474c.389.444.783.893,1.167,1.346l.269.329c.3.364.6.728.9,1.1.17.214.339.429.509.648.239.3.474.6.708.908.165.219.329.434.494.653.239.329.479.653.718.987.145.2.294.4.434.6.294.414.588.838.873,1.262.085.12.165.239.249.359.115.175.229.354.344.529.289.434.573.868.853,1.312.155.239.3.484.449.728.234.384.474.763.7,1.152.175.289.344.583.514.878.2.354.414.713.613,1.072.165.294.324.588.484.888.2.369.4.738.6,1.107.234.454.469.908.7,1.361.08.16.16.314.239.474.3.608.6,1.217.888,1.835.1.229.209.464.314.693.185.4.369.8.549,1.212.12.279.244.559.364.843.155.359.309.728.459,1.092.125.3.249.6.369.9.145.359.284.723.429,1.087.115.3.234.6.344.9.145.384.284.768.424,1.152.1.289.209.573.309.858.214.613.424,1.232.628,1.85l.03.095c.279.843.539,1.691.793,2.543.06.185.11.374.165.559.189.648.374,1.3.549,1.955.075.269.145.544.214.813.155.588.3,1.172.449,1.765.07.289.14.583.209.878.14.6.274,1.2.4,1.8.055.274.12.544.174.823q.239,1.137.449,2.289l.065.334q.239,1.317.444,2.648c.045.269.08.544.125.818.09.628.18,1.257.264,1.885.045.329.085.658.125.982.07.593.14,1.192.2,1.785l.12,1.167.09.957c.04.459.075.923.11,1.381.025.319.05.638.07.957.035.5.06,1.012.09,1.516.015.274.035.549.045.823.035.738.065,1.481.085,2.224.01.344.015.683.02,1.027.01.439.015.873.02,1.312,0,.379,0,.753,0,1.132,0,.4,0,.813-.01,1.222-.005.389-.01.773-.015,1.162s-.02.813-.035,1.222c-.01.379-.025.763-.04,1.152-.01.319-.03.643-.045.967-.025.559-.055,1.122-.09,1.681-.02.329-.045.663-.07.992-.035.539-.075,1.082-.12,1.626-.03.349-.065.7-.095,1.052-.05.524-.1,1.042-.155,1.566-.04.369-.08.743-.12,1.117-.06.5-.12,1-.18,1.5-.06.459-.12.913-.185,1.371-.04.309-.085.623-.13.938-.08.569-.17,1.132-.259,1.7-.04.234-.075.469-.11.7-.135.8-.274,1.6-.424,2.4-.025.16-.06.314-.09.474-.125.658-.249,1.312-.384,1.97-.045.219-.095.439-.14.658-.125.578-.249,1.152-.379,1.73-.055.239-.1.479-.165.718-.17.748-.349,1.5-.534,2.239l-.01.04-.085.329c-.17.658-.344,1.317-.519,1.975-.07.249-.135.494-.2.743q-.239.86-.494,1.72c-.055.194-.11.389-.165.578-.209.7-.424,1.4-.643,2.089-.09.274-.18.549-.264.823-.18.553-.364,1.1-.549,1.651-.06.18-.12.359-.18.534l-.06.17c-.214.623-.439,1.252-.663,1.875-.1.264-.194.524-.289.788-.249.663-.5,1.327-.758,1.99-.075.2-.16.4-.239.6-.219.554-.439,1.107-.668,1.656-.085.209-.17.419-.259.628-.274.663-.559,1.326-.848,1.985-.1.219-.194.439-.294.658-.3.673-.6,1.341-.913,2l-.224.479c-.3.633-.6,1.262-.913,1.89l-.17.349c-.349.7-.7,1.4-1.067,2.1l-.234.444q-.546,1.04-1.112,2.075l-.219.394q-.606,1.1-1.232,2.184c-.279.479-.559.957-.843,1.431-.095.16-.189.314-.284.474-.189.314-.379.623-.573.938-.115.185-.229.369-.344.559-.175.279-.349.559-.529.833l-.369.583c-.17.264-.339.519-.5.778-.14.214-.284.429-.424.638-.165.249-.329.494-.494.738-.14.214-.284.424-.429.638l-.5.723c-.145.209-.289.419-.439.623-.17.244-.339.484-.514.728-.145.2-.284.4-.429.6-.175.239-.344.474-.519.708-.15.2-.3.409-.454.613-.184.249-.374.494-.559.738-.14.184-.279.374-.419.554-.324.424-.648.838-.972,1.252-.12.15-.239.294-.359.444-.214.269-.434.544-.648.808-.189.234-.379.459-.568.688-.16.194-.319.389-.479.578-.184.219-.369.434-.554.648l-.509.6c-.175.2-.354.4-.534.608l-.539.613c-.175.194-.349.389-.524.578s-.369.414-.559.613c-.239.264-.479.524-.723.778-.135.15-.274.294-.409.444-.329.344-.658.688-.987,1.027l-.155.155c-.379.394-.768.783-1.152,1.167l-.324.314c-.279.274-.559.549-.843.823l-.329.314c-.309.289-.613.579-.923.868-.145.135-.289.269-.439.4-.274.254-.549.5-.828.753l-.464.414c-.279.244-.554.489-.833.728-.15.13-.3.264-.449.394-.3.259-.608.514-.913.768-.12.1-.244.2-.364.3-.479.4-.957.788-1.441,1.177l-.3.234c-.389.3-.778.608-1.172.908l-.419.319q-.613.464-1.227.913l-.249.184c-.484.354-.977.7-1.466,1.047l-.294.2c-.6.419-1.207.828-1.81,1.227l-.115.075c-.623.409-1.247.8-1.875,1.192l-.329.2c-.608.374-1.217.738-1.83,1.092l-.339.195q-.935.546-1.885,1.062l-.145.075c-.638.344-1.277.678-1.915,1.007l-.209.1c-.638.324-1.282.633-1.93.938l-.334.16c-.633.3-1.272.583-1.91.863l-.319.14q-.98.426-1.975.823l-.13.055q-.965.382-1.93.733l-.239.095q-.965.344-1.93.673l-.364.12c-.638.209-1.277.409-1.915.6l-.309.09c-.663.194-1.326.384-1.995.563l-.09.025c-.653.17-1.3.334-1.955.484l-.249.06q-.965.224-1.93.419l-.344.07c-.638.13-1.277.244-1.91.354l-.309.05c-.663.11-1.321.214-1.985.3l-.09.01c-.643.09-1.287.165-1.93.234l-.259.025c-.633.065-1.267.12-1.9.17l-.354.025c-.628.045-1.252.08-1.88.1l-.3.01c-.653.025-1.312.04-1.965.045l33.711-.239c.738,0,1.476-.03,2.209-.055.244-.01.484-.03.723-.04q.748-.037,1.5-.09l.858-.075c.459-.04.913-.08,1.371-.13l.9-.1c.209-.025.424-.045.633-.07l.713-.1c.3-.045.6-.085.9-.13.459-.075.923-.15,1.381-.234.284-.05.568-.095.853-.15.514-.095,1.027-.2,1.541-.309.229-.05.459-.095.683-.145.733-.16,1.461-.329,2.189-.519l.03,0c.115-.03.224-.065.339-.095.628-.16,1.257-.329,1.885-.514l.155-.045c.2-.055.394-.12.593-.179q.748-.224,1.5-.464c.289-.095.573-.194.863-.289q.688-.232,1.376-.479l.9-.329.613-.224c.244-.095.489-.2.733-.294.3-.12.6-.234.9-.359.459-.189.923-.384,1.381-.583.279-.125.559-.239.833-.364.529-.234,1.052-.479,1.576-.728.2-.1.414-.189.618-.289.708-.344,1.416-.7,2.114-1.062l.06-.03c.15-.08.294-.165.444-.244.494-.259.987-.519,1.476-.793l.229-.135c.254-.14.5-.289.758-.434.324-.185.648-.369.972-.559.14-.085.269-.17.409-.249l.329-.194c.165-.1.324-.209.489-.309.239-.15.484-.289.723-.444.2-.13.409-.264.613-.4.274-.175.549-.354.823-.534.165-.11.334-.214.494-.324.4-.264.793-.539,1.187-.813l.254-.175.075-.055c.5-.349,1.007-.713,1.506-1.077l.364-.274c.17-.125.339-.254.509-.379.2-.155.414-.309.618-.469.344-.264.688-.534,1.027-.808.115-.085.224-.17.334-.259l.115-.09c.424-.344.848-.688,1.267-1.037.165-.135.324-.274.489-.409l.379-.324.389-.329q.621-.539,1.242-1.092l.2-.185.3-.279c.244-.219.484-.434.728-.658.369-.344.738-.693,1.1-1.047l.035-.03.08-.075c.329-.319.658-.638.982-.962.309-.309.618-.618.923-.933l.075-.075.03-.03.06-.06c.359-.369.718-.738,1.072-1.117.259-.269.514-.549.768-.823l.13-.145.09-.095c.329-.354.653-.718.977-1.077.259-.3.524-.6.783-.9l.115-.135.065-.075q.479-.554.957-1.122c.279-.334.559-.673.833-1.012l.045-.05.01-.015c.294-.364.588-.728.878-1.1s.583-.743.873-1.117l.06-.085.115-.145c.229-.3.454-.6.683-.9.274-.374.554-.748.828-1.127l.16-.224.175-.244.479-.673c.274-.384.539-.768.808-1.162l.279-.409.19-.284c.1-.16.214-.319.324-.484.249-.379.5-.758.748-1.142.15-.234.3-.469.449-.708l.14-.214.15-.234c.244-.389.489-.783.728-1.177s.479-.788.713-1.187l.02-.035.02-.03.015-.03.02-.03c.239-.409.479-.823.713-1.232.115-.2.224-.394.334-.593l.2-.349.165-.294c.234-.414.459-.828.683-1.247l.165-.309.209-.394c.095-.185.194-.364.289-.549.224-.424.439-.853.658-1.277l.025-.06.15-.294c.155-.309.309-.623.464-.933l.374-.778.194-.409.05-.1c.2-.434.4-.863.6-1.3l.18-.4.254-.568.165-.359c.194-.444.389-.888.578-1.336l.035-.095.224-.529.3-.718c.11-.269.214-.539.324-.808.065-.165.135-.334.2-.5l.015-.035c.185-.469.369-.947.549-1.421l.125-.339.254-.678.15-.409c.16-.444.314-.888.469-1.331l.185-.544c.115-.329.229-.658.339-.987.055-.18.11-.354.17-.529.075-.239.155-.479.229-.713l.095-.3c.165-.514.324-1.032.474-1.546l.01-.035c.05-.16.095-.324.145-.489.1-.344.2-.683.3-1.027.05-.18.095-.359.145-.539.06-.219.12-.434.18-.653l.1-.364c.13-.474.249-.947.369-1.421l.075-.294c.14-.559.274-1.122.4-1.686l.075-.334c.05-.214.1-.424.145-.638l.165-.733c.06-.274.115-.549.17-.818.04-.2.08-.394.12-.588l.065-.3c.095-.484.185-.967.274-1.456l.07-.369.01-.055.015-.07c.115-.648.229-1.3.334-1.95l.02-.135c.03-.209.06-.419.095-.628.06-.4.125-.793.18-1.192l.045-.329c.04-.279.075-.559.11-.838.035-.259.075-.524.1-.783.02-.15.035-.3.05-.449.055-.444.1-.893.155-1.336.02-.2.045-.414.07-.618l.035-.394c.045-.464.085-.928.125-1.386.015-.209.04-.414.055-.623l.02-.339c.04-.479.07-.957.1-1.436.01-.2.03-.414.04-.618l.015-.294c.025-.494.045-.982.065-1.476C193.638,132.4,193.648,132.186,193.658,131.982Z" transform="translate(160.14 72.95)" fill="#2f3337" stroke="#9f7e40" stroke-width="1"/>
          </g>
          <g id="Group_5734" data-name="Group 5734">
            <g transform="matrix(1, 0, 0, 1, -163.77, -101.54)" filter="url(#Path_5851)">
              <path id="Path_5851-2" data-name="Path 5851" d="M181.245,43.451a69.759,69.759,0,0,1,26.046,22.63,92.891,92.891,0,0,1,14.771,35.272,118.67,118.67,0,0,1,.564,42.677,126.9,126.9,0,0,1-15.389,42.961,109.671,109.671,0,0,1-28,32.369,82.9,82.9,0,0,1-32.783,15.519A64.191,64.191,0,0,1,87.214,218.1,80.706,80.706,0,0,1,69.057,191.38a103.932,103.932,0,0,1-7.74-31.786,122.624,122.624,0,0,1,1.845-33.766,127.484,127.484,0,0,1,11.47-33.446A116.587,116.587,0,0,1,94.655,64.027a95.281,95.281,0,0,1,25.817-19.144,74.3,74.3,0,0,1,29.716-7.944A63.287,63.287,0,0,1,181.245,43.451Zm-50.4,127.193a15.241,15.241,0,0,0,6.812,3.092,15.786,15.786,0,0,0,7.37-.474,19.856,19.856,0,0,0,7.041-3.895,25.327,25.327,0,0,0,5.75-7.1,28.944,28.944,0,0,0,3.132-8.707,28.3,28.3,0,0,0,.274-8.822,23.792,23.792,0,0,0-2.419-7.909,18.318,18.318,0,0,0-4.882-6.024c.529-.479,1.047-.982,1.551-1.521s.987-1.1,1.456-1.7.923-1.222,1.351-1.875.843-1.331,1.227-2.04a29.327,29.327,0,0,0,3.147-8.951,26.6,26.6,0,0,0,.11-8.857,21.121,21.121,0,0,0-2.738-7.66,16.085,16.085,0,0,0-5.341-5.431,14.494,14.494,0,0,0-6.947-2.1,16.888,16.888,0,0,0-7.166,1.351A21.835,21.835,0,0,0,134,96.376a27.063,27.063,0,0,0-5.256,6.987c-.364.683-.7,1.381-1,2.079s-.578,1.411-.823,2.119-.464,1.426-.648,2.144-.349,1.436-.479,2.154a12.953,12.953,0,0,0-6.233-1.755,15.093,15.093,0,0,0-6.388,1.331,19.871,19.871,0,0,0-5.879,4.044,25.849,25.849,0,0,0-4.747,6.463,29.188,29.188,0,0,0-2.823,8.153,27.645,27.645,0,0,0-.319,8.178,22.321,22.321,0,0,0,2.1,7.356,16.3,16.3,0,0,0,4.478,5.645,13.829,13.829,0,0,0,3.022,1.81,13.015,13.015,0,0,0,3.256.923,13.567,13.567,0,0,0,3.4.055,15.311,15.311,0,0,0,3.431-.788c-.888,1.446-1.88,2.952-2.927,4.383a36.545,36.545,0,0,1-3.271,3.945,15.161,15.161,0,0,1-3.386,2.723,5.1,5.1,0,0,1-3.261.728l13.439,10.951a9.114,9.114,0,0,1-.793-4.139,22.214,22.214,0,0,1,.713-5.017,45.794,45.794,0,0,1,1.7-5.336c.678-1.77,1.426-3.5,2.174-5.087a25.242,25.242,0,0,0,.848,4.154,22.207,22.207,0,0,0,1.516,3.84,19.526,19.526,0,0,0,2.174,3.4,17.493,17.493,0,0,0,2.842,2.823" transform="translate(102.89 64.67)" fill="#2f3337" stroke="#9f7e40" stroke-width="1"/>
            </g>
          </g>
        </g>
      </g>
    </g>
    <g id="Mask_Group_83" data-name="Mask Group 83" transform="translate(831 -917)" opacity="0.5" clip-path="url(#clip-path-3)">
      <g id="Group_5737" data-name="Group 5737" transform="translate(193.339 1007.844)">
        <g id="Group_5723-2" data-name="Group 5723" transform="translate(0 189.748)">
          <path id="Path_5824" data-name="Path 5824" d="M100.309,88.1A132.135,132.135,0,0,1,82.332,77.394a121.369,121.369,0,0,1-11.45-9.171c-2.668-2.434-4.169-4.069-4.443-4.363L42.188,92.993c.259.284,1.691,1.85,4.244,4.174A111.892,111.892,0,0,0,57.4,105.9a123.452,123.452,0,0,0,17.279,10.123,118.849,118.849,0,0,0,22.984,8.293l26.465-27.3A125.944,125.944,0,0,1,100.309,88.1Z" transform="translate(23.021 -23.344)" fill="#9f7e40"/>
          <path id="Path_5825" data-name="Path 5825" d="M78.857,108.683a81.907,81.907,0,0,1,.673-18.032,71.043,71.043,0,0,1,6.134-20.142L59.2,97.812A71.325,71.325,0,0,0,52.906,117.5a80.641,80.641,0,0,0-.952,17.534,81.789,81.789,0,0,0,1.691,12.8,55.418,55.418,0,0,0,1.446,5.52l27.323-25.742a56.618,56.618,0,0,1-1.591-5.715A85.644,85.644,0,0,1,78.857,108.683Z" transform="translate(61.483 3.164)" fill="#9f7e40"/>
          <g id="Group_5722-2" data-name="Group 5722">
            <g id="Group_5720-2" data-name="Group 5720" transform="translate(22.429)">
              <g transform="matrix(1, 0, 0, 1, -27.77, -194.59)" filter="url(#Path_5826-2)">
                <path id="Path_5826-4" data-name="Path 5826" d="M77.955,58.641a80.439,80.439,0,0,1,32.6-2.164,108.837,108.837,0,0,1,32.8,9.919,129.983,129.983,0,0,1,29.981,19.932A131.757,131.757,0,0,1,197.6,114.877a112.307,112.307,0,0,1,14.187,32.933,84.669,84.669,0,0,1,1.875,31.906A63.669,63.669,0,0,1,203.044,207.4a58.242,58.242,0,0,1-23.583,19.548,73.187,73.187,0,0,1-33.347,6.358,103,103,0,0,1-36.5-8.4,128.588,128.588,0,0,1-34.509-21.787,130.758,130.758,0,0,1-27.073-32.9A107.171,107.171,0,0,1,34.61,133.089a77.325,77.325,0,0,1,1.84-33.407A59.761,59.761,0,0,1,51.575,73.856,60.861,60.861,0,0,1,77.955,58.641Zm77.121,127.867a56.616,56.616,0,0,1-1.591-5.715,85.646,85.646,0,0,1-1.965-13.21,81.906,81.906,0,0,1,.673-18.032,71.043,71.043,0,0,1,6.134-20.142,125.944,125.944,0,0,1-23.817-8.916,132.134,132.134,0,0,1-17.977-10.707,121.369,121.369,0,0,1-11.45-9.171c-2.668-2.434-4.169-4.069-4.443-4.363a51.249,51.249,0,0,1,1.416,5.361,77.472,77.472,0,0,1,.309,30.29,74.6,74.6,0,0,1-7.351,20.935,129.991,129.991,0,0,1,43.779,19.847,118.325,118.325,0,0,1,11.714,9.335c2.738,2.493,4.284,4.184,4.568,4.488" transform="translate(-5.84 138.86)" fill="#23262a" stroke="#000" stroke-width="1"/>
              </g>
            </g>
            <path id="Path_5827-3" data-name="Path 5827" d="M207.75,200.948q-1.578,1.152-3.246,2.2t-3.451,2.03c-1.187.643-2.4,1.257-3.66,1.835a73.187,73.187,0,0,1-33.347,6.358,103,103,0,0,1-36.5-8.4A128.588,128.588,0,0,1,93.039,183.19a130.758,130.758,0,0,1-27.073-32.9,112.953,112.953,0,0,1-10.816-25.238,90.83,90.83,0,0,1-3.605-24.186,72.9,72.9,0,0,1,3.047-21.817,61.049,61.049,0,0,1,9.071-18.312l-22.3,30.489a61.721,61.721,0,0,0-9.016,17.967,72,72,0,0,0-3.236,21.239,87.287,87.287,0,0,0,3.162,23.4,105.821,105.821,0,0,0,10.1,24.286A121.056,121.056,0,0,0,68.045,209.56a119.608,119.608,0,0,0,33.008,20.59,97.814,97.814,0,0,0,35.182,7.625,72.28,72.28,0,0,0,32.424-6.6q1.84-.868,3.585-1.83c1.157-.638,2.284-1.312,3.381-2.01s2.159-1.426,3.192-2.184,2.025-1.531,2.992-2.339l28.978-24.236C209.8,199.4,208.793,200.185,207.75,200.948Z" transform="translate(-29.112 -35.807)" fill="#23262a" stroke="#000" stroke-width="1"/>
          </g>
        </g>
        <g id="Group_5726-2" data-name="Group 5726" transform="translate(95.734 130.58)">
          <path id="Path_5829-2" data-name="Path 5829" d="M84.376,43.87,48.5,51.5l-.047.01-.047.009-.048.008-.047.008,35.874-7.634.048-.008.048-.009.048-.009Z" transform="translate(-48.309 -43.87)" fill="url(#linear-gradient)"/>
          <g id="Group_5725-2" data-name="Group 5725" clip-path="url(#clip-path-2)">
            <g id="Group_5724-2" data-name="Group 5724">
              <path id="Path_5830-2" data-name="Path 5830" d="M84.376,43.87,48.5,51.5l-.047.01-.047.009-.048.008-.047.008,35.874-7.634.048-.008.048-.009.048-.009.048-.01" transform="translate(-48.309 -43.87)" fill="url(#linear-gradient)"/>
            </g>
          </g>
        </g>
        <g id="Group_5730-2" data-name="Group 5730" transform="translate(103.464 321.048)">
          <g id="Group_5728-2" data-name="Group 5728">
            <path id="Path_5835" data-name="Path 5835" d="M119.7,131.128,98.539,99.587a12.6,12.6,0,0,0-3-3.117,13.864,13.864,0,0,0-1.865-1.152A15.05,15.05,0,0,0,91.6,94.44c-.244-.08-.489-.16-.738-.229l-.224-.06c-.185-.05-.374-.1-.563-.145l-.229-.05c-.244-.055-.489-.1-.738-.15l-.045,0-.01,0c-.259-.045-.524-.08-.788-.115l-.08-.015-.155-.015-.6-.06-.249-.02c-.244-.015-.494-.03-.743-.035l-.09,0h-.02c-.274-.01-.549-.01-.823,0l-.244,0c-.209,0-.424.015-.633.025l-.155,0-.115.01c-.249.02-.5.04-.748.065l-.125.01-.03.005c-.284.03-.564.065-.848.11l-.249.04c-.219.03-.439.07-.658.11l-.279.055c-.249.05-.5.1-.748.16l-.125.03-.03,0-.04.01c-.2.045-.394.095-.593.15l-.244.07-.175.045-.17.05c-.2.055-.394.115-.593.179l-.11.035-.155.05-.329.11-.4.14-.15.06-.08.025-.175.065c-.135.05-.264.1-.4.155l-.4.165-6,2.488,22.077,31.128,5.77-2.339c.314-.125.628-.244.937-.359l.08-.025c.279-.1.563-.194.843-.284l.145-.045c.284-.09.563-.17.843-.244l.165-.045c.284-.075.569-.145.848-.209l.15-.03c.239-.05.484-.1.723-.145l.264-.045c.214-.04.429-.07.638-.1l.239-.035c.284-.04.564-.07.848-.095l.12-.01c.244-.02.484-.04.723-.05l.259-.01q.307-.015.613-.015l.234-.005c.274.005.544.01.813.02l.09,0c.239.015.479.03.718.05l.244.025c.194.02.389.04.578.07l.229.03c.259.035.519.08.773.125.379.075.748.165,1.117.259l.269.075c.364.1.723.209,1.077.334a15.244,15.244,0,0,1,2.015.893,13.4,13.4,0,0,1,1.82,1.157,12.353,12.353,0,0,1,1.6,1.421c.244.254.484.524.7.8s.439.568.638.868Z" transform="translate(32.423 -36.378)" fill="#9f7e40"/>
            <g transform="matrix(1, 0, 0, 1, -108.8, -325.89)" filter="url(#Path_5836-2)">
              <path id="Path_5836-4" data-name="Path 5836" d="M241.533,159.47c.055-.658.1-1.307.135-1.96l.01-.175c.02-.444.035-.883.05-1.321.015-.389.03-.778.04-1.162.01-.439,0-.878,0-1.316,0-.384,0-.763,0-1.147a1.126,1.126,0,0,0,0-.13c-.01-.668-.03-1.337-.06-2l-.015-.329-.015-.3c-.03-.6-.075-1.207-.12-1.81l-.03-.349c-.01-.145-.02-.289-.035-.434-.05-.554-.1-1.1-.17-1.651l-.04-.339c-.025-.189-.045-.379-.07-.573-.065-.5-.135-1-.209-1.5l-.045-.289c-.04-.244-.075-.489-.115-.728-.05-.3-.11-.6-.165-.9-.05-.254-.095-.514-.145-.768l-.05-.3c-.095-.454-.194-.9-.294-1.356-.03-.14-.055-.279-.085-.419l-.02-.075-.02-.09c-.15-.643-.3-1.282-.474-1.915l-.025-.095c-.045-.175-.1-.344-.145-.514-.115-.429-.234-.858-.359-1.277l-.095-.3c-.055-.185-.115-.369-.17-.549-.08-.249-.155-.5-.234-.753s-.17-.489-.249-.738c-.065-.18-.125-.359-.19-.539-.035-.1-.065-.2-.1-.3-.189-.524-.379-1.042-.583-1.561l-.02-.045-.08-.2c-.17-.429-.339-.858-.519-1.287-.06-.14-.125-.284-.185-.424l-.2-.464c-.075-.165-.145-.329-.219-.494q-.284-.636-.583-1.257l-.04-.085-.01-.025c-.214-.454-.439-.9-.668-1.346-.07-.14-.145-.274-.219-.414s-.155-.294-.229-.439-.165-.314-.249-.469l-.175-.324-.18-.319-.18-.319-.185-.319L214.41,88.2c.339.583.663,1.177.977,1.77.08.15.16.3.234.449.314.6.618,1.2.908,1.81l.045.095c.279.583.544,1.177.8,1.77l.2.469c.244.578.484,1.157.708,1.74l.085.209c.244.638.479,1.287.7,1.94.06.184.12.369.185.554.165.5.329,1.007.484,1.516.055.185.115.369.17.559.155.534.3,1.072.444,1.611.05.175.1.349.145.524.18.708.354,1.421.509,2.144.04.165.07.334.1.5.12.559.229,1.122.334,1.686.05.264.095.529.14.793.095.554.185,1.107.264,1.661l.045.294c.1.708.185,1.416.264,2.129l.035.344c.075.708.135,1.416.185,2.129l.025.359c.05.718.085,1.441.115,2.169l.01.334c.02.723.035,1.451.035,2.184,0,.389-.01.783-.02,1.177-.005.449-.005.9-.02,1.351-.015.394-.04.793-.06,1.187-.02.454-.04.908-.07,1.361q-.075,1.092-.18,2.184l-.025.309c-.075.748-.165,1.506-.259,2.264l-.04.319c-.1.758-.214,1.521-.339,2.284l-.05.329c-.13.763-.264,1.526-.414,2.294l-.065.334c-.15.768-.314,1.536-.489,2.309l-.08.334c-.175.773-.364,1.546-.564,2.324l-.14.524-.18.673c-.065.224-.125.454-.189.678s-.125.444-.19.668-.135.459-.2.688-.135.439-.2.663-.145.459-.214.693-.14.439-.214.658-.15.464-.229.7-.145.439-.219.658-.16.474-.244.708-.155.439-.229.658-.17.469-.259.7-.16.444-.239.663l-.269.7c-.085.224-.17.444-.254.668s-.184.464-.279.7l-.269.673c-.095.229-.189.459-.289.693s-.185.454-.284.683-.194.459-.294.683l-.3.688c-.1.229-.2.459-.309.688s-.2.459-.309.688-.214.454-.319.683-.214.459-.324.688-.224.459-.334.688-.219.459-.334.688l-.344.688c-.115.229-.229.459-.344.683s-.244.464-.364.7-.234.449-.354.678l-.214.4c-.2.389-.419.778-.633,1.172l-.3.539c-.195.349-.389.7-.588,1.042-.1.19-.214.374-.319.559-.209.359-.419.723-.633,1.082l-.289.489c-.314.519-.628,1.037-.947,1.556q-.7,1.122-1.421,2.229l-.01.02q-.711,1.085-1.446,2.164l-.035.05q-.733,1.077-1.5,2.139c-.354.5-.723.992-1.087,1.486-.155.209-.3.424-.464.633-.359.484-.733.962-1.1,1.446-.165.209-.324.424-.489.638-.369.474-.748.943-1.127,1.411-.17.214-.339.429-.514.643s-.374.444-.559.673c-.339.409-.678.818-1.022,1.222-.234.274-.469.549-.708.823-.3.349-.6.7-.908,1.047l-.753.843c-.3.334-.608.673-.913,1.007l-.763.823c-.344.369-.688.733-1.037,1.1l-.6.633q-.808.83-1.631,1.656c-.14.14-.279.274-.419.409-.434.429-.868.853-1.307,1.277-.214.2-.429.409-.643.608-.389.369-.778.733-1.167,1.1-.2.185-.4.369-.6.549-.484.439-.967.878-1.456,1.312l-.309.279q-.89.778-1.785,1.541c-.17.15-.344.289-.514.434-.454.379-.9.758-1.356,1.132-.19.155-.379.309-.569.459-.514.419-1.027.828-1.546,1.237l-.319.254q-.927.726-1.86,1.426l-.539.4c-.459.339-.918.678-1.381,1.017l-.643.464c-.5.359-1,.708-1.5,1.057-.15.1-.294.209-.444.309-.623.434-1.252.858-1.885,1.282-.209.14-.424.279-.638.424-.439.289-.883.573-1.326.858-.254.165-.509.329-.768.489-.444.284-.893.563-1.346.843l-.658.4c-.638.389-1.282.778-1.93,1.152-.214.13-.429.249-.643.374-.459.264-.918.524-1.376.783-.284.165-.573.319-.858.479-.419.229-.838.459-1.252.683-.284.155-.564.3-.848.454-.464.244-.933.489-1.4.728-.229.12-.459.239-.688.354q-1.017.516-2.05,1.017c-.249.12-.5.234-.748.354-.479.229-.957.459-1.436.678-.289.135-.578.264-.873.394-.439.2-.883.4-1.331.6-.3.13-.6.259-.9.389-.439.19-.878.379-1.321.564-.3.125-.6.249-.9.369-.414.17-.828.334-1.242.5l-1.142.449c-.394.15-.788.3-1.182.444s-.773.289-1.157.429-.778.274-1.167.414-.788.274-1.182.409-.768.254-1.152.379-.8.264-1.2.389c-.314.1-.633.2-.948.294-.643.2-1.287.389-1.93.573-.284.085-.563.165-.848.244-.753.209-1.506.414-2.259.608-.155.04-.309.085-.464.125q-1.384.352-2.758.663c-.19.045-.374.08-.559.12-.723.165-1.451.319-2.179.464-.434.09-.863.175-1.3.259l-.643.12c-.673.125-1.351.239-2.03.354l-.6.09c-.509.085-1.022.16-1.531.234-.239.035-.479.065-.723.1-.544.075-1.082.145-1.626.209-.16.02-.319.04-.484.055-.683.08-1.371.15-2.055.214-.2.02-.394.035-.588.055-.524.045-1.042.085-1.561.125l-.643.045c-.633.045-1.267.08-1.9.11l-.19.01c-.693.03-1.381.05-2.07.065l-.588.01c-.514.01-1.022.015-1.536.015-.2,0-.394,0-.593-.005-.678,0-1.351-.01-2.025-.03l-.145-.005c-.623-.02-1.247-.05-1.87-.08-.214-.01-.429-.025-.638-.035-.484-.03-.967-.065-1.446-.1l-.618-.045c-.653-.055-1.3-.115-1.945-.185l-.374-.04c-.534-.06-1.067-.125-1.6-.194l-.673-.09c-.464-.065-.923-.135-1.386-.2-.2-.03-.4-.06-.6-.095-.628-.1-1.252-.209-1.875-.329-.165-.03-.329-.065-.494-.1-.479-.09-.957-.189-1.436-.294-.219-.045-.444-.095-.663-.145-.464-.1-.928-.209-1.386-.324-.175-.04-.354-.085-.529-.13-.608-.15-1.217-.314-1.82-.479l-.514-.15c-.459-.13-.918-.269-1.376-.409-.2-.06-.4-.125-.6-.185-.5-.165-1.007-.329-1.506-.5l-.329-.11c-.6-.209-1.2-.429-1.79-.648-.165-.065-.329-.13-.5-.194-.449-.175-.9-.354-1.346-.539-.175-.07-.349-.145-.524-.214-.588-.249-1.177-.5-1.76-.768q-2.827-1.279-5.426-2.768t-4.962-3.152q-2.356-1.668-4.493-3.506c-1.421-1.222-2.768-2.5-4.039-3.83l26.37,27.607q1.885,1.967,3.979,3.785t4.413,3.476q2.319,1.653,4.852,3.132t5.3,2.773c.568.264,1.142.519,1.72.768.165.07.334.145.5.214.439.185.878.364,1.316.544.16.065.324.13.484.189.578.229,1.157.449,1.74.658l.309.11q.741.262,1.481.509c.189.06.384.125.578.185.444.145.893.284,1.341.419l.494.15q.823.239,1.646.464l.125.03c.17.045.339.09.509.13.449.12.9.229,1.351.339l.638.15c.464.1.928.209,1.4.3l.479.1c.6.12,1.207.234,1.815.344.194.035.384.065.578.1.449.075.9.15,1.346.219.214.03.429.065.648.095q.778.112,1.556.209l.349.045q.815.1,1.631.18l.254.025c.2.02.394.035.593.055.469.04.933.08,1.406.115l.608.045c.6.04,1.207.075,1.815.1l.135,0c.653.03,1.3.05,1.96.06.189,0,.379.01.573.01.494.01.987.01,1.481.01h.563c.668-.01,1.336-.02,2-.04l.17-.005q.718-.022,1.436-.06c.135-.005.269-.015.4-.02.2-.01.409-.025.613-.035.5-.03,1.007-.065,1.516-.1.185-.01.369-.025.559-.04.658-.055,1.322-.11,1.985-.18.15-.015.3-.035.454-.05.524-.055,1.052-.115,1.581-.18l.683-.09c.494-.065.992-.13,1.486-.2.189-.025.379-.05.573-.08.648-.1,1.3-.2,1.955-.314.2-.035.409-.075.608-.11.309-.055.613-.1.918-.165l.339-.065c.7-.135,1.391-.274,2.089-.424.14-.025.279-.055.424-.085l.115-.025q1.324-.284,2.648-.608l.085-.02c.125-.03.244-.065.369-.095.723-.18,1.441-.364,2.164-.559.1-.03.209-.055.319-.08.165-.045.329-.1.494-.145.618-.17,1.232-.349,1.85-.529.165-.05.334-.095.5-.145.14-.045.274-.09.414-.13.384-.12.768-.239,1.147-.359.229-.07.454-.14.678-.214.145-.045.289-.095.434-.145.374-.12.748-.249,1.122-.374.229-.08.454-.155.683-.229.145-.055.294-.11.444-.16.369-.13.738-.264,1.107-.4.224-.08.454-.16.678-.244.15-.055.3-.115.454-.169s.3-.11.449-.17c.219-.08.434-.169.648-.254s.444-.165.668-.254c.175-.065.344-.14.519-.209.289-.115.578-.229.863-.349.195-.08.389-.155.578-.234.229-.095.459-.195.688-.289.289-.125.578-.244.863-.369l.4-.17c.294-.13.588-.264.883-.394.274-.12.554-.244.828-.369l.234-.1c.384-.174.768-.359,1.152-.539.234-.11.469-.214.7-.329l.08-.035c.593-.284,1.187-.578,1.78-.873l.1-.05.643-.329c.339-.175.683-.344,1.022-.519l.329-.175.8-.429.628-.329c.194-.1.384-.214.573-.319.269-.145.544-.294.813-.449.12-.065.244-.13.364-.2.324-.18.643-.364.962-.549.2-.115.4-.229.6-.344l.09-.05c.549-.324,1.1-.648,1.646-.977l.115-.07c.2-.125.414-.249.618-.379.3-.185.6-.364.9-.549.135-.085.264-.17.4-.254.239-.155.479-.3.723-.459.165-.1.329-.209.5-.314.259-.17.519-.339.773-.514.2-.13.4-.259.6-.394l.185-.12c.519-.349,1.037-.7,1.551-1.052l.065-.045.414-.289c.354-.244.708-.494,1.062-.743l.374-.269c.2-.145.4-.294.608-.439.18-.13.359-.259.539-.394.259-.19.519-.384.778-.578.17-.13.344-.254.514-.384l.209-.155c.494-.374.992-.758,1.481-1.142l.08-.06.3-.244c.364-.284.723-.569,1.087-.863.13-.1.254-.209.384-.314l.244-.194c.1-.08.195-.165.294-.244.175-.145.354-.289.529-.434l.763-.643.489-.414.2-.175c.484-.414.962-.833,1.436-1.252l.055-.05.294-.259c.359-.324.718-.643,1.072-.967.1-.1.209-.194.314-.294.189-.17.374-.344.563-.519s.349-.324.524-.489c.2-.19.394-.379.593-.568s.4-.379.6-.574l.244-.239c.339-.324.673-.658,1.007-.992.125-.13.259-.254.389-.384l.025-.025c.469-.474.933-.948,1.391-1.426l.13-.135c.194-.2.379-.4.573-.6.224-.239.449-.474.673-.713.1-.115.2-.229.309-.339.239-.264.484-.529.723-.793.14-.155.284-.309.424-.469s.294-.329.444-.5c.234-.264.474-.534.708-.8.095-.1.19-.214.284-.319.195-.229.389-.464.583-.693.224-.259.449-.519.668-.783l.15-.175c.274-.334.549-.668.818-1.007.175-.214.354-.424.524-.638l.03-.035c.155-.19.309-.389.464-.583.354-.449.708-.9,1.057-1.351l.02-.025c.15-.195.3-.4.449-.6.349-.459.7-.918,1.037-1.381l.01-.01c.145-.2.289-.4.434-.6.843-1.167,1.666-2.339,2.468-3.536.224-.334.444-.673.668-1.012s.464-.713.693-1.072h0l.01-.015c.224-.354.449-.708.668-1.062s.444-.723.668-1.087c.3-.5.6-1,.888-1.5l.075-.13.2-.344c.2-.349.4-.693.593-1.037l.14-.244.165-.3c.185-.334.369-.668.549-1l.18-.324.1-.2c.2-.374.4-.753.593-1.127l.16-.3.045-.085c.11-.214.219-.429.324-.643s.234-.454.344-.683.214-.429.319-.648.219-.449.329-.678.209-.434.309-.653.214-.449.314-.673.2-.439.3-.658.2-.444.3-.668l.284-.658c.1-.224.2-.449.294-.673s.185-.434.274-.653.189-.449.279-.673.175-.434.264-.653l.269-.673c.085-.219.165-.434.249-.653.06-.16.125-.319.185-.479l.045-.115q.434-1.159.833-2.314l.11-.314c.19-.559.379-1.112.554-1.666.07-.209.135-.419.2-.628l.1-.329c.239-.758.459-1.521.673-2.279l.095-.324c.209-.758.4-1.516.593-2.274l.045-.17.035-.155c.185-.753.354-1.506.519-2.254l.07-.324c.155-.748.3-1.5.439-2.239l.06-.329c.135-.743.254-1.486.369-2.229l.045-.319c.11-.743.209-1.481.294-2.219l.02-.135.015-.175c.085-.738.16-1.471.219-2.209Z" transform="translate(71.87 268.3)" fill="#2f3337" stroke="#9f7e40" stroke-width="1"/>
            </g>
            <g id="Group_5727-2" data-name="Group 5727">
              <g transform="matrix(1, 0, 0, 1, -108.8, -325.89)" filter="url(#Path_5837-2)">
                <path id="Path_5837-4" data-name="Path 5837" d="M191.1,85.252a63.171,63.171,0,0,1,26.6,15.085,57.366,57.366,0,0,1,15.09,25.074,71.018,71.018,0,0,1,1.561,32.215,100,100,0,0,1-13.993,35.7A128.108,128.108,0,0,1,192.41,224.9a132.806,132.806,0,0,1-35.581,20.81,110.683,110.683,0,0,1-37.615,7.789,78.8,78.8,0,0,1-34.264-6.608,59.009,59.009,0,0,1-24.011-19.409,59.873,59.873,0,0,1-10.487-27.188,78.248,78.248,0,0,1,2.493-31.063,106.342,106.342,0,0,1,15.17-31.766,129.67,129.67,0,0,1,25.363-27.228,133.762,133.762,0,0,1,30.958-18.705A115.827,115.827,0,0,1,158,82.584,86.523,86.523,0,0,1,191.1,85.252ZM166.449,174.4a28.84,28.84,0,0,0,7.575-4.538A27.683,27.683,0,0,0,179.6,163.6a21.913,21.913,0,0,0,3.027-7.126,15.623,15.623,0,0,0-.025-7.141,13.078,13.078,0,0,0-1.237-3.167,12.181,12.181,0,0,0-1.935-2.6,13.069,13.069,0,0,0-2.523-2.025,14.82,14.82,0,0,0-3.022-1.411,17.478,17.478,0,0,0-3.416-.773,20.346,20.346,0,0,0-3.715-.1,22.941,22.941,0,0,0-3.925.593,26.282,26.282,0,0,0-4.044,1.312l-6,2.488-1.122-4.977a12.526,12.526,0,0,0-1.117-3.057,11.525,11.525,0,0,0-1.8-2.513,12.017,12.017,0,0,0-2.384-1.95,13.787,13.787,0,0,0-2.872-1.346,15.856,15.856,0,0,0-3.261-.728,19.191,19.191,0,0,0-3.566-.085,22.408,22.408,0,0,0-3.78.593,25.818,25.818,0,0,0-3.91,1.3,28.6,28.6,0,0,0-7.156,4.339,27.592,27.592,0,0,0-5.371,5.9,22.126,22.126,0,0,0-3.107,6.747,15.553,15.553,0,0,0-.314,6.857l7.271,38.393L166.449,174.4" transform="translate(58.94 243.83)" fill="#2f3337" stroke="#9f7e40" stroke-width="1"/>
              </g>
            </g>
          </g>
        </g>
        <g id="Group_5733-2" data-name="Group 5733" transform="translate(27.156)">
          <g id="Group_5731-2" data-name="Group 5731" transform="translate(34.125)">
            <path id="Path_5842-2" data-name="Path 5842" d="M138.247,24.032a89.572,89.572,0,0,1,27.4,19.837,116.5,116.5,0,0,1,19.982,28.854,131.683,131.683,0,0,1,11.41,34.464,125.973,125.973,0,0,1,1.316,37.177,103.171,103.171,0,0,1-9.689,33.825,77.16,77.16,0,0,1-19.07,24.854,61.287,61.287,0,0,1-26.52,13.285,62.344,62.344,0,0,1-31.711-1.551A82.541,82.541,0,0,1,80.44,196.865a112.449,112.449,0,0,1-23.747-30.793,131.2,131.2,0,0,1-13.375-39.047A124.064,124.064,0,0,1,43.059,85.1a96.834,96.834,0,0,1,13.22-35.73,70.721,70.721,0,0,1,22.83-22.9,59.582,59.582,0,0,1,28.47-8.717A66.642,66.642,0,0,1,138.247,24.032Zm13.434,121.015a16,16,0,0,0,2.523-3.536,21.4,21.4,0,0,0,1.715-4.309,26.824,26.824,0,0,0,.888-4.812,29.5,29.5,0,0,0,.04-5.057,37.59,37.59,0,0,0-1.421-7.55,55.613,55.613,0,0,0-2.7-7.181c-1.057-2.334-2.234-4.618-3.451-6.852s-2.463-4.428-3.66-6.578c-1.162-2.089-2.344-4.194-3.5-6.328s-2.279-4.3-3.346-6.5-2.06-4.438-2.957-6.722a68.782,68.782,0,0,1-2.329-6.992c-.055-.2-.155-.568-.279-1.032s-.274-1.022-.419-1.6-.284-1.157-.394-1.681a10.174,10.174,0,0,1-.209-1.3,6.016,6.016,0,0,1-.529.992c-.234.379-.514.788-.8,1.182s-.559.778-.8,1.087-.424.564-.529.7a34.693,34.693,0,0,1-3.969,4.413,46.311,46.311,0,0,1-4.513,3.71c-1.576,1.152-3.207,2.219-4.862,3.246s-3.341,2.025-5.017,3.017c-1.725,1.022-3.521,2.05-5.306,3.152a52.6,52.6,0,0,0-5.251,3.62A29.938,29.938,0,0,0,95.939,96.7a23.9,23.9,0,0,0-3.571,5.964,24.751,24.751,0,0,0-1.421,4.782,29.041,29.041,0,0,0-.035,10.587,27.162,27.162,0,0,0,1.481,5.226,26.359,26.359,0,0,0,2.314,4.543,21.837,21.837,0,0,0,2.862,3.605,19.192,19.192,0,0,0,3.276,2.673,17.618,17.618,0,0,0,3.556,1.765,16.9,16.9,0,0,0,4.029.923,16.642,16.642,0,0,0,7.929-1.157,17.14,17.14,0,0,0,3.6-2c-.354,1.621-.778,3.306-1.282,4.927a33.57,33.57,0,0,1-1.755,4.583,13.922,13.922,0,0,1-2.3,3.5,5.206,5.206,0,0,1-2.892,1.681l17.055,6.039a9.22,9.22,0,0,1-2.114-3.431,21.6,21.6,0,0,1-1.112-4.688c-.234-1.7-.354-5.311-.354-5.311s.055-3.61.17-5.311a32.321,32.321,0,0,0,2.668,4.274,28.391,28.391,0,0,0,3.152,3.6,23.816,23.816,0,0,0,3.5,2.8,18.343,18.343,0,0,0,3.71,1.865,13.91,13.91,0,0,0,3.486.793,11.732,11.732,0,0,0,3.446-.19,11.229,11.229,0,0,0,3.3-1.267,13.35,13.35,0,0,0,3.057-2.429" transform="translate(-41.4 -17.685)" fill="#23262a" stroke="#000" stroke-width="1"/>
          </g>
          <path id="Path_5843-2" data-name="Path 5843" d="M158.5,214.484a61.535,61.535,0,0,1-6.473-.254,64.688,64.688,0,0,1-6.627-.957q-3.351-.666-6.752-1.7c-.628-.19-1.252-.394-1.875-.6-.184-.06-.369-.125-.549-.185-.474-.165-.943-.329-1.411-.5-.17-.06-.339-.125-.514-.185-.608-.234-1.222-.469-1.825-.713l-.294-.125c-.514-.209-1.027-.429-1.541-.648-.19-.085-.379-.17-.574-.254-.454-.2-.908-.414-1.361-.623l-.479-.224c-.583-.279-1.167-.569-1.745-.863-.155-.075-.3-.155-.454-.234-.444-.229-.893-.464-1.331-.7-.2-.1-.394-.214-.588-.319-.449-.249-.9-.5-1.341-.758l-.419-.239c-.559-.329-1.117-.663-1.671-1.007-.175-.1-.349-.214-.524-.324-.4-.254-.813-.514-1.217-.778-.19-.125-.379-.244-.568-.369-.479-.319-.952-.638-1.421-.962l-.259-.175c-.544-.379-1.082-.768-1.621-1.157l-.519-.384c-.4-.294-.793-.593-1.187-.893-.165-.13-.334-.259-.5-.389-.539-.419-1.072-.843-1.606-1.277l-.045-.035q-.785-.643-1.556-1.3c-.15-.125-.3-.254-.454-.384-.4-.349-.8-.7-1.2-1.057-.14-.12-.274-.244-.414-.369q-.785-.711-1.566-1.441l-.165-.155c-.459-.439-.918-.878-1.371-1.326-.15-.145-.294-.289-.444-.439q-.591-.583-1.167-1.182c-.125-.125-.249-.249-.369-.379-.489-.5-.972-1.017-1.451-1.536l-.349-.384c-.374-.4-.738-.813-1.107-1.222-.155-.18-.314-.359-.474-.539-.359-.414-.723-.833-1.077-1.252l-.344-.4q-.673-.8-1.331-1.616c-.145-.18-.289-.359-.434-.544-.314-.394-.628-.788-.938-1.192-.16-.2-.314-.4-.474-.608-.359-.469-.713-.942-1.062-1.416l-.249-.334c-.424-.569-.838-1.147-1.247-1.73-.14-.195-.279-.394-.414-.588-.3-.429-.593-.858-.888-1.292-.135-.195-.269-.394-.4-.588-.409-.608-.808-1.217-1.207-1.83l-.08-.125c-.374-.588-.743-1.182-1.112-1.775-.12-.19-.234-.379-.349-.569-.294-.484-.588-.972-.878-1.461-.1-.175-.2-.344-.3-.519q-.568-.972-1.122-1.96l-.135-.244c-.324-.583-.643-1.167-.957-1.755l-.309-.573c-.279-.534-.559-1.067-.833-1.6-.08-.16-.165-.319-.244-.479-.339-.673-.678-1.351-1.007-2.035l-.224-.469c-.254-.539-.509-1.077-.758-1.621l-.309-.668c-.249-.544-.489-1.087-.728-1.636-.075-.165-.145-.324-.219-.489q-.441-1.025-.868-2.065c-.09-.214-.18-.434-.269-.648-.2-.509-.4-1.012-.6-1.521-.1-.249-.194-.494-.289-.743-.224-.583-.444-1.162-.658-1.75-.055-.14-.11-.279-.16-.419-.254-.7-.5-1.406-.748-2.114-.085-.239-.165-.479-.244-.718-.175-.514-.344-1.027-.514-1.541-.08-.249-.16-.494-.239-.743q-.337-1.047-.658-2.109l-.09-.309c-.194-.658-.389-1.322-.573-1.985-.07-.244-.135-.489-.2-.733-.15-.544-.294-1.087-.439-1.636-.06-.224-.12-.449-.175-.673-.189-.743-.374-1.491-.554-2.239l-.095-.4c-.145-.633-.289-1.267-.429-1.9-.05-.239-.1-.479-.15-.713-.13-.593-.249-1.187-.369-1.78-.035-.19-.075-.374-.11-.564-.075-.384-.145-.768-.214-1.157-.095-.509-.19-1.022-.279-1.536-.065-.389-.125-.778-.19-1.162-.08-.5-.165-1.007-.239-1.511-.06-.389-.115-.783-.17-1.172-.07-.5-.145-1.007-.209-1.516-.05-.389-.095-.773-.14-1.167-.065-.509-.125-1.017-.18-1.531-.04-.384-.08-.768-.12-1.157-.05-.514-.1-1.032-.145-1.551-.035-.379-.065-.758-.095-1.142-.04-.524-.075-1.047-.11-1.571-.025-.379-.05-.753-.07-1.127-.03-.534-.055-1.067-.08-1.6l-.045-1.107c-.02-.539-.035-1.077-.045-1.621-.01-.364-.015-.728-.02-1.092-.01-.544-.01-1.087-.01-1.631v-1.087c0-.549.015-1.1.03-1.641,0-.359.015-.718.025-1.072.015-.554.04-1.107.065-1.661.015-.354.03-.7.045-1.057.03-.559.07-1.117.1-1.671.025-.349.045-.7.07-1.042.045-.563.095-1.122.145-1.681.03-.344.06-.688.09-1.027.06-.573.125-1.147.19-1.72.035-.329.07-.653.11-.982.075-.618.16-1.232.244-1.85.04-.279.07-.559.115-.838q.195-1.339.419-2.678.239-1.4.509-2.778l.07-.364c.175-.868.354-1.73.549-2.588l.1-.459c.11-.464.224-.918.334-1.376.15-.633.3-1.267.469-1.89.11-.414.224-.828.334-1.242.165-.6.334-1.192.509-1.785.12-.409.239-.813.364-1.217.189-.618.384-1.227.583-1.835.125-.384.254-.773.384-1.152.214-.633.439-1.257.663-1.88.125-.339.244-.683.374-1.022.279-.748.573-1.486.873-2.214.08-.2.155-.4.239-.6.379-.923.778-1.835,1.182-2.733.11-.249.229-.489.344-.733.3-.648.6-1.287.913-1.92.155-.324.319-.638.479-.957.279-.549.559-1.092.848-1.631.18-.334.359-.663.539-.992.284-.514.573-1.027.863-1.531l.568-.972c.3-.5.613-1.007.928-1.506.219-.354.434-.708.658-1.052l.234-.359c.409-.623.823-1.242,1.242-1.845l.194-.274c.434-.623.878-1.242,1.326-1.845l.03-.04c.454-.6.908-1.192,1.371-1.775l.229-.289c.444-.554.9-1.1,1.356-1.641l.264-.309q.7-.815,1.411-1.6l.175-.194c.474-.514.952-1.022,1.436-1.521l.135-.135q.741-.763,1.506-1.5l.269-.259c.5-.474,1-.938,1.506-1.391l.279-.249c.524-.464,1.047-.923,1.581-1.366l.14-.11c.534-.444,1.072-.878,1.611-1.3l.15-.12c.544-.419,1.087-.823,1.636-1.222l.284-.2c.539-.384,1.077-.763,1.621-1.127l.3-.2c.559-.369,1.117-.728,1.681-1.077l.2-.12q.853-.524,1.72-1.017l.115-.07c.583-.334,1.177-.653,1.77-.962l.289-.155c.573-.294,1.152-.583,1.735-.863l.319-.155c.588-.274,1.182-.544,1.78-.8l.249-.1c.628-.269,1.262-.529,1.895-.778l-34.578,13.4c-.623.239-1.242.494-1.86.758l-.249.1c-.588.254-1.172.519-1.75.788l-.314.15c-.12.06-.244.115-.364.175-.449.214-.9.444-1.346.673l-.284.145c-.583.309-1.162.618-1.74.943l-.115.065c-.309.175-.613.349-.918.529-.259.15-.514.309-.773.464l-.194.115c-.559.344-1.107.693-1.656,1.052l-.294.19c-.449.3-.9.6-1.341.913l-.259.185-.279.2c-.539.384-1.077.778-1.606,1.182l-.045.035-.1.08c-.534.409-1.067.828-1.591,1.257l-.135.11-.07.055c-.5.414-1,.833-1.486,1.262l-.279.244c-.5.439-.992.888-1.481,1.341l-.269.254c-.5.474-1,.952-1.486,1.441l-.125.13c-.479.484-.953.972-1.416,1.471l-.18.185c-.339.369-.678.738-1.017,1.117-.075.085-.15.175-.224.264-.384.434-.763.873-1.137,1.321-.185.219-.374.434-.554.653-.514.628-1.022,1.262-1.516,1.91l-.115.14-.01.015c-.534.693-1.052,1.4-1.566,2.124-.165.229-.319.464-.479.693-.354.5-.7,1.007-1.042,1.521-.06.09-.12.175-.18.264-.13.194-.249.4-.374.6-.309.479-.613.957-.913,1.446-.189.309-.379.618-.564.933-.289.484-.573.977-.853,1.471-.18.314-.359.633-.539.952-.284.514-.559,1.037-.838,1.566-.16.3-.319.608-.474.913-.309.608-.608,1.227-.908,1.845-.095.2-.194.394-.289.593l-.05.11c-.389.833-.773,1.681-1.142,2.538l-.03.08c-.085.189-.16.389-.244.578-.294.7-.583,1.406-.863,2.119-.125.324-.249.658-.369.982-.229.6-.449,1.192-.663,1.8-.13.364-.254.733-.384,1.1-.2.578-.394,1.167-.583,1.755-.06.194-.13.384-.189.583s-.115.389-.175.583c-.17.564-.339,1.132-.5,1.705-.07.244-.15.484-.214.733-.045.15-.08.3-.12.454-.165.6-.319,1.2-.474,1.81-.07.274-.15.549-.219.828-.025.1-.045.214-.07.319-.16.668-.314,1.346-.464,2.02-.06.279-.13.549-.184.828l-.05.234-.07.344c-.18.878-.354,1.76-.514,2.653-.155.853-.294,1.705-.429,2.558-.04.269-.075.539-.115.808-.09.588-.175,1.172-.254,1.76-.04.314-.075.628-.11.938-.07.549-.135,1.092-.194,1.641-.035.329-.065.658-.1.987-.05.534-.1,1.062-.15,1.6l-.02.219c-.02.259-.035.524-.055.783-.04.529-.08,1.057-.11,1.586-.02.339-.035.678-.055,1.017-.025.524-.055,1.047-.075,1.571l-.03,1.032c-.015.519-.03,1.042-.035,1.561-.005.344-.01.693-.01,1.037,0,.519,0,1.032,0,1.551,0,.15,0,.294,0,.439,0,.2.01.409.01.608.01.514.02,1.027.035,1.541.01.354.025.708.035,1.062.02.5.045,1.012.07,1.516l.06,1.077c.03.5.065,1,.1,1.5.03.364.055.728.085,1.092.04.494.085.982.135,1.476l.06.688c.015.14.035.274.045.414.055.484.11.972.165,1.456.045.369.085.743.135,1.117q.09.718.194,1.436c.05.374.1.748.155,1.117.07.484.15.962.224,1.441.06.369.12.733.18,1.1l.04.254c.07.4.15.813.224,1.217.055.294.1.588.16.883l.04.209.1.544c.115.564.229,1.122.344,1.686.05.229.1.454.15.683.13.6.264,1.2.4,1.805l.09.389c.17.713.344,1.421.529,2.129.055.214.11.424.165.638.135.519.274,1.042.419,1.561.065.229.13.459.194.693.18.638.364,1.272.554,1.9l.075.259c.2.678.419,1.356.633,2.03.075.234.155.464.229.7.16.494.324.982.494,1.471.075.224.155.454.234.683.234.673.474,1.346.718,2.015l.145.384c.209.559.424,1.117.638,1.671.09.234.185.469.274.7.194.489.389.972.588,1.451.085.2.165.414.254.613.274.658.554,1.312.838,1.965.07.155.14.314.209.469l.479,1.077c.075.16.15.314.219.474.1.209.2.424.3.633.239.519.484,1.032.733,1.546.075.145.145.294.214.439.319.648.643,1.3.972,1.935.08.155.16.3.234.454.264.509.534,1.017.8,1.516l.16.3.14.249c.3.559.613,1.117.928,1.671l.125.229c.359.623.718,1.242,1.087,1.86l.294.494c.279.464.564.928.848,1.386l.339.539q.531.853,1.077,1.691l.075.115q.576.875,1.167,1.735c.13.189.259.374.384.563.289.409.573.818.863,1.227.135.185.264.369.4.559.4.549.8,1.1,1.212,1.646l.234.309c.344.454.688.9,1.037,1.351.15.19.3.384.459.574.125.16.249.324.379.484.175.219.354.434.534.653.14.17.274.339.414.509.429.519.858,1.032,1.3,1.541.11.125.219.249.329.379.349.4.7.8,1.052,1.192l.459.509c.354.389.713.778,1.072,1.162.115.12.224.239.339.359.464.494.938.982,1.411,1.461l.354.359c.379.374.758.753,1.137,1.122l.429.414c.444.424.888.843,1.336,1.257l.16.15c.5.464,1.012.918,1.521,1.366l.14.125.264.224c.389.339.778.673,1.172,1,.145.12.294.244.439.369.5.419,1.007.828,1.521,1.232l.04.035c.514.409,1.037.813,1.566,1.207.16.125.324.244.489.369.384.284.768.568,1.157.848.165.12.334.239.5.359l.234.17c.444.314.9.628,1.346.933l.244.16c.464.309.928.618,1.4.918.18.115.364.234.549.349.4.249.8.5,1.2.738.165.1.334.2.5.3.544.329,1.087.648,1.641.957.13.075.264.15.4.224q.658.367,1.316.718c.189.1.379.2.569.3.434.224.873.449,1.307.668.145.07.289.145.439.219.564.279,1.137.549,1.71.813.155.075.309.14.464.214.444.2.888.394,1.331.588.19.08.374.16.559.239.5.209,1,.414,1.506.613l.289.12c.593.229,1.187.454,1.785.668l.5.18c.459.16.918.319,1.376.474l.534.175c.613.194,1.227.389,1.84.569q3.329.972,6.613,1.591a64.48,64.48,0,0,0,6.5.893,61.913,61.913,0,0,0,6.353.224q2.356-.045,4.658-.259c.514-.05,1.027-.1,1.536-.165l36.818-4.413A59.612,59.612,0,0,1,158.5,214.484Z" transform="translate(-34.557 -14.485)" fill="#23262a" stroke="#000" stroke-width="1"/>
        </g>
        <g id="Group_5736-2" data-name="Group 5736" transform="translate(158.43 95.697)">
          <path id="Path_5850-3" data-name="Path 5850" d="M193.658,131.982l0-.284c.01-.334.015-.673.025-1.007.005-.374.015-.748.02-1.127,0-.339,0-.678,0-1.017V128.1c0-.229,0-.454-.01-.678,0-.334,0-.663-.01-1-.01-.4-.02-.808-.035-1.212-.01-.3-.015-.593-.025-.888l0-.075c-.025-.648-.06-1.292-.095-1.94-.015-.239-.035-.474-.05-.718-.025-.384-.05-.768-.08-1.157l-.02-.224-.075-.853c-.035-.419-.075-.833-.115-1.252-.03-.284-.06-.574-.095-.858l-.06-.583c-.02-.155-.045-.314-.06-.469-.065-.539-.135-1.072-.209-1.606-.04-.294-.08-.593-.125-.888-.08-.569-.17-1.137-.264-1.705-.03-.19-.06-.384-.09-.578l-.03-.155-.03-.189c-.13-.738-.264-1.471-.409-2.2l-.065-.3c-.14-.693-.284-1.381-.439-2.07l-.045-.214c-.04-.18-.085-.354-.13-.534q-.187-.815-.389-1.616c-.065-.274-.135-.539-.2-.808-.14-.529-.284-1.057-.429-1.581-.045-.155-.085-.314-.125-.469l-.085-.284c-.17-.588-.349-1.167-.529-1.75-.055-.175-.1-.354-.16-.529q-.382-1.2-.793-2.389c-.2-.564-.4-1.127-.6-1.681-.095-.259-.195-.514-.294-.773s-.2-.544-.309-.813l-.1-.244c-.11-.274-.219-.544-.329-.813-.135-.334-.274-.668-.414-1-.115-.269-.229-.539-.344-.8-.06-.135-.115-.274-.174-.409-.09-.2-.185-.4-.274-.608-.115-.249-.224-.5-.339-.748-.175-.379-.354-.753-.534-1.132-.1-.2-.195-.4-.294-.608l-.04-.085c-.259-.534-.529-1.067-.8-1.6-.075-.145-.155-.284-.229-.424-.185-.359-.369-.713-.564-1.067l-.1-.18c-.19-.339-.379-.678-.574-1.017-.12-.214-.239-.439-.364-.653l-.095-.155c-.189-.329-.389-.658-.588-.982-.135-.224-.264-.454-.4-.678l-.085-.125-.08-.14c-.189-.3-.389-.608-.583-.913-.125-.2-.249-.4-.379-.593L179.49,78c-.264-.4-.529-.788-.8-1.182-.1-.155-.209-.314-.314-.469l-.03-.04c-.075-.11-.155-.219-.234-.334-.234-.329-.464-.663-.7-.987l-.125-.17c-.135-.189-.274-.369-.409-.554-.155-.2-.3-.409-.454-.608-.075-.1-.16-.2-.234-.3-.155-.2-.309-.4-.464-.6-.1-.135-.209-.274-.314-.4-.12-.15-.244-.3-.364-.444-.16-.2-.319-.394-.479-.593l-.2-.244c-.219-.264-.449-.529-.673-.793L173.456,70l-.015-.02c-.314-.359-.628-.718-.948-1.072l-.15-.165c-.13-.145-.264-.289-.4-.429s-.274-.3-.414-.454-.269-.284-.4-.424-.274-.284-.414-.429l-.17-.175c-.3-.314-.608-.618-.913-.923l-.055-.055-.284-.274c-.2-.189-.394-.384-.593-.573-.13-.12-.259-.239-.384-.359l-.369-.344-.195-.18c-.319-.289-.638-.578-.962-.863l-.065-.06-.244-.209c-.2-.175-.4-.354-.608-.529-.165-.14-.334-.279-.5-.419l-.294-.244-.14-.115c-.309-.254-.623-.509-.942-.758l-.2-.16-.3-.234c-.15-.12-.3-.234-.449-.349-.294-.224-.593-.449-.893-.668l-.035-.025q-.456-.337-.913-.658c-.165-.12-.334-.234-.5-.349l-.249-.175-.189-.13c-.314-.214-.633-.429-.952-.638l-.09-.06-.095-.065-.095-.06-.095-.06Q144.8,48.129,130.659,38.953q.808.531,1.6,1.077l.264.185c.5.349,1,.708,1.5,1.072h.005l.03.025c.474.354.942.713,1.411,1.077l.324.254c.454.359.908.728,1.351,1.1l.319.264c.389.329.778.663,1.162,1l.259.229c.434.389.863.778,1.287,1.177.13.125.264.249.394.374.349.334.688.663,1.027,1,.1.095.2.194.3.294.4.4.8.818,1.2,1.232.15.16.294.319.444.479.289.3.569.613.853.928l.429.474c.389.444.783.893,1.167,1.346l.269.329c.3.364.6.728.9,1.1.17.214.339.429.509.648.239.3.474.6.708.908.165.219.329.434.494.653.239.329.479.653.718.987.145.2.294.4.434.6.294.414.588.838.873,1.262.085.12.165.239.249.359.115.175.229.354.344.529.289.434.573.868.853,1.312.155.239.3.484.449.728.234.384.474.763.7,1.152.175.289.344.583.514.878.2.354.414.713.613,1.072.165.294.324.588.484.888.2.369.4.738.6,1.107.234.454.469.908.7,1.361.08.16.16.314.239.474.3.608.6,1.217.888,1.835.1.229.209.464.314.693.185.4.369.8.549,1.212.12.279.244.559.364.843.155.359.309.728.459,1.092.125.3.249.6.369.9.145.359.284.723.429,1.087.115.3.234.6.344.9.145.384.284.768.424,1.152.1.289.209.573.309.858.214.613.424,1.232.628,1.85l.03.095c.279.843.539,1.691.793,2.543.06.185.11.374.165.559.189.648.374,1.3.549,1.955.075.269.145.544.214.813.155.588.3,1.172.449,1.765.07.289.14.583.209.878.14.6.274,1.2.4,1.8.055.274.12.544.174.823q.239,1.137.449,2.289l.065.334q.239,1.317.444,2.648c.045.269.08.544.125.818.09.628.18,1.257.264,1.885.045.329.085.658.125.982.07.593.14,1.192.2,1.785l.12,1.167.09.957c.04.459.075.923.11,1.381.025.319.05.638.07.957.035.5.06,1.012.09,1.516.015.274.035.549.045.823.035.738.065,1.481.085,2.224.01.344.015.683.02,1.027.01.439.015.873.02,1.312,0,.379,0,.753,0,1.132,0,.4,0,.813-.01,1.222-.005.389-.01.773-.015,1.162s-.02.813-.035,1.222c-.01.379-.025.763-.04,1.152-.01.319-.03.643-.045.967-.025.559-.055,1.122-.09,1.681-.02.329-.045.663-.07.992-.035.539-.075,1.082-.12,1.626-.03.349-.065.7-.095,1.052-.05.524-.1,1.042-.155,1.566-.04.369-.08.743-.12,1.117-.06.5-.12,1-.18,1.5-.06.459-.12.913-.185,1.371-.04.309-.085.623-.13.938-.08.569-.17,1.132-.259,1.7-.04.234-.075.469-.11.7-.135.8-.274,1.6-.424,2.4-.025.16-.06.314-.09.474-.125.658-.249,1.312-.384,1.97-.045.219-.095.439-.14.658-.125.578-.249,1.152-.379,1.73-.055.239-.1.479-.165.718-.17.748-.349,1.5-.534,2.239l-.01.04-.085.329c-.17.658-.344,1.317-.519,1.975-.07.249-.135.494-.2.743q-.239.86-.494,1.72c-.055.194-.11.389-.165.578-.209.7-.424,1.4-.643,2.089-.09.274-.18.549-.264.823-.18.553-.364,1.1-.549,1.651-.06.18-.12.359-.18.534l-.06.17c-.214.623-.439,1.252-.663,1.875-.1.264-.194.524-.289.788-.249.663-.5,1.327-.758,1.99-.075.2-.16.4-.239.6-.219.554-.439,1.107-.668,1.656-.085.209-.17.419-.259.628-.274.663-.559,1.326-.848,1.985-.1.219-.194.439-.294.658-.3.673-.6,1.341-.913,2l-.224.479c-.3.633-.6,1.262-.913,1.89l-.17.349c-.349.7-.7,1.4-1.067,2.1l-.234.444q-.546,1.04-1.112,2.075l-.219.394q-.606,1.1-1.232,2.184c-.279.479-.559.957-.843,1.431-.095.16-.189.314-.284.474-.189.314-.379.623-.573.938-.115.185-.229.369-.344.559-.175.279-.349.559-.529.833l-.369.583c-.17.264-.339.519-.5.778-.14.214-.284.429-.424.638-.165.249-.329.494-.494.738-.14.214-.284.424-.429.638l-.5.723c-.145.209-.289.419-.439.623-.17.244-.339.484-.514.728-.145.2-.284.4-.429.6-.175.239-.344.474-.519.708-.15.2-.3.409-.454.613-.184.249-.374.494-.559.738-.14.184-.279.374-.419.554-.324.424-.648.838-.972,1.252-.12.15-.239.294-.359.444-.214.269-.434.544-.648.808-.189.234-.379.459-.568.688-.16.194-.319.389-.479.578-.184.219-.369.434-.554.648l-.509.6c-.175.2-.354.4-.534.608l-.539.613c-.175.194-.349.389-.524.578s-.369.414-.559.613c-.239.264-.479.524-.723.778-.135.15-.274.294-.409.444-.329.344-.658.688-.987,1.027l-.155.155c-.379.394-.768.783-1.152,1.167l-.324.314c-.279.274-.559.549-.843.823l-.329.314c-.309.289-.613.579-.923.868-.145.135-.289.269-.439.4-.274.254-.549.5-.828.753l-.464.414c-.279.244-.554.489-.833.728-.15.13-.3.264-.449.394-.3.259-.608.514-.913.768-.12.1-.244.2-.364.3-.479.4-.957.788-1.441,1.177l-.3.234c-.389.3-.778.608-1.172.908l-.419.319q-.613.464-1.227.913l-.249.184c-.484.354-.977.7-1.466,1.047l-.294.2c-.6.419-1.207.828-1.81,1.227l-.115.075c-.623.409-1.247.8-1.875,1.192l-.329.2c-.608.374-1.217.738-1.83,1.092l-.339.195q-.935.546-1.885,1.062l-.145.075c-.638.344-1.277.678-1.915,1.007l-.209.1c-.638.324-1.282.633-1.93.938l-.334.16c-.633.3-1.272.583-1.91.863l-.319.14q-.98.426-1.975.823l-.13.055q-.965.382-1.93.733l-.239.095q-.965.344-1.93.673l-.364.12c-.638.209-1.277.409-1.915.6l-.309.09c-.663.194-1.326.384-1.995.563l-.09.025c-.653.17-1.3.334-1.955.484l-.249.06q-.965.224-1.93.419l-.344.07c-.638.13-1.277.244-1.91.354l-.309.05c-.663.11-1.321.214-1.985.3l-.09.01c-.643.09-1.287.165-1.93.234l-.259.025c-.633.065-1.267.12-1.9.17l-.354.025c-.628.045-1.252.08-1.88.1l-.3.01c-.653.025-1.312.04-1.965.045l33.711-.239c.738,0,1.476-.03,2.209-.055.244-.01.484-.03.723-.04q.748-.037,1.5-.09l.858-.075c.459-.04.913-.08,1.371-.13l.9-.1c.209-.025.424-.045.633-.07l.713-.1c.3-.045.6-.085.9-.13.459-.075.923-.15,1.381-.234.284-.05.568-.095.853-.15.514-.095,1.027-.2,1.541-.309.229-.05.459-.095.683-.145.733-.16,1.461-.329,2.189-.519l.03,0c.115-.03.224-.065.339-.095.628-.16,1.257-.329,1.885-.514l.155-.045c.2-.055.394-.12.593-.179q.748-.224,1.5-.464c.289-.095.573-.194.863-.289q.688-.232,1.376-.479l.9-.329.613-.224c.244-.095.489-.2.733-.294.3-.12.6-.234.9-.359.459-.189.923-.384,1.381-.583.279-.125.559-.239.833-.364.529-.234,1.052-.479,1.576-.728.2-.1.414-.189.618-.289.708-.344,1.416-.7,2.114-1.062l.06-.03c.15-.08.294-.165.444-.244.494-.259.987-.519,1.476-.793l.229-.135c.254-.14.5-.289.758-.434.324-.185.648-.369.972-.559.14-.085.269-.17.409-.249l.329-.194c.165-.1.324-.209.489-.309.239-.15.484-.289.723-.444.2-.13.409-.264.613-.4.274-.175.549-.354.823-.534.165-.11.334-.214.494-.324.4-.264.793-.539,1.187-.813l.254-.175.075-.055c.5-.349,1.007-.713,1.506-1.077l.364-.274c.17-.125.339-.254.509-.379.2-.155.414-.309.618-.469.344-.264.688-.534,1.027-.808.115-.085.224-.17.334-.259l.115-.09c.424-.344.848-.688,1.267-1.037.165-.135.324-.274.489-.409l.379-.324.389-.329q.621-.539,1.242-1.092l.2-.185.3-.279c.244-.219.484-.434.728-.658.369-.344.738-.693,1.1-1.047l.035-.03.08-.075c.329-.319.658-.638.982-.962.309-.309.618-.618.923-.933l.075-.075.03-.03.06-.06c.359-.369.718-.738,1.072-1.117.259-.269.514-.549.768-.823l.13-.145.09-.095c.329-.354.653-.718.977-1.077.259-.3.524-.6.783-.9l.115-.135.065-.075q.479-.554.957-1.122c.279-.334.559-.673.833-1.012l.045-.05.01-.015c.294-.364.588-.728.878-1.1s.583-.743.873-1.117l.06-.085.115-.145c.229-.3.454-.6.683-.9.274-.374.554-.748.828-1.127l.16-.224.175-.244.479-.673c.274-.384.539-.768.808-1.162l.279-.409.19-.284c.1-.16.214-.319.324-.484.249-.379.5-.758.748-1.142.15-.234.3-.469.449-.708l.14-.214.15-.234c.244-.389.489-.783.728-1.177s.479-.788.713-1.187l.02-.035.02-.03.015-.03.02-.03c.239-.409.479-.823.713-1.232.115-.2.224-.394.334-.593l.2-.349.165-.294c.234-.414.459-.828.683-1.247l.165-.309.209-.394c.095-.185.194-.364.289-.549.224-.424.439-.853.658-1.277l.025-.06.15-.294c.155-.309.309-.623.464-.933l.374-.778.194-.409.05-.1c.2-.434.4-.863.6-1.3l.18-.4.254-.568.165-.359c.194-.444.389-.888.578-1.336l.035-.095.224-.529.3-.718c.11-.269.214-.539.324-.808.065-.165.135-.334.2-.5l.015-.035c.185-.469.369-.947.549-1.421l.125-.339.254-.678.15-.409c.16-.444.314-.888.469-1.331l.185-.544c.115-.329.229-.658.339-.987.055-.18.11-.354.17-.529.075-.239.155-.479.229-.713l.095-.3c.165-.514.324-1.032.474-1.546l.01-.035c.05-.16.095-.324.145-.489.1-.344.2-.683.3-1.027.05-.18.095-.359.145-.539.06-.219.12-.434.18-.653l.1-.364c.13-.474.249-.947.369-1.421l.075-.294c.14-.559.274-1.122.4-1.686l.075-.334c.05-.214.1-.424.145-.638l.165-.733c.06-.274.115-.549.17-.818.04-.2.08-.394.12-.588l.065-.3c.095-.484.185-.967.274-1.456l.07-.369.01-.055.015-.07c.115-.648.229-1.3.334-1.95l.02-.135c.03-.209.06-.419.095-.628.06-.4.125-.793.18-1.192l.045-.329c.04-.279.075-.559.11-.838.035-.259.075-.524.1-.783.02-.15.035-.3.05-.449.055-.444.1-.893.155-1.336.02-.2.045-.414.07-.618l.035-.394c.045-.464.085-.928.125-1.386.015-.209.04-.414.055-.623l.02-.339c.04-.479.07-.957.1-1.436.01-.2.03-.414.04-.618l.015-.294c.025-.494.045-.982.065-1.476C193.638,132.4,193.648,132.186,193.658,131.982Z" transform="translate(-3.633 -28.592)" fill="#2f3337" stroke="#000" stroke-width="1"/>
          <g id="Group_5734-2" data-name="Group 5734">
            <path id="Path_5851-3" data-name="Path 5851" d="M181.245,43.451a69.759,69.759,0,0,1,26.046,22.63,92.891,92.891,0,0,1,14.771,35.272,118.67,118.67,0,0,1,.564,42.677,126.9,126.9,0,0,1-15.389,42.961,109.671,109.671,0,0,1-28,32.369,82.9,82.9,0,0,1-32.783,15.519A64.191,64.191,0,0,1,87.214,218.1,80.706,80.706,0,0,1,69.057,191.38a103.932,103.932,0,0,1-7.74-31.786,122.624,122.624,0,0,1,1.845-33.766,127.484,127.484,0,0,1,11.47-33.446A116.587,116.587,0,0,1,94.655,64.027a95.281,95.281,0,0,1,25.817-19.144,74.3,74.3,0,0,1,29.716-7.944A63.287,63.287,0,0,1,181.245,43.451Zm-50.4,127.193a15.241,15.241,0,0,0,6.812,3.092,15.786,15.786,0,0,0,7.37-.474,19.856,19.856,0,0,0,7.041-3.895,25.327,25.327,0,0,0,5.75-7.1,28.944,28.944,0,0,0,3.132-8.707,28.3,28.3,0,0,0,.274-8.822,23.792,23.792,0,0,0-2.419-7.909,18.318,18.318,0,0,0-4.882-6.024c.529-.479,1.047-.982,1.551-1.521s.987-1.1,1.456-1.7.923-1.222,1.351-1.875.843-1.331,1.227-2.04a29.327,29.327,0,0,0,3.147-8.951,26.6,26.6,0,0,0,.11-8.857,21.121,21.121,0,0,0-2.738-7.66,16.085,16.085,0,0,0-5.341-5.431,14.494,14.494,0,0,0-6.947-2.1,16.888,16.888,0,0,0-7.166,1.351A21.835,21.835,0,0,0,134,96.376a27.063,27.063,0,0,0-5.256,6.987c-.364.683-.7,1.381-1,2.079s-.578,1.411-.823,2.119-.464,1.426-.648,2.144-.349,1.436-.479,2.154a12.953,12.953,0,0,0-6.233-1.755,15.093,15.093,0,0,0-6.388,1.331,19.871,19.871,0,0,0-5.879,4.044,25.849,25.849,0,0,0-4.747,6.463,29.188,29.188,0,0,0-2.823,8.153,27.645,27.645,0,0,0-.319,8.178,22.321,22.321,0,0,0,2.1,7.356,16.3,16.3,0,0,0,4.478,5.645,13.829,13.829,0,0,0,3.022,1.81,13.015,13.015,0,0,0,3.256.923,13.567,13.567,0,0,0,3.4.055,15.311,15.311,0,0,0,3.431-.788c-.888,1.446-1.88,2.952-2.927,4.383a36.545,36.545,0,0,1-3.271,3.945,15.161,15.161,0,0,1-3.386,2.723,5.1,5.1,0,0,1-3.261.728l13.439,10.951a9.114,9.114,0,0,1-.793-4.139,22.214,22.214,0,0,1,.713-5.017,45.794,45.794,0,0,1,1.7-5.336c.678-1.77,1.426-3.5,2.174-5.087a25.242,25.242,0,0,0,.848,4.154,22.207,22.207,0,0,0,1.516,3.84,19.526,19.526,0,0,0,2.174,3.4,17.493,17.493,0,0,0,2.842,2.823" transform="translate(-60.882 -36.875)" fill="#23262a" stroke="#000" stroke-width="1"/>
          </g>
        </g>
      </g>
    </g>
  </g>
</svg>
