<svg xmlns="http://www.w3.org/2000/svg" width="118.609" height="142.437" viewBox="0 0 118.609 142.437">
  <g id="logo" transform="translate(-0.087 0.03)">
    <path id="Path_92" data-name="Path 92" d="M224.787,176.757C221.417,165.293,213.426,163,213.426,163a5.25,5.25,0,0,1,2.82,4.219,1.147,1.147,0,0,1-.286.952,1.7,1.7,0,0,1-2.293.252c-7.956-5.331-15.258-4-15.258-4,5.8,1.146,7.348,7.612,7.348,7.612a24.59,24.59,0,0,0,13.287,14.112c5.044,10.684,2.763,23.02,2.763,23.02-2.705,16.841-17.368,27.846-17.368,27.846s-22.676,17.815-49.295.241c0,0-25.656-15.648-17.505-46.807,0,0,5.549-19.42,19.741-25.45,0,0-10.822,2.086-21.976,13.608a49.788,49.788,0,0,0-10.868,18.342,32.672,32.672,0,0,0-.481,18.617c3.359,12.61,13.6,35.412,44.411,41.855a62.056,62.056,0,0,0,21.953-.138,52.54,52.54,0,0,0,27.743-14.765s12.473-14.559,13.344-28.591c0,0,1.823-11.464-1.25-19.924,0,0-2.293-7.623-3.21-9.114-.3-.47-.55-.963-.814-1.456l-.653-1.261A39.3,39.3,0,0,0,224.787,176.757Z" transform="translate(-114.895 -120.487)" fill="#f4ae50" fill-rule="evenodd"/>
    <path id="Path_93" data-name="Path 93" d="M182.2,149.28" transform="translate(-106.219 -122.496)" fill="#f4ae50" fill-rule="evenodd"/>
    <path id="Path_94" data-name="Path 94" d="M158.474,170.4a53.614,53.614,0,0,0,8.116.355,6.11,6.11,0,0,0,2.43-.539,2.293,2.293,0,0,0,1.078-.791c-1.949,4.322-12.851,6.259-12.851,6.259,1.467.573,9.412-.894,11.464-1.272.287-.057.585-.126.86-.206a31.283,31.283,0,0,1,12.438-1,3.611,3.611,0,0,1,3.806,2.671c.332,1.6-2.373,6.236-2.373,6.236,7.773-1.456,12.805-10.409,12.805-10.409-.47.883-5.1,1.147-5.1,1.147-1.25.264-1.525-.1-1.869-.642s1.41-4.448,1.41-4.448c-4.952,3.794-9.286,1.9-9.286,1.9-6.351-1.96-3.76-6.81-3.76-6.81,2.728-4.471,11.945-5.113,11.945-5.113,2.843-.378,3.256,1.7,3.256,1.7.367.722-.94,4.07-.94,4.07l8.518-4.242-2.293,5.629,5.732-3.932c.573,3.153-2.717,6.878-2.717,6.878a5.732,5.732,0,0,0,3.6-2.579s2.178-3.863,2.786-5.021c0,0,1.4-3.531,2.2-3.554a2.442,2.442,0,0,0-2.293-2.637s-10.822,1.995-15.453-1.364c0,0-1.49-.424-3.221-4.1a3.679,3.679,0,0,0-2.293-1.444s-9.538-1.33-11.659-2.018a53.51,53.51,0,0,1-8.667-3.439s-12.4-5.079-19.844-15.293c0,0,1.3,4.219,3.439,6.076,0,0-2.121-1.548-5.078-6.58,0,0,3.886,12.61,19.34,18.8,0,0-12.278-.218-33.669-14.9,0,0,2.293,3.439,8.483,6.729,0,0-7.325-3.6-10.237-5.973,0,0,3.164,2.648,4.586,3.772a43.874,43.874,0,0,0,8.311,5.3c3.611,2.018,9.458,4.081,16.244,8.437,0,0-12.037,5.629-15.5,5.067,0,0,7.222,2.6,4.929,3.153a60.093,60.093,0,0,0-29.726,40.238s-8.506,31.64,16.049,56.173c0,0-11.063-25.049-9.767-40.433C125.676,187.222,147.457,172.674,158.474,170.4Z" transform="translate(-115.91 -125.92)" fill="#f4ae50" fill-rule="evenodd"/>
    <path id="Path_95" data-name="Path 95" d="M219.46,184.82" transform="translate(-100.764 -117.293)" fill="#f4ae50" fill-rule="evenodd"/>
    <path id="Path_96" data-name="Path 96" d="M157.506,164.72a30.574,30.574,0,0,0-11.6,9.492s-13.585,14.261-8.4,38.232c0,0,12.3,51.817,55.829,48.3,0,0-29.3,9.171-51.737-12.782-.378-.378-.757-.745-1.146-1.146-3.795-3.439-33.245-36.49-7.165-65.975C133.283,180.884,141.548,167.586,157.506,164.72Z" transform="translate(-114.942 -120.236)" fill="#f4ae50" fill-rule="evenodd"/>
    <path id="Path_97" data-name="Path 97" stroke="#ce3c3a" d="M122.53,224.89" fill="#f4ae50" transform="translate(-114.954 -111.427)" stroke-linecap="round" stroke-linejoin="round" stroke-width="0.28" fill-rule="evenodd"/>
  </g>
</svg>
