<svg xmlns="http://www.w3.org/2000/svg" xmlns:xlink="http://www.w3.org/1999/xlink" width="639.61" height="196.59" viewBox="0 0 639.61 196.59">
  <defs>
    <filter id="Path_13800" x="0" y="0" width="639.61" height="196.59" filterUnits="userSpaceOnUse">
      <feOffset dy="3" input="SourceAlpha"/>
      <feGaussianBlur stdDeviation="4.5" result="blur"/>
      <feFlood flood-color="#ffc124"/>
      <feComposite operator="in" in2="blur"/>
      <feComposite in="SourceGraphic"/>
    </filter>
  </defs>
  <g transform="matrix(1, 0, 0, 1, 0, 0)" filter="url(#Path_13800)">
    <path id="Path_13800-2" data-name="Path 13800" d="M39.615-34.675a17.538,17.538,0,0,1,10.023,5.89A16.124,16.124,0,0,1,53.485-18.05q0,8.17-5.557,13.11T31.825,0H6.935V-66.975h24.51q10.07,0,15.295,4.465t5.225,12.255q0,6.46-3.468,10.45A15.712,15.712,0,0,1,39.615-34.675ZM15.58-37.62H30.02q6.365,0,9.737-2.945T43.13-48.83a10.233,10.233,0,0,0-3.325-8.075Q36.48-59.85,29.64-59.85H15.58ZM30.21-7.22q6.84,0,10.593-3.135t3.752-8.835a10.784,10.784,0,0,0-3.847-8.788Q36.86-31.16,30.02-31.16H15.58V-7.22ZM72.485-66.975V-26.79q0,9.88,4.37,14.583t12.065,4.7q7.6,0,11.875-4.75T105.07-26.79V-66.975h8.645V-26.79q0,13.68-6.793,20.568T88.73.665q-11.305,0-18.1-6.888T63.84-26.79V-66.975Zm63.27,0V0H127.11V-66.975ZM158.27-6.745h23.75V0h-32.4V-66.975h8.645Zm73.625-60.23v7.03h-18.9V0h-8.645V-59.945h-18.9v-7.03Zm62.7-.855a32.544,32.544,0,0,1,16.768,4.37A31.1,31.1,0,0,1,323.1-51.252a36.39,36.39,0,0,1,4.275,17.717A36.39,36.39,0,0,1,323.1-15.818,31.1,31.1,0,0,1,311.363-3.61,32.544,32.544,0,0,1,294.6.76a33.055,33.055,0,0,1-16.862-4.37A30.9,30.9,0,0,1,265.9-15.818a36.39,36.39,0,0,1-4.275-17.717A36.39,36.39,0,0,1,265.9-51.252,30.9,30.9,0,0,1,277.733-63.46,33.055,33.055,0,0,1,294.6-67.83Zm0,8.075a24.169,24.169,0,0,0-12.4,3.182,22.051,22.051,0,0,0-8.55,9.12,29.768,29.768,0,0,0-3.088,13.918,29.841,29.841,0,0,0,3.088,13.87A21.987,21.987,0,0,0,282.2-10.5a24.169,24.169,0,0,0,12.4,3.182,23.711,23.711,0,0,0,12.3-3.23,22.37,22.37,0,0,0,8.55-9.168,29.552,29.552,0,0,0,3.087-13.822,29.768,29.768,0,0,0-3.087-13.918,22.051,22.051,0,0,0-8.55-9.12A23.985,23.985,0,0,0,294.6-59.755ZM391.115,0H382.47L347.7-52.915V0h-8.645V-66.975H347.7l34.77,53.01v-53.01h8.645ZM15.58,33.025V100H6.935V33.025ZM81.51,100H72.865L38.1,47.085V100H29.45V33.025H38.1l34.77,53.01V33.025H81.51Zm65.93,0h-8.645l-34.77-52.915V100H95.38V33.025h8.645l34.77,53.01V33.025h8.645Zm44.555-67.83a32.544,32.544,0,0,1,16.768,4.37,31.1,31.1,0,0,1,11.732,12.208,36.39,36.39,0,0,1,4.275,17.717,36.39,36.39,0,0,1-4.275,17.718A31.1,31.1,0,0,1,208.763,96.39a32.543,32.543,0,0,1-16.768,4.37,33.055,33.055,0,0,1-16.862-4.37A30.9,30.9,0,0,1,163.3,84.183a36.39,36.39,0,0,1-4.275-17.718A36.39,36.39,0,0,1,163.3,48.748,30.9,30.9,0,0,1,175.133,36.54,33.055,33.055,0,0,1,191.995,32.17Zm0,8.075a24.169,24.169,0,0,0-12.4,3.182,22.051,22.051,0,0,0-8.55,9.12,29.768,29.768,0,0,0-3.087,13.917,29.841,29.841,0,0,0,3.087,13.87A21.987,21.987,0,0,0,179.6,89.5a24.169,24.169,0,0,0,12.4,3.182,23.711,23.711,0,0,0,12.3-3.23,22.37,22.37,0,0,0,8.55-9.168,29.551,29.551,0,0,0,3.087-13.823,29.768,29.768,0,0,0-3.087-13.917,22.051,22.051,0,0,0-8.55-9.12A23.985,23.985,0,0,0,191.995,40.245Zm48.83-7.22L261.25,90.4l20.71-57.38h9.4L266.76,100H255.835l-24.51-66.975Zm98.515,51.49H309.89L304.285,100h-9.31l24.8-65.74h9.785l24.7,65.74h-9.31Zm-2.47-6.745L324.615,43.95,312.36,77.77Zm67.165-44.745v7.03h-18.9V100h-8.645V40.055h-18.9v-7.03Zm17.195,0V100h-8.645V33.025Zm44.555-.855a32.544,32.544,0,0,1,16.768,4.37,31.1,31.1,0,0,1,11.732,12.208,36.39,36.39,0,0,1,4.275,17.717,36.39,36.39,0,0,1-4.275,17.718A31.1,31.1,0,0,1,482.552,96.39a32.543,32.543,0,0,1-16.768,4.37,33.055,33.055,0,0,1-16.862-4.37,30.9,30.9,0,0,1-11.828-12.207,36.39,36.39,0,0,1-4.275-17.718,36.39,36.39,0,0,1,4.275-17.717A30.9,30.9,0,0,1,448.922,36.54,33.055,33.055,0,0,1,465.785,32.17Zm0,8.075a24.169,24.169,0,0,0-12.4,3.182,22.051,22.051,0,0,0-8.55,9.12,29.768,29.768,0,0,0-3.087,13.917,29.841,29.841,0,0,0,3.087,13.87,21.987,21.987,0,0,0,8.55,9.168,24.169,24.169,0,0,0,12.4,3.182,23.711,23.711,0,0,0,12.3-3.23,22.37,22.37,0,0,0,8.55-9.168,29.552,29.552,0,0,0,3.087-13.823,29.768,29.768,0,0,0-3.087-13.917,22.051,22.051,0,0,0-8.55-9.12A23.985,23.985,0,0,0,465.785,40.245ZM562.3,100H553.66L518.89,47.085V100h-8.645V33.025h8.645l34.77,53.01V33.025H562.3Zm56.24-17.385a17.833,17.833,0,0,1-2.28,8.835,17.164,17.164,0,0,1-6.935,6.65,23.551,23.551,0,0,1-11.495,2.565,27.6,27.6,0,0,1-11.828-2.423,21.042,21.042,0,0,1-8.265-6.65,18.815,18.815,0,0,1-3.562-9.643H583.4a13.07,13.07,0,0,0,6.7,10.022,14.848,14.848,0,0,0,7.458,1.758q5.7,0,8.74-3.04a10.547,10.547,0,0,0,3.04-7.79,10.041,10.041,0,0,0-2.138-6.65,15.144,15.144,0,0,0-5.273-4.038,71.657,71.657,0,0,0-8.55-3.182,86.466,86.466,0,0,1-10.213-3.943A17.436,17.436,0,0,1,576.6,59.53q-2.707-3.705-2.707-9.785a16.9,16.9,0,0,1,2.517-9.215,16.5,16.5,0,0,1,7.22-6.175A26.043,26.043,0,0,1,594.7,32.17q9.88,0,15.675,4.8a18.358,18.358,0,0,1,6.745,12.208h-9.31a12.592,12.592,0,0,0-4.085-7.03q-3.325-3.04-9.025-3.04a12.346,12.346,0,0,0-8.36,2.708,9.56,9.56,0,0,0-3.135,7.647,9.468,9.468,0,0,0,2.042,6.317,14.216,14.216,0,0,0,5.083,3.8,81.81,81.81,0,0,0,8.36,3.088,84.792,84.792,0,0,1,10.4,3.99,17.573,17.573,0,0,1,6.7,5.747Q618.545,76.25,618.545,82.615Z" transform="translate(7.07 78.83)" fill="none" stroke="#eab046" stroke-width="1" opacity="0.35"/>
  </g>
</svg>
