<svg xmlns="http://www.w3.org/2000/svg" width="141.633" height="30.019" viewBox="0 0 141.633 30.019">
  <g id="gdrive-logo" transform="translate(-7.155 -34.38)">
    <g id="GDrive-racing-new-logo_bigger" transform="translate(7.155 34.38)">
      <g id="Group-22" transform="translate(0 0)">
        <path id="Path" d="M207.726,19.882l-7.207,16.841H207.9l7.21-16.841Z" transform="translate(-116.479 -11.561)" fill="#f4ae50" fill-rule="evenodd"/>
        <path id="Path-2" data-name="Path" d="M248.742,19.882,238.08,32.229l5.306-12.347h-7.462l-6.1,14.335a1.714,1.714,0,0,0,1.441,2.507h7.5A3.767,3.767,0,0,0,241.4,35.4l13.378-15.522Z" transform="translate(-133.37 -11.561)" fill="#f4ae50" fill-rule="evenodd"/>
        <path id="Path-3" data-name="Path" d="M287.715,19.877a3.894,3.894,0,0,0-3.98,2.14l-5.047,11.736c-.828,1.737.491,2.965,2.331,2.965h11.926l1.574-3.687h-7.411a.526.526,0,0,1-.484-.193.507.507,0,0,1,0-.475l1.022-2.374h8.178l1.561-3.643h-8.178l.964-2.229c.055-.129.228-.543,1.077-.543h7.33l1.584-3.7Z" transform="translate(-161.667 -11.556)" fill="#f4ae50" fill-rule="evenodd"/>
        <path id="Path-4" data-name="Path" d="M88.782.073l6.474,4.8H102a2.009,2.009,0,0,1,1.8.712,2.2,2.2,0,0,1,.112,1.842L99.2,18.363c-.474,1.018-1.506,2.073-5.377,2.073H89.052L94.844,6.884H87.208L79.371,25.235H95.894c7.64,0,8.826-2.144,10.488-5.858l3.8-8.717c.9-2.178,1.97-5.2.239-7.737C108.907.7,106.457.073,103.946.073Z" transform="translate(-46.219 -0.073)" fill="#f4ae50" fill-rule="evenodd"/>
        <path id="Path-5" data-name="Path" d="M154.658,19.882l-7.217,16.841h7.384l5.643-13.141h2.6c1.148-.017,1.619.3,1.769.709.927,2.558-6.8,5.817-6.8,5.817L169.423,41.58h1.2l-5.694-10.793c.93-.488,6.788-2.334,6.546-6.95-.119-2.273-2-3.942-7.207-3.942Z" transform="translate(-85.697 -11.561)" fill="#f4ae50" fill-rule="evenodd"/>
        <path id="Path-6" data-name="Path" d="M73.687,19.882l-2.372,5.654h5.21l2.419-5.654Z" transform="translate(-41.548 -11.561)" fill="#f4ae50" fill-rule="evenodd"/>
        <path id="Path-7" data-name="Path" d="M16.562.073c-6.706,0-9.63,2.181-11.177,5.475L2.042,13.309C-2.49,22.915,3.63,25.235,8.087,25.235H22.4L29.6,8.4H21.578l-8.117,5.648h6.1l-2.726,6.384H9.28s-2.726,0-1.411-2.917l4.5-10.424c.784-1.754,2.085-2.2,3.864-2.2H26.614L33.62.083Z" transform="translate(-0.448 -0.073)" fill="#f4ae50" fill-rule="evenodd"/>
        <path id="Shape" d="M227.274.208a1.094,1.094,0,0,1,.794.22c.2.237.065.6-.027.821L227.5,2.529a1.66,1.66,0,0,1-.624.777,1.939,1.939,0,0,1-1.022.241h-.729l1.619,2.035h-1.8l-1.305-2.035h-1.169L221.6,5.581h-1.251L222.64.219Zm-3.782.916-.644,1.506h2.873a.965.965,0,0,0,.378-.081.679.679,0,0,0,.283-.339l.279-.655c.034-.085.1-.241,0-.339a.483.483,0,0,0-.341-.081Z" transform="translate(-127.982 -0.147)" fill="#f4ae50"/>
        <path id="Shape-2" data-name="Shape" d="M247.822.218l.8,5.363h-1.4l-.14-1.163h-3.408l-1.114,1.163h-1.261L246.613.218Zm-.862,3.222-.239-2.181-2.14,2.181Z" transform="translate(-140.135 -0.157)" fill="#f4ae50"/>
        <path id="Path-8" data-name="Path" d="M267.189,1.173l-1.455,3.409h3.38l.5-1.163,1.142.261-.252.614a2.3,2.3,0,0,1-.722,1.018,2.014,2.014,0,0,1-1.155.258h-3.234c-.341,0-.777,0-.934-.258s.041-.78.14-1.018l1.2-2.829a2.3,2.3,0,0,1,.722-1.018A1.991,1.991,0,0,1,267.68.185H270.9c.341,0,.777,0,.93.261s-.041.78-.136,1.018l-.225.529-1.339.2.436-1.018Z" transform="translate(-153.528 -0.135)" fill="#f4ae50" fill-rule="evenodd"/>
        <path id="Path-9" data-name="Path" d="M285.91,5.581h-1.251L286.945.218H288.2Z" transform="translate(-165.277 -0.157)" fill="#f4ae50" fill-rule="evenodd"/>
        <path id="Path-10" data-name="Path" d="M301.487,3.38a1.956,1.956,0,0,1,.368.58l.341-.923L303.4.218h1.125l-2.286,5.363h-.855L298.84,2.267a2.74,2.74,0,0,1-.262-.438l-.153.438c-.02.041-.031.095-.048.136-.048.136-.065.176-.109.282l-1.237,2.9H295.9L298.189.218h.855Z" transform="translate(-171.797 -0.157)" fill="#f4ae50" fill-rule="evenodd"/>
        <path id="Path-11" data-name="Path" d="M321.338,1.173l-1.452,3.409h3.881l.515-1.2h-2.014l.388-.916h3.268l-.78,1.832a2.3,2.3,0,0,1-.722,1.018,2.014,2.014,0,0,1-1.155.258h-3.714c-.341,0-.78,0-.934-.258s.041-.78.136-1.018l1.22-2.829A2.3,2.3,0,0,1,320.7.447a1.991,1.991,0,0,1,1.155-.261h3.714c.314,0,.756,0,.927.251s.027.644-.109.967l-.061.146-1.346.217.256-.6Z" transform="translate(-184.939 -0.135)" fill="#f4ae50" fill-rule="evenodd"/>
      </g>
    </g>
  </g>
</svg>
