<svg id="Group_30" data-name="Group 30" xmlns="http://www.w3.org/2000/svg" width="24.446" height="26.338" viewBox="0 0 24.446 26.338">
  <path id="path64" d="M103.275,255.8a2.035,2.035,0,0,0-.481,1.442v22.673a2.035,2.035,0,0,0,.481,1.442l.076.068,12.853-12.7v-.3l-12.853-12.7Z" transform="translate(-102.791 -255.426)" fill="#21262b"/>
  <path id="path20903" d="M103.362,281.346l13.013-13.025-13-13a1.418,1.418,0,0,0-.565,1.282v23.474A1.45,1.45,0,0,0,103.362,281.346Z" transform="translate(-102.797 -255.18)" fill="#21262b"/>
  <path id="path20905" d="M118.715,267.751l3.877-3.881-15.784-8.663a1.767,1.767,0,0,0-.877-.236l12.785,12.781Z" transform="translate(-104.673 -254.97)" fill="#21262b"/>
  <path id="path20907" d="M118.667,288.68,105.85,301.517a1.746,1.746,0,0,0,.913-.244l15.816-8.687Z" transform="translate(-104.625 -275.179)" fill="#21262b"/>
  <path id="path20909" d="M147.982,280.678l-5.251-2.888-3.981,3.985,4.005,4.005,5.207-2.88c1.109-.613,1.109-1.622,0-2.231Z" transform="translate(-124.348 -268.65)" fill="#21262b"/>
</svg>
