<svg xmlns="http://www.w3.org/2000/svg" width="125.015" height="29.13" viewBox="0 0 125.015 29.13">
  <g id="layer1" transform="translate(-0.001)">
    <path id="path20" d="M187.3,253.929a3.4,3.4,0,0,0-2.458,1,3.492,3.492,0,0,0,0,4.917h0a3.421,3.421,0,0,0,2.458.992,3.287,3.287,0,0,0,2.458-.983h0a3.008,3.008,0,0,0,.833-2.208v-.058h0a2.415,2.415,0,0,0-.046-.446v-.083h-3.333v.983h2.3a1.842,1.842,0,0,1-.462,1.112,2.354,2.354,0,0,1-1.729.683,2.383,2.383,0,0,1-1.7-.679h0a2.55,2.55,0,0,1,0-3.538,2.379,2.379,0,0,1,1.7-.675,2.083,2.083,0,0,1,1.692.717l.075.087.717-.717-.062-.075a2.8,2.8,0,0,0-1.054-.742,3.547,3.547,0,0,0-1.367-.279Z" transform="translate(-150.064 -253.928)" fill="#24272b"/>
    <path id="path24" d="M202.41,254.262v6.608h4v-1H203.46v-1.808h2.654v-1H203.46V255.25h2.946v-1Z" transform="translate(-160.902 -254.116)" fill="#24272b"/>
    <path id="path28" d="M213.56,254.28v1h1.808v5.608h1.046V255.28h1.808v-1Z" transform="translate(-167.406 -254.133)" fill="#24272b"/>
    <path id="path32" d="M232,254.28v6.608h1.046V254.28Z" transform="translate(-178.163 -254.133)" fill="#24272b"/>
    <path id="path36" d="M236.47,254.28v1h1.813v5.608h1.046V255.28h1.808v-1Z" transform="translate(-180.77 -254.133)" fill="#24272b"/>
    <path id="path40" d="M257.118,253.929a3.308,3.308,0,0,0-2.45,1,3.529,3.529,0,0,0,0,4.9,3.462,3.462,0,1,0,4.9-4.892,3.292,3.292,0,0,0-2.45-1.008Zm0,1a2.271,2.271,0,0,1,1.667.688,2.592,2.592,0,0,1,0,3.525,2.4,2.4,0,0,1-3.363,0,2.592,2.592,0,0,1,0-3.525A2.284,2.284,0,0,1,257.118,254.929Z" transform="translate(-190.81 -253.928)" fill="#24272b"/>
    <path id="path44" d="M272.46,254.28v6.608h1.058V256.8l-.025-.9,3.154,5h1.038V254.28h-1.046v3.854l.025.9-3-4.754Z" transform="translate(-201.764 -254.133)" fill="#24272b"/>
    <path id="path46" d="M212.517,285.265a4.5,4.5,0,1,0,3.266,1.292A4.538,4.538,0,0,0,212.517,285.265Zm0,7.288a2.754,2.754,0,1,1,2.592-2.75,2.633,2.633,0,0,1-2.592,2.75Zm-10.046-7.288a4.5,4.5,0,1,0,3.249,1.3A4.538,4.538,0,0,0,202.472,285.265Zm0,7.288a2.754,2.754,0,1,1,2.583-2.75,2.638,2.638,0,0,1-2.583,2.75Zm-11.958-5.9v1.929h4.658a4,4,0,0,1-1.058,2.421,4.812,4.812,0,0,1-3.6,1.4,5.121,5.121,0,0,1,0-10.237,4.967,4.967,0,0,1,3.508,1.375l1.375-1.358a6.825,6.825,0,0,0-4.883-1.942,7.048,7.048,0,1,0,0,14.092,6.55,6.55,0,0,0,4.975-1.979,6.286,6.286,0,0,0,1.667-4.5,6.121,6.121,0,0,0-.108-1.2Zm48.9,1.5a4.248,4.248,0,0,0-3.929-2.888,4.322,4.322,0,0,0-4.325,4.538,4.467,4.467,0,0,0,4.55,4.538,4.584,4.584,0,0,0,3.829-2.013l-1.567-1.029a2.629,2.629,0,0,1-2.263,1.25,2.333,2.333,0,0,1-2.221-1.375l6.138-2.5Zm-6.25,1.508a2.5,2.5,0,0,1,2.4-2.642,1.779,1.779,0,0,1,1.7.962Zm-5,4.4h2.017V280.728h-2.017Zm-3.3-7.783h-.067a3.208,3.208,0,0,0-2.413-1.013,4.542,4.542,0,0,0,0,9.075,3.146,3.146,0,0,0,2.413-1.033h.067v.65c0,1.737-.937,2.667-2.45,2.667a2.546,2.546,0,0,1-2.312-1.617l-1.754.721a4.375,4.375,0,0,0,4.067,2.683c2.367,0,4.363-1.375,4.363-4.721v-8.129h-1.913Zm-2.308,6.275a2.758,2.758,0,0,1,0-5.5,2.768,2.768,0,0,1-.008,5.5Zm26.308-11.821h-4.837v13.333h2.012v-5.054h2.817a4.149,4.149,0,1,0,0-8.279Zm.05,6.425h-2.867v-4.583h2.867a2.292,2.292,0,1,1,0,4.583Zm12.442-1.917a3.785,3.785,0,0,0-3.587,2.042l1.783.742a1.913,1.913,0,0,1,1.842-.979,1.941,1.941,0,0,1,2.117,1.713v.138a4.442,4.442,0,0,0-2.083-.517c-1.925,0-3.883,1.046-3.883,3a3.083,3.083,0,0,0,3.333,2.917,2.854,2.854,0,0,0,2.571-1.308h.067v1.029h1.946v-5.087c0-2.362-1.788-3.687-4.1-3.687Zm-.242,7.308c-.658,0-1.579-.325-1.579-1.129,0-1.033,1.146-1.429,2.138-1.429a3.6,3.6,0,0,1,1.837.45A2.433,2.433,0,0,1,261.109,292.549Zm11.421-7.017-2.312,5.779h-.071l-2.4-5.779H265.58l3.592,8.079-2.05,4.492h2.1l5.533-12.571Zm-18.15,8.529H256.4V280.728H254.38Z" transform="translate(-149.743 -269.281)" fill="#24272b"/>
    <path id="path64" d="M103.294,255.805a2.117,2.117,0,0,0-.5,1.5v23.588a2.117,2.117,0,0,0,.5,1.5l.079.071,13.371-13.213v-.312L103.374,255.73Z" transform="translate(-102.791 -254.979)" fill="#24272b"/>
    <path id="path20903" d="M103.384,282.395l13.538-13.55L103.4,255.32a1.475,1.475,0,0,0-.588,1.333v24.421a1.508,1.508,0,0,0,.575,1.321Z" transform="translate(-102.797 -254.74)" fill="#24272b"/>
    <path id="path20905" d="M119.23,268.266l4.033-4.038-16.421-9.013a1.837,1.837,0,0,0-.912-.246l13.3,13.3Z" transform="translate(-104.622 -254.536)" fill="#24272b"/>
    <path id="path20907" d="M119.183,288.68,105.85,302.034a1.817,1.817,0,0,0,.95-.254l16.454-9.038Z" transform="translate(-104.575 -274.2)" fill="#24272b"/>
    <path id="path20909" d="M148.354,280.794l-5.462-3-4.142,4.146,4.167,4.167,5.417-3c1.154-.637,1.154-1.687,0-2.321Z" transform="translate(-123.767 -267.847)" fill="#24272b"/>
  </g>
</svg>
