<svg xmlns="http://www.w3.org/2000/svg" xmlns:xlink="http://www.w3.org/1999/xlink" width="298" height="309" viewBox="0 0 298 309">
  <defs>
    <clipPath id="clip-path">
      <rect id="Rectangle_1884" data-name="Rectangle 1884" width="265" height="166" transform="translate(220 1213)" fill="#23262a" opacity="0.9"/>
    </clipPath>
    <filter id="Path_6061" x="116.515" y="-0.798" width="189.718" height="171.227" filterUnits="userSpaceOnUse">
      <feOffset dy="3" input="SourceAlpha"/>
      <feGaussianBlur stdDeviation="4.5" result="blur"/>
      <feFlood flood-color="#e2ac57" flood-opacity="0.6"/>
      <feComposite operator="in" in2="blur"/>
      <feComposite in="SourceGraphic"/>
    </filter>
    <filter id="Path_6063" x="-4.228" y="37.059" width="144.103" height="175.34" filterUnits="userSpaceOnUse">
      <feOffset dy="3" input="SourceAlpha"/>
      <feGaussianBlur stdDeviation="3" result="blur-2"/>
      <feFlood flood-color="#e1ac56" flood-opacity="0.6"/>
      <feComposite operator="in" in2="blur-2"/>
      <feComposite in="SourceGraphic"/>
    </filter>
    <filter id="Path_6064" x="4.054" y="159.869" width="178.562" height="140.291" filterUnits="userSpaceOnUse">
      <feOffset dy="3" input="SourceAlpha"/>
      <feGaussianBlur stdDeviation="4.5" result="blur-3"/>
      <feFlood flood-color="#e2ac57" flood-opacity="0.6"/>
      <feComposite operator="in" in2="blur-3"/>
      <feComposite in="SourceGraphic"/>
    </filter>
    <filter id="Path_6065" x="116.521" y="122.059" width="140.469" height="178.102" filterUnits="userSpaceOnUse">
      <feOffset dy="3" input="SourceAlpha"/>
      <feGaussianBlur stdDeviation="4.5" result="blur-4"/>
      <feFlood flood-color="#e2ac57" flood-opacity="0.6"/>
      <feComposite operator="in" in2="blur-4"/>
      <feComposite in="SourceGraphic"/>
    </filter>
    <clipPath id="clip-path-2">
      <rect id="Rectangle_1885" data-name="Rectangle 1885" width="298" height="143" transform="translate(215 1070)" fill="#23262a" opacity="0.9"/>
    </clipPath>
  </defs>
  <g id="Symbol_45_1" data-name="Symbol 45 – 1" transform="translate(-215 -1070)">
    <g id="Mask_Group_108" data-name="Mask Group 108" clip-path="url(#clip-path)">
      <g id="Group_5842" data-name="Group 5842" transform="translate(-70.178 942.818)">
        <path id="Path_6059" data-name="Path 6059" d="M639.373,478.883V447.909c-.059-.139-.123-.275-.174-.419l0-25.365,0-14.565v-.555l-40.966,0a6.454,6.454,0,0,1-2.832-9.3c5.565-8.927,6.836-19.963-3.481-26.033a18.026,18.026,0,0,0-24.485,6.773c-3.814,7.017-.69,13.2,2.894,19.476a6.453,6.453,0,0,1-2.966,9.086l-40.455,0v16.329l0,23.731a6.443,6.443,0,0,0,9.651,3.893c8.929-5.562,19.966-6.828,26.032,3.491,4.918,8.367,1.279,19.654-7.257,24.289-7.018,3.81-12.647.74-19-2.707-4.2-2.277-8.5-.539-9.422,3.914l0,39.352,28.394,0v.092h61.019v-.1l22.878,0,0-40.012C639.252,479.147,639.315,479.016,639.373,478.883Z" transform="translate(-97.205 -106.054)" fill="#2a2e33"/>
        <path id="Path_6060" data-name="Path 6060" d="M462.713,487.921c-6.071-10.316-17.108-9.044-26.033-3.478a6.444,6.444,0,0,1-9.854-5.467V441.634H386.992a6.445,6.445,0,0,0-3.394,9.251c3.586,6.276,6.713,12.455,2.9,19.474a18.027,18.027,0,0,1-24.482,6.786c-10.319-6.065-9.054-17.1-3.494-26.031a6.444,6.444,0,0,0-3.327-9.479H315.267l-.01-.309H314.7v-.679h-.167V552.937H426.826V515.11a6.445,6.445,0,0,1,9.641-5.595c6.278,3.582,12.46,6.706,19.476,2.892A18.027,18.027,0,0,0,462.713,487.921Z" transform="translate(-2.304 -137.594)" fill="#2a2e33"/>
        <g transform="matrix(1, 0, 0, 1, 285.18, 127.18)" filter="url(#Path_6061)">
          <path id="Path_6061-2" data-name="Path 6061" d="M652.336,278.3l36.143-103.884-.524-.182L582.423,137.52l-12.595,36.2a6.444,6.444,0,0,1-11.1,1.926c-6.6-8.19-16.607-13.018-25.73-5.269a18.027,18.027,0,0,0-1.651,25.352c5.373,5.908,12.238,4.989,19.344,3.668a6.445,6.445,0,0,1,7.267,8.452l-12.429,35.726,37.167,12.931a6.449,6.449,0,0,0,6.791-7.614c-1.324-7.105-2.247-13.969,3.657-19.346a18.026,18.026,0,0,1,25.352,1.636c7.754,9.119,2.932,19.128-5.254,25.734a6.443,6.443,0,0,0,.507,10.394l22.413,7.8,14.9,5.184.524.182.756-2.172Z" transform="translate(-396.38 -127.18)" fill="none" stroke="#e2ac57" stroke-width="1"/>
        </g>
        <path id="Path_6062" data-name="Path 6062" d="M410.731,272.767c-1.448-4.31-5.932-5.518-9.823-2.754-5.893,4.185-11.113,7.908-18.538,4.967-9.031-3.577-14-14.346-10.119-23.243,4.784-10.972,15.893-11.04,25.425-6.589a6.443,6.443,0,0,0,9.114-5.023l-2.845-23.56-1.891-15.66-.066-.551L389.3,201.886l-94,11.36v-.01l-4.8.58.067.551,1.746,14.46,3.041,25.182c-.033.149-.079.292-.123.437l3.717,30.75c.074.124.152.247.218.378l4.8,39.723.551-.067.047.305,14.461-1.748,25.181-3.043a6.444,6.444,0,0,1,4.441,9.011c-4.45,9.532-4.381,20.641,6.592,25.424a18.026,18.026,0,0,0,23.491-9.674c2.94-7.425-.906-13.185-5.219-18.985a6.446,6.446,0,0,1,2.259-9.592l39.723-4.8L413.523,295.8h-.01Z" transform="translate(4 -34.558)" fill="#24272b"/>
        <g transform="matrix(1, 0, 0, 1, 285.18, 127.18)" filter="url(#Path_6063)">
          <path id="Path_6063-2" data-name="Path 6063" d="M410.731,272.767c-1.448-4.31-5.932-5.518-9.823-2.754-5.893,4.185-11.113,7.908-18.538,4.967-9.031-3.577-14-14.346-10.119-23.243,4.784-10.972,15.893-11.04,25.425-6.589a6.443,6.443,0,0,0,9.114-5.023l-2.845-23.56-1.891-15.66-.066-.551L389.3,201.886l-94,11.36v-.01l-4.8.58.067.551,1.746,14.46,3.041,25.182c-.033.149-.079.292-.123.437l3.717,30.75c.074.124.152.247.218.378l4.8,39.723.551-.067.047.305,14.461-1.748,25.181-3.043a6.444,6.444,0,0,1,4.441,9.011c-4.45,9.532-4.381,20.641,6.592,25.424a18.026,18.026,0,0,0,23.491-9.674c2.94-7.425-.906-13.185-5.219-18.985a6.446,6.446,0,0,1,2.259-9.592l39.723-4.8L413.523,295.8h-.01Z" transform="translate(-285.18 -156.74)" fill="none" stroke="#e2ac57" stroke-width="1"/>
        </g>
        <g transform="matrix(1, 0, 0, 1, 285.18, 127.18)" filter="url(#Path_6064)">
          <path id="Path_6064-2" data-name="Path 6064" d="M462.713,487.921c-6.071-10.316-17.108-9.044-26.033-3.478a6.444,6.444,0,0,1-9.854-5.467V441.634H386.992a6.445,6.445,0,0,0-3.394,9.251c3.586,6.276,6.713,12.455,2.9,19.474a18.027,18.027,0,0,1-24.482,6.786c-10.319-6.065-9.054-17.1-3.494-26.031a6.444,6.444,0,0,0-3.327-9.479H315.267l-.01-.309H314.7v-.679h-.167V552.937H426.826V515.11a6.445,6.445,0,0,1,9.641-5.595c6.278,3.582,12.46,6.706,19.476,2.892A18.027,18.027,0,0,0,462.713,487.921Z" transform="translate(-296.48 -269.78)" fill="none" stroke="#e2ac57" stroke-width="1"/>
        </g>
        <g transform="matrix(1, 0, 0, 1, 285.18, 127.18)" filter="url(#Path_6065)">
          <path id="Path_6065-2" data-name="Path 6065" d="M639.373,478.883V447.909c-.059-.139-.123-.275-.174-.419l0-25.365,0-14.565v-.555l-40.966,0a6.454,6.454,0,0,1-2.832-9.3c5.565-8.927,6.836-19.963-3.481-26.033a18.026,18.026,0,0,0-24.485,6.773c-3.814,7.017-.69,13.2,2.894,19.476a6.453,6.453,0,0,1-2.966,9.086l-40.455,0v16.329l0,23.731a6.443,6.443,0,0,0,9.651,3.893c8.929-5.562,19.966-6.828,26.032,3.491,4.918,8.367,1.279,19.654-7.257,24.289-7.018,3.81-12.647.74-19-2.707-4.2-2.277-8.5-.539-9.422,3.914l0,39.352,28.394,0v.092h61.019v-.1l22.878,0,0-40.012C639.252,479.147,639.315,479.016,639.373,478.883Z" transform="translate(-396.38 -236.24)" fill="none" stroke="#e2ac57" stroke-width="1"/>
        </g>
      </g>
    </g>
    <g id="Mask_Group_109" data-name="Mask Group 109" clip-path="url(#clip-path-2)">
      <g id="Group_5841" data-name="Group 5841" transform="translate(-70.178 942.818)">
        <path id="Path_6059-2" data-name="Path 6059" d="M639.373,478.883V447.909c-.059-.139-.123-.275-.174-.419l0-25.365,0-14.565v-.555l-40.966,0a6.454,6.454,0,0,1-2.832-9.3c5.565-8.927,6.836-19.963-3.481-26.033a18.026,18.026,0,0,0-24.485,6.773c-3.814,7.017-.69,13.2,2.894,19.476a6.453,6.453,0,0,1-2.966,9.086l-40.455,0v16.329l0,23.731a6.443,6.443,0,0,0,9.651,3.893c8.929-5.562,19.966-6.828,26.032,3.491,4.918,8.367,1.279,19.654-7.257,24.289-7.018,3.81-12.647.74-19-2.707-4.2-2.277-8.5-.539-9.422,3.914l0,39.352,28.394,0v.092h61.019v-.1l22.878,0,0-40.012C639.252,479.147,639.315,479.016,639.373,478.883Z" transform="translate(-111.205 -109.054)" fill="none" stroke="#e2ac57" stroke-width="1"/>
        <path id="Path_6060-2" data-name="Path 6060" d="M462.713,487.921c-6.071-10.316-17.108-9.044-26.033-3.478a6.444,6.444,0,0,1-9.854-5.467V441.634H386.992a6.445,6.445,0,0,0-3.394,9.251c3.586,6.276,6.713,12.455,2.9,19.474a18.027,18.027,0,0,1-24.482,6.786c-10.319-6.065-9.054-17.1-3.494-26.031a6.444,6.444,0,0,0-3.327-9.479H315.267l-.01-.309H314.7v-.679h-.167V552.937H426.826V515.11a6.445,6.445,0,0,1,9.641-5.595c6.278,3.582,12.46,6.706,19.476,2.892A18.027,18.027,0,0,0,462.713,487.921Z" transform="translate(-11.304 -142.594)" fill="none" stroke="#e2ac57" stroke-width="1"/>
        <path id="Path_6061-3" data-name="Path 6061" d="M652.336,278.3l36.143-103.884-.524-.182L582.423,137.52l-12.595,36.2a6.444,6.444,0,0,1-11.1,1.926c-6.6-8.19-16.607-13.018-25.73-5.269a18.027,18.027,0,0,0-1.651,25.352c5.373,5.908,12.238,4.989,19.344,3.668a6.445,6.445,0,0,1,7.267,8.452l-12.429,35.726,37.167,12.931a6.449,6.449,0,0,0,6.791-7.614c-1.324-7.105-2.247-13.969,3.657-19.346a18.026,18.026,0,0,1,25.352,1.636c7.754,9.119,2.932,19.128-5.254,25.734a6.443,6.443,0,0,0,.507,10.394l22.413,7.8,14.9,5.184.524.182.756-2.172Z" transform="translate(-111.205 0)" fill="none" stroke="#000" stroke-width="1"/>
        <path id="Path_6062-2" data-name="Path 6062" d="M410.731,272.767c-1.448-4.31-5.932-5.518-9.823-2.754-5.893,4.185-11.113,7.908-18.538,4.967-9.031-3.577-14-14.346-10.119-23.243,4.784-10.972,15.893-11.04,25.425-6.589a6.443,6.443,0,0,0,9.114-5.023l-2.845-23.56-1.891-15.66-.066-.551L389.3,201.886l-94,11.36v-.01l-4.8.58.067.551,1.746,14.46,3.041,25.182c-.033.149-.079.292-.123.437l3.717,30.75c.074.124.152.247.218.378l4.8,39.723.551-.067.047.305,14.461-1.748,25.181-3.043a6.444,6.444,0,0,1,4.441,9.011c-4.45,9.532-4.381,20.641,6.592,25.424a18.026,18.026,0,0,0,23.491-9.674c2.94-7.425-.906-13.185-5.219-18.985a6.446,6.446,0,0,1,2.259-9.592l39.723-4.8L413.523,295.8h-.01Z" transform="translate(0 -29.558)" fill="none" stroke="#000" stroke-width="1"/>
      </g>
    </g>
  </g>
</svg>
