<svg xmlns="http://www.w3.org/2000/svg" xmlns:xlink="http://www.w3.org/1999/xlink" width="354" height="232" viewBox="0 0 354 232">
  <defs>
    <clipPath id="clip-path">
      <rect id="Rectangle_767" data-name="Rectangle 767" width="354" height="156" transform="translate(146 1213)" fill="#23262a"/>
    </clipPath>
    <filter id="Path_5966" x="-11.002" y="-7.456" width="247.227" height="253.886" filterUnits="userSpaceOnUse">
      <feOffset dy="3" input="SourceAlpha"/>
      <feGaussianBlur stdDeviation="4.5" result="blur"/>
      <feFlood flood-color="#e2ac57" flood-opacity="0.6"/>
      <feComposite operator="in" in2="blur"/>
      <feComposite in="SourceGraphic"/>
    </filter>
    <filter id="Path_5981" x="226.994" y="-6.515" width="133.923" height="178.073" filterUnits="userSpaceOnUse">
      <feOffset dy="3" input="SourceAlpha"/>
      <feGaussianBlur stdDeviation="3" result="blur-2"/>
      <feFlood flood-color="#e2ac57" flood-opacity="0.6"/>
      <feComposite operator="in" in2="blur-2"/>
      <feComposite in="SourceGraphic"/>
    </filter>
    <clipPath id="clip-path-2">
      <rect id="Rectangle_766" data-name="Rectangle 766" width="353" height="76" transform="translate(147 1137)" fill="#23262a"/>
    </clipPath>
  </defs>
  <g id="Symbol_42_2" data-name="Symbol 42 – 2" transform="translate(-146 -1137)">
    <g id="Mask_Group_104" data-name="Mask Group 104" clip-path="url(#clip-path)">
      <g id="Group_5750" data-name="Group 5750" transform="translate(-29.745 669.383)">
        <g id="Group_5747" data-name="Group 5747">
          <g transform="matrix(1, 0, 0, 1, 175.75, 467.62)" filter="url(#Path_5966)">
            <path id="Path_5966-2" data-name="Path 5966" d="M384.4,640.375a44.484,44.484,0,0,0-37.567-75.962l-31.372-36.069a44.485,44.485,0,0,0-70.021-47.734l-.034-.066L186.043,532.18l.044.077a25.575,25.575,0,0,0,26.318,42.2l32.748-9.075,55.259,63.532-13.526,31.174A25.575,25.575,0,0,0,325.028,692l.07.054,59.367-51.636Z" transform="translate(-175.75 -467.62)" fill="none" stroke="#e2ac57" stroke-width="1"/>
          </g>
          <path id="Path_5968" data-name="Path 5968" d="M286.974,536.816l-7.8-8.963a2.474,2.474,0,0,1,.243-3.492l8.963-7.8a2.474,2.474,0,0,0,.244-3.491l-7.8-8.964a2.475,2.475,0,0,0-3.491-.243l-8.964,7.8a2.476,2.476,0,0,1-3.492-.243l-7.634-8.777a2.476,2.476,0,0,0-3.492-.243l-8.963,7.8a2.475,2.475,0,0,0-.243,3.492l7.634,8.777a2.476,2.476,0,0,1-.243,3.492l-8.777,7.634a2.474,2.474,0,0,0-.244,3.491l7.8,8.964a2.476,2.476,0,0,0,3.492.243l8.776-7.634a2.476,2.476,0,0,1,3.492.243l7.8,8.964a2.475,2.475,0,0,0,3.491.243l8.964-7.8A2.476,2.476,0,0,0,286.974,536.816Z" transform="translate(2 2)" fill="#2a2d32"/>
          <g id="Group_5745" data-name="Group 5745">
            <circle id="Ellipse_7" data-name="Ellipse 7" cx="8.251" cy="8.251" r="8.251" transform="translate(350.255 602.516) rotate(-19.78)" fill="#2a2d32"/>
            <circle id="Ellipse_8" data-name="Ellipse 8" cx="8.252" cy="8.252" r="8.252" transform="translate(325.614 605.366) rotate(-41.391)" fill="#2a2d32"/>
            <path id="Path_5969" data-name="Path 5969" d="M362.873,636.7a8.251,8.251,0,1,1,.811-11.641A8.251,8.251,0,0,1,362.873,636.7Z" transform="translate(1)" fill="#2a2d32"/>
            <path id="Path_5970" data-name="Path 5970" d="M340.144,635.531a8.251,8.251,0,1,1,.811-11.641A8.251,8.251,0,0,1,340.144,635.531Z" transform="translate(1)" fill="#2a2d32"/>
          </g>
          <path id="Path_5971" data-name="Path 5971" d="M287.217,533.33l-7.8-8.964a2.475,2.475,0,0,1,.244-3.492l8.963-7.8a2.475,2.475,0,0,0,.243-3.492l-7.8-8.963a2.475,2.475,0,0,0-3.492-.243l-8.963,7.8a2.476,2.476,0,0,1-3.492-.243l-7.634-8.777a2.476,2.476,0,0,0-3.492-.243l-8.963,7.8a2.475,2.475,0,0,0-.244,3.492l7.634,8.777a2.474,2.474,0,0,1-.243,3.491l-8.777,7.634a2.476,2.476,0,0,0-.243,3.492l7.8,8.964a2.475,2.475,0,0,0,3.491.243l8.777-7.634a2.476,2.476,0,0,1,3.492.243l7.8,8.964a2.476,2.476,0,0,0,3.492.243l8.964-7.8A2.476,2.476,0,0,0,287.217,533.33Z" fill="none" stroke="#e2ac57" stroke-width="1"/>
          <g id="Group_5746" data-name="Group 5746">
            <circle id="Ellipse_9" data-name="Ellipse 9" cx="8.251" cy="8.251" r="8.251" transform="matrix(0.069, -0.998, 0.998, 0.069, 351.25, 611.66)" fill="none" stroke="#e2ac57" stroke-width="1"/>
            <path id="Path_5972" data-name="Path 5972" d="M341.918,608.841a8.251,8.251,0,1,1,.811-11.642A8.252,8.252,0,0,1,341.918,608.841Z" fill="none" stroke="#e2ac57" stroke-width="1"/>
            <circle id="Ellipse_10" data-name="Ellipse 10" cx="8.252" cy="8.252" r="8.252" transform="translate(346.055 626.251) rotate(-41.391)" fill="none" stroke="#e2ac57" stroke-width="1"/>
            <path id="Path_5973" data-name="Path 5973" d="M340.387,632.045A8.251,8.251,0,1,1,341.2,620.4,8.251,8.251,0,0,1,340.387,632.045Z" fill="none" stroke="#e2ac57" stroke-width="1"/>
          </g>
          <path id="Path_5974" data-name="Path 5974" d="M301.429,498.618a42.158,42.158,0,0,1,9.161,17.612,36.968,36.968,0,0,0-67.268-23.107A42.333,42.333,0,0,1,301.429,498.618Z" opacity="0.08"/>
        </g>
      </g>
      <g transform="matrix(1, 0, 0, 1, 146, 1137)" filter="url(#Path_5981)">
        <path id="Path_5981-2" data-name="Path 5981" d="M893.7,348.394a1.907,1.907,0,0,0-1.7-.137s-76.106,30.359-77.894,31.044a3.167,3.167,0,0,0-.879.382,1.89,1.89,0,0,0-.717,1.666l7.989,84.485a1.738,1.738,0,0,1-1.793,1.89,29.566,29.566,0,0,0-14.134,3.416c-11.784,6.116-17.553,18.405-12.859,27.394,2.324,4.449,6.779,7.411,12.547,8.342a25,25,0,0,0,6.321.185,30.252,30.252,0,0,0,11.018-3.316c9.217-4.784,15.013-13.443,14.471-21.59,0-.061,0-.123-.009-.184L829.747,415.2a1.733,1.733,0,0,1,1.086-1.772l51.559-20.567a1.738,1.738,0,0,1,2.376,1.444l4.554,48.154a1.739,1.739,0,0,1-1.793,1.89,29.565,29.565,0,0,0-14.134,3.416,28.214,28.214,0,0,0-12.518,12.364c-2.543,5.243-2.664,10.581-.34,15.03s6.779,7.412,12.547,8.342a28.32,28.32,0,0,0,17.339-3.131c9.336-4.845,15.134-13.61,14.454-21.834,0-.031,0-.062-.007-.092L894.6,349.832A1.893,1.893,0,0,0,893.7,348.394Z" transform="translate(-553.52 -348.12)" fill="none" stroke="#e2ac57" stroke-width="1"/>
      </g>
    </g>
    <g id="Group_103" data-name="Group 103" clip-path="url(#clip-path-2)">
      <g id="Group_5751" data-name="Group 5751" transform="translate(-29.745 669.383)">
        <g id="Group_5747-2" data-name="Group 5747">
          <path id="Path_5966-3" data-name="Path 5966" d="M384.4,640.375a44.484,44.484,0,0,0-37.567-75.962l-31.372-36.069a44.485,44.485,0,0,0-70.021-47.734l-.034-.066L186.043,532.18l.044.077a25.575,25.575,0,0,0,26.318,42.2l32.748-9.075,55.259,63.532-13.526,31.174A25.575,25.575,0,0,0,325.028,692l.07.054,59.367-51.636Z" fill="none" stroke="#000" stroke-width="1"/>
          <path id="Path_5967" data-name="Path 5967" d="M384.313,640.407s-71.006,58.391-99.506,25.629A25.57,25.57,0,0,0,325.028,692l.07.054,59.351-51.622Z" opacity="0.08"/>
          <path id="Path_5968-2" data-name="Path 5968" d="M286.974,536.816l-7.8-8.963a2.474,2.474,0,0,1,.243-3.492l8.963-7.8a2.474,2.474,0,0,0,.244-3.491l-7.8-8.964a2.475,2.475,0,0,0-3.491-.243l-8.964,7.8a2.476,2.476,0,0,1-3.492-.243l-7.634-8.777a2.476,2.476,0,0,0-3.492-.243l-8.963,7.8a2.475,2.475,0,0,0-.243,3.492l7.634,8.777a2.476,2.476,0,0,1-.243,3.492l-8.777,7.634a2.474,2.474,0,0,0-.244,3.491l7.8,8.964a2.476,2.476,0,0,0,3.492.243l8.776-7.634a2.476,2.476,0,0,1,3.492.243l7.8,8.964a2.475,2.475,0,0,0,3.491.243l8.964-7.8A2.476,2.476,0,0,0,286.974,536.816Z" fill="#212327"/>
          <g id="Group_5745-2" data-name="Group 5745">
            <circle id="Ellipse_7-2" data-name="Ellipse 7" cx="8.251" cy="8.251" r="8.251" transform="translate(349.255 602.516) rotate(-19.78)" fill="#24272b"/>
            <circle id="Ellipse_8-2" data-name="Ellipse 8" cx="8.252" cy="8.252" r="8.252" transform="translate(324.614 605.366) rotate(-41.391)" fill="#24272b"/>
            <path id="Path_5969-2" data-name="Path 5969" d="M362.873,636.7a8.251,8.251,0,1,1,.811-11.641A8.251,8.251,0,0,1,362.873,636.7Z" fill="#24272b"/>
            <path id="Path_5970-2" data-name="Path 5970" d="M340.144,635.531a8.251,8.251,0,1,1,.811-11.641A8.251,8.251,0,0,1,340.144,635.531Z" fill="#24272b"/>
          </g>
          <path id="Path_5971-2" data-name="Path 5971" d="M287.217,533.33l-7.8-8.964a2.475,2.475,0,0,1,.244-3.492l8.963-7.8a2.475,2.475,0,0,0,.243-3.492l-7.8-8.963a2.475,2.475,0,0,0-3.492-.243l-8.963,7.8a2.476,2.476,0,0,1-3.492-.243l-7.634-8.777a2.476,2.476,0,0,0-3.492-.243l-8.963,7.8a2.475,2.475,0,0,0-.244,3.492l7.634,8.777a2.474,2.474,0,0,1-.243,3.491l-8.777,7.634a2.476,2.476,0,0,0-.243,3.492l7.8,8.964a2.475,2.475,0,0,0,3.491.243l8.777-7.634a2.476,2.476,0,0,1,3.492.243l7.8,8.964a2.476,2.476,0,0,0,3.492.243l8.964-7.8A2.476,2.476,0,0,0,287.217,533.33Z" fill="none" stroke="#000" stroke-width="1"/>
          <g id="Group_5746-2" data-name="Group 5746">
            <circle id="Ellipse_9-2" data-name="Ellipse 9" cx="8.251" cy="8.251" r="8.251" transform="matrix(0.069, -0.998, 0.998, 0.069, 351.25, 611.66)" fill="none" stroke="#e2ac57" stroke-width="1"/>
            <path id="Path_5972-2" data-name="Path 5972" d="M341.918,608.841a8.251,8.251,0,1,1,.811-11.642A8.252,8.252,0,0,1,341.918,608.841Z" fill="none" stroke="#e2ac57" stroke-width="1"/>
            <circle id="Ellipse_10-2" data-name="Ellipse 10" cx="8.252" cy="8.252" r="8.252" transform="translate(346.055 626.251) rotate(-41.391)" fill="none" stroke="#e2ac57" stroke-width="1"/>
            <path id="Path_5973-2" data-name="Path 5973" d="M340.387,632.045A8.251,8.251,0,1,1,341.2,620.4,8.251,8.251,0,0,1,340.387,632.045Z" fill="none" stroke="#e2ac57" stroke-width="1"/>
          </g>
          <path id="Path_5974-2" data-name="Path 5974" d="M301.429,498.618a42.158,42.158,0,0,1,9.161,17.612,36.968,36.968,0,0,0-67.268-23.107A42.333,42.333,0,0,1,301.429,498.618Z" opacity="0.08"/>
          <path id="Path_5975" data-name="Path 5975" d="M179.327,544.763h0A25.577,25.577,0,0,0,212.4,574.455l31.768-8.8S206,575.425,179.327,544.763Z" opacity="0.08"/>
          <path id="Path_5976" data-name="Path 5976" d="M305.509,617.291l-23.943-27.656-23.943-27.656L245.09,565.4l27.739,31.8,27.5,32.006Z" opacity="0.08"/>
        </g>
      </g>
      <path id="Path_5983" data-name="Path 5983" d="M893.7,348.394a1.907,1.907,0,0,0-1.7-.137s-76.106,30.359-77.894,31.044a3.167,3.167,0,0,0-.879.382,1.89,1.89,0,0,0-.717,1.666l7.989,84.485a1.738,1.738,0,0,1-1.793,1.89,29.566,29.566,0,0,0-14.134,3.416c-11.784,6.116-17.553,18.405-12.859,27.394,2.324,4.449,6.779,7.411,12.547,8.342a25,25,0,0,0,6.321.185,30.252,30.252,0,0,0,11.018-3.316c9.217-4.784,15.013-13.443,14.471-21.59,0-.061,0-.123-.009-.184L829.747,415.2a1.733,1.733,0,0,1,1.086-1.772l51.559-20.567a1.738,1.738,0,0,1,2.376,1.444l4.554,48.154a1.739,1.739,0,0,1-1.793,1.89,29.565,29.565,0,0,0-14.134,3.416,28.214,28.214,0,0,0-12.518,12.364c-2.543,5.243-2.664,10.581-.34,15.03s6.779,7.412,12.547,8.342a28.32,28.32,0,0,0,17.339-3.131c9.336-4.845,15.134-13.61,14.454-21.834,0-.031,0-.062-.007-.092L894.6,349.832A1.893,1.893,0,0,0,893.7,348.394Z" transform="translate(-407.518 788.881)" fill="none" stroke="#000" stroke-width="1"/>
    </g>
  </g>
</svg>
