<svg xmlns="http://www.w3.org/2000/svg" width="20" height="20" viewBox="0 0 20 20">
  <path id="Path_81" data-name="Path 81" d="M215.332,199H202.256a3.46,3.46,0,0,0-3.456,3.456v13.088A3.46,3.46,0,0,0,202.256,219h13.087a3.46,3.46,0,0,0,3.456-3.456V202.456A3.475,3.475,0,0,0,215.332,199Zm-6.538,15.772a5.778,5.778,0,1,1,5.778-5.778,5.778,5.778,0,0,1-5.778,5.778Zm7.9-12.23a1.434,1.434,0,0,1-1.434,1.432h0a1.434,1.434,0,0,1-1.432-1.432h0a1.434,1.434,0,0,1,1.432-1.432h0A1.434,1.434,0,0,1,216.7,202.543Z" transform="translate(-198.8 -199)" fill="#e2ac57"/>
</svg>
