<svg xmlns="http://www.w3.org/2000/svg" width="20.932" height="20.002" viewBox="0 0 20.932 20.002">
  <g id="linkedin-logo" transform="translate(0 -9.558)">
    <path id="LinkedIn" d="M20.932,21.821V29.56H16.446v-7.22c0-1.814-.649-3.052-2.273-3.052a2.455,2.455,0,0,0-2.3,1.641,3.07,3.07,0,0,0-.149,1.094V29.56H7.234s.06-12.229,0-13.5h4.488v1.913c-.009.014-.021.03-.029.044h.029v-.044a4.456,4.456,0,0,1,4.044-2.23C18.719,15.747,20.932,17.676,20.932,21.821ZM2.54,9.558a2.339,2.339,0,1,0-.06,4.664h.03a2.34,2.34,0,1,0,.03-4.664Zm-2.273,20H4.753v-13.5H.267Z" transform="translate(0 0)" fill="#e2ac57"/>
  </g>
</svg>
