<svg id="Layer_1" data-name="Layer 1" xmlns="http://www.w3.org/2000/svg" viewBox="0 0 325.34 74.03"><defs><style>.cls-1,.cls-2{fill:#fff;}.cls-2{fill-rule:evenodd;}</style></defs><title>logo</title><path class="cls-1" d="M25.93,68A4.12,4.12,0,0,0,28.87,66a8.39,8.39,0,0,0,1.06-4.55l.14-33.3H30v-.07a8.3,8.3,0,0,0-1.06-4.55A4.12,4.12,0,0,0,26,21.63v-.07q12.28-.36,20.58-.36,12.29,0,19.71,5.89Q74,33.2,74,43.81q0,12.38-8.14,18.77-7.63,5.88-19.56,5.52L25.93,68ZM36.54,59.3q0,3.5,1.86,4.66t7.38,1.16q20.79,0,20.8-20.36,0-20.58-21.16-20.58h-5q-3.93.36-3.93,2.18Z" transform="translate(-25.93 -5.71)"/><path class="cls-1" d="M99.08,68.1H99L92.68,68h-1.6l-6.32.07V68c2.23-.29,3.53-2,3.92-5.09v-.29a5.76,5.76,0,0,0,.08-1.09l.07-33.24h-.07v-.07a8.35,8.35,0,0,0-1.06-4.54,4.09,4.09,0,0,0-2.94-1.93v-.07l18.18-.15q6,.23,9.45,2.47a9.16,9.16,0,0,1,4.29,8.22q0,7.2-9,12.36a2.83,2.83,0,0,0-1.38.73q14.18,20.58,27.42,22.33l2.47.43-11.64.08q-7.12.06-12.43-6.19-7.42-9.6-12.29-15.41a26.1,26.1,0,0,0-5,.36l.22,14.62a8.27,8.27,0,0,0,1.06,4.54A4.09,4.09,0,0,0,99.08,68Zm10.4-35.27q0-4.65-2.4-6.69c-1.55-1.4-4-2.11-7.49-2.11-2.76,0-4.24.42-4.43,1.24a3,3,0,0,0-.08.73l-.22,17.74h2.91q6.11,0,8.91-3.16A11.26,11.26,0,0,0,109.48,32.83Z" transform="translate(-25.93 -5.71)"/><path class="cls-1" d="M140.39,68h-8.8l-.08-.07a3.89,3.89,0,0,0,2.62-1.64q.94-1.35,2-2.73t5-9.78q3.89-8.46,5.93-13.2,5.29-13,9.16-23.27Q166,40.55,175.51,61.56a12.05,12.05,0,0,0,2.76,4.51A6.74,6.74,0,0,0,181.91,68V68l-11.27.07q-3.13-8.22-4.95-12.72H145ZM164.24,52q-.23-.51-9-21.74l-9.23,22.32h18.47Z" transform="translate(-25.93 -5.71)"/><path class="cls-1" d="M227.54,47.85a8.38,8.38,0,0,0-1,4.54v9.53q0,2.11-5.46,4.51a35,35,0,0,1-13.82,2.62q-11.11,0-18.54-6.62a22.19,22.19,0,0,1-7.56-17.31v-.51a23,23,0,0,1,7.78-17.38A25.77,25.77,0,0,1,207,20.33a38,38,0,0,1,12.65,1.81,12.6,12.6,0,0,1,4.14,2.11l.37.37a4.9,4.9,0,0,1,.22.51,45.12,45.12,0,0,1,.36,6c0,2.18-.1,3.34-.29,3.49h-.15a8.35,8.35,0,0,0-.72-2.11,10.75,10.75,0,0,0-1.79-2.55,21.55,21.55,0,0,0-3-2.65,23.72,23.72,0,0,0-4.44-2.51,18.62,18.62,0,0,0-7.56-1.31,17,17,0,0,0-12.87,5.24q-5.39,5.67-5.38,15.56v.44q.06,9.45,5.67,15.27a18.68,18.68,0,0,0,14.18,5.82,21.56,21.56,0,0,0,8.29-1.6q3.63-1.53,3.63-3.06l-.14-8.73a8.29,8.29,0,0,0-1.06-4.54,4.12,4.12,0,0,0-2.94-1.93v-.07h14.32v.07A4.12,4.12,0,0,0,227.54,47.85Z" transform="translate(-25.93 -5.71)"/><path class="cls-1" d="M351.27,21.63a4.12,4.12,0,0,0-2.94,1.93,8.3,8.3,0,0,0-1.06,4.55l.15,25.81q0,8.07.22,13a2.86,2.86,0,0,1-.44,1.82h-.66q-6.62-6.77-36.86-35L309.46,56v5.52A8.39,8.39,0,0,0,310.51,66,4.14,4.14,0,0,0,313.46,68V68H301.39V68A4.12,4.12,0,0,0,304.33,66a8.39,8.39,0,0,0,1.06-4.55V55.09l.21-26.69q0-4.72-.14-7h.22l36.5,33.16c.39.43.66.65.8.65s.29-.31.29-.94l-.07-26.18a8.3,8.3,0,0,0-1.06-4.55,4.12,4.12,0,0,0-2.94-1.93v-.07h12.07Z" transform="translate(-25.93 -5.71)"/><path class="cls-2" d="M293,35c-1.76-6-5.91-7.16-5.91-7.16A2.72,2.72,0,0,1,288.6,30a.58.58,0,0,1-.15.49.89.89,0,0,1-1.17.13,11.57,11.57,0,0,0-7.92-2.07c3,.57,3.81,4,3.81,4a12.8,12.8,0,0,0,6.91,7.33c2.62,5.55,1.44,12,1.44,12-1.41,8.76-9,14.48-9,14.48a22.24,22.24,0,0,1-25.62.13s-13.33-8.13-9.1-24.34c0,0,2.89-10.09,10.26-13.23,0,0-5.62,1.09-11.42,7.08A26,26,0,0,0,241,45.44a17,17,0,0,0-.25,9.67c1.74,6.59,7.07,18.42,23.09,21.77a32.45,32.45,0,0,0,11.41-.08,27.31,27.31,0,0,0,14.37-7.65s6.48-7.57,6.93-14.87c0,0,.95-6-.65-10.36a39.72,39.72,0,0,0-1.66-4.73,8.2,8.2,0,0,1-.43-.76l-.34-.66A21,21,0,0,0,293,35Z" transform="translate(-25.93 -5.71)"/><path class="cls-2" d="M275.41,19.63" transform="translate(-25.93 -5.71)"/><path class="cls-2" d="M258,28.83a27.56,27.56,0,0,0,4.22.19,3.22,3.22,0,0,0,1.27-.28,1.24,1.24,0,0,0,.56-.41c-1,2.24-6.68,3.25-6.68,3.25.76.3,4.89-.46,5.93-.66a3.69,3.69,0,0,0,.45-.11,16.41,16.41,0,0,1,6.46-.52,1.89,1.89,0,0,1,2,1.4c.17.83-1.24,3.24-1.24,3.24,4-.76,6.66-5.41,6.66-5.41-.24.45-2.65.62-2.65.62-.65.13-.79-.06-1-.34s.73-2.31.73-2.31a5,5,0,0,1-4.83,1c-3.3-1-1.95-3.54-1.95-3.54,1.42-2.32,6.21-2.66,6.21-2.66,1.48-.19,1.7.89,1.7.89.18.37-.5,2.11-.5,2.11l4.43-2.2L278.59,26l3-2c.3,1.64-1.41,3.55-1.41,3.55a3,3,0,0,0,1.87-1.34s1.13-2,1.45-2.61c0,0,.73-1.84,1.14-1.84a1.27,1.27,0,0,0-1.21-1.38s-5.63,1-8-.71c0,0-.78-.22-1.68-2.13a1.9,1.9,0,0,0-1.17-.75s-5-.7-6.06-1.05A28.24,28.24,0,0,1,262,13.93s-6.45-2.64-10.32-8a8.16,8.16,0,0,0,1.8,3.16,12,12,0,0,1-2.64-3.42s2,6.57,10.06,9.78c0,0-6.39-.12-17.51-7.76a12.51,12.51,0,0,0,4.41,3.5,38.84,38.84,0,0,1-5.32-3.11s1.64,1.38,2.36,2a23.1,23.1,0,0,0,4.32,2.75c1.88,1.05,4.92,2.12,8.45,4.39,0,0-6.26,2.92-8.06,2.63,0,0,3.75,1.35,2.56,1.64a31.24,31.24,0,0,0-15.46,20.92S232.23,58.86,245,71.63c0,0-5.76-13-5.08-21C241,37.58,252.31,30,258,28.83Z" transform="translate(-25.93 -5.71)"/><path class="cls-2" d="M297.62,40.81" transform="translate(-25.93 -5.71)"/><path class="cls-2" d="M258,28.83a16,16,0,0,0-6,4.94s-7.07,7.41-4.37,19.87c0,0,6.39,26.94,29,25.11,0,0-15.23,4.76-26.89-6.64q-.3-.3-.6-.57c-2-1.8-17.28-19-3.73-34.3A20.22,20.22,0,0,1,258,28.83Z" transform="translate(-25.93 -5.71)"/><path class="cls-2" d="M239.85,64.69" transform="translate(-25.93 -5.71)"/></svg>