<svg xmlns="http://www.w3.org/2000/svg" xmlns:xlink="http://www.w3.org/1999/xlink" width="991.585" height="199.06" viewBox="0 0 991.585 199.06">
  <defs>
    <filter id="Path_13798" x="0" y="0" width="991.585" height="199.06" filterUnits="userSpaceOnUse">
      <feOffset dy="3" input="SourceAlpha"/>
      <feGaussianBlur stdDeviation="4.5" result="blur"/>
      <feFlood flood-color="#ffc124"/>
      <feComposite operator="in" in2="blur"/>
      <feComposite in="SourceGraphic"/>
    </filter>
  </defs>
  <g transform="matrix(1, 0, 0, 1, 0, 0)" filter="url(#Path_13798)">
    <path id="Path_13798-2" data-name="Path 13798" d="M47.975-66.975v7.03H29.07V0H20.425V-59.945H1.52v-7.03Zm59.945,0V0H99.18V-30.97H65.17V0H56.525V-66.975H65.17V-38H99.18V-66.975Zm22.515,7.03v22.9h25.46v6.65h-25.46V-7.03h28.31V0H121.79V-66.975h36.955v7.03Zm145.255-7.03L258.685,0H248.14L232.655-54.72,217.17,0H206.625l-17.1-66.975h9.6L211.945-10.07,227.81-66.975h9.6L253.27-10.26l12.92-56.715Zm40.85-.855a32.544,32.544,0,0,1,16.768,4.37A31.1,31.1,0,0,1,345.04-51.252a36.39,36.39,0,0,1,4.275,17.717,36.39,36.39,0,0,1-4.275,17.717A31.1,31.1,0,0,1,333.307-3.61,32.544,32.544,0,0,1,316.54.76a33.055,33.055,0,0,1-16.862-4.37A30.9,30.9,0,0,1,287.85-15.818a36.39,36.39,0,0,1-4.275-17.717,36.39,36.39,0,0,1,4.275-17.717A30.9,30.9,0,0,1,299.677-63.46,33.055,33.055,0,0,1,316.54-67.83Zm0,8.075a24.169,24.169,0,0,0-12.4,3.182,22.051,22.051,0,0,0-8.55,9.12A29.768,29.768,0,0,0,292.5-33.535a29.841,29.841,0,0,0,3.087,13.87,21.987,21.987,0,0,0,8.55,9.168,24.169,24.169,0,0,0,12.4,3.182,23.711,23.711,0,0,0,12.3-3.23,22.37,22.37,0,0,0,8.55-9.168,29.552,29.552,0,0,0,3.087-13.822,29.768,29.768,0,0,0-3.087-13.918,22.051,22.051,0,0,0-8.55-9.12A23.985,23.985,0,0,0,316.54-59.755ZM396.53,0,379.05-27.36h-9.405V0H361V-66.975h22.04q11.4,0,17.1,5.463t5.7,14.488q0,8.17-4.56,13.157t-13.2,6.223L406.315,0ZM369.645-33.63H382.28Q397-33.63,397-46.55T382.28-59.47H369.645ZM425.03-6.745h23.75V0H416.385V-66.975h8.645Zm89.015-26.79a36.69,36.69,0,0,1-4.085,17.717A28,28,0,0,1,497.943-4.133Q490.01,0,478.895,0h-21.28V-66.975h21.28q11.115,0,19.048,4.038a27.445,27.445,0,0,1,12.017,11.59A36.9,36.9,0,0,1,514.045-33.535ZM478.23-7.79q13.11,0,20.045-6.745t6.935-19q0-12.255-6.887-19.048T478.23-59.375H466.26V-7.79Zm89.87-9.6a17.833,17.833,0,0,1-2.28,8.835,17.164,17.164,0,0,1-6.935,6.65A23.551,23.551,0,0,1,547.39.665a27.6,27.6,0,0,1-11.828-2.423,21.042,21.042,0,0,1-8.265-6.65,18.815,18.815,0,0,1-3.562-9.643h9.215a13.03,13.03,0,0,0,1.947,5.558,12.936,12.936,0,0,0,4.75,4.465A14.848,14.848,0,0,0,547.1-6.27q5.7,0,8.74-3.04a10.547,10.547,0,0,0,3.04-7.79,10.041,10.041,0,0,0-2.138-6.65,15.144,15.144,0,0,0-5.273-4.038,71.657,71.657,0,0,0-8.55-3.182,86.466,86.466,0,0,1-10.213-3.943,17.436,17.436,0,0,1-6.555-5.557q-2.707-3.705-2.707-9.785a16.9,16.9,0,0,1,2.517-9.215,16.5,16.5,0,0,1,7.22-6.175,26.043,26.043,0,0,1,11.068-2.185q9.88,0,15.675,4.8a18.358,18.358,0,0,1,6.745,12.208h-9.31a12.592,12.592,0,0,0-4.085-7.03q-3.325-3.04-9.025-3.04a12.346,12.346,0,0,0-8.36,2.708,9.56,9.56,0,0,0-3.135,7.647,9.468,9.468,0,0,0,2.042,6.317,14.216,14.216,0,0,0,5.083,3.8,81.81,81.81,0,0,0,8.36,3.088,84.792,84.792,0,0,1,10.4,3.99,17.573,17.573,0,0,1,6.7,5.747Q568.1-23.75,568.1-17.385Zm87.02-25.27L651.8-27.265h13.3v7.885H650.18L646,0h-8.17l4.18-19.38H621.965L617.785,0h-8.17l4.18-19.38h-14.82v-7.885H615.41l3.325-15.39H604.39v-7.98h16.055l4.18-19.665h8.17l-4.18,19.665H648.66L652.84-70.3h8.17l-4.18,19.665h13.585v7.98Zm-8.17,0H626.905l-3.325,15.39h20.045ZM674.405-58.9v-8.075H693.6V0h-9.12V-58.9ZM15.58,40.055v22.9H41.04V69.6H15.58V92.97H43.89V100H6.935V33.025H43.89v7.03ZM107.065,100H98.42L63.65,47.085V100H55.005V33.025H63.65l34.77,53.01V33.025h8.645Zm54.91-66.975v7.03h-18.9V100h-8.645V40.055H115.52v-7.03Zm17.195,7.03v22.9h25.46V69.6H179.17V92.97h28.31V100H170.525V33.025H207.48v7.03ZM254.125,100l-17.48-27.36h-9.4V100H218.6V33.025h22.04q11.4,0,17.1,5.463t5.7,14.488q0,8.17-4.56,13.157t-13.2,6.223L263.91,100ZM227.24,66.37h12.635q14.725,0,14.725-12.92T239.875,40.53H227.24Zm87.78-33.345v7.03h-18.9V100H287.47V40.055h-18.9v-7.03Zm47.785,51.49h-29.45L327.75,100h-9.31l24.8-65.74h9.785L377.72,100h-9.31Zm-2.47-6.745L348.08,43.95,335.825,77.77Zm34.77-44.745V100H386.46V33.025ZM461.035,100H452.39L417.62,47.085V100h-8.645V33.025h8.645l34.77,53.01V33.025h8.645Zm80.94-65.835V100H533.33V47.465L512.335,100H504.64L483.55,47.655V100h-8.645V34.165H485.26l23.37,55.29,22.99-55.29Zm22.515,5.89v22.9h25.46V69.6H564.49V92.97H592.8V100H555.845V33.025H592.8v7.03ZM655.975,100H647.33L612.56,47.085V100h-8.645V33.025h8.645l34.77,53.01V33.025h8.645Zm54.91-66.975v7.03h-18.9V100h-8.645V40.055h-18.9v-7.03Zm61.655-.665q12.255,0,20.235,6.032A30.759,30.759,0,0,1,803.8,54.875h-9.12a22.332,22.332,0,0,0-8.265-10.593,23.952,23.952,0,0,0-13.965-3.942,21.5,21.5,0,0,0-19.9,12.3A30.553,30.553,0,0,0,749.55,66.56a30.033,30.033,0,0,0,2.992,13.775,21.562,21.562,0,0,0,19.9,12.255,23.952,23.952,0,0,0,13.965-3.942,22.332,22.332,0,0,0,8.265-10.592h9.12a30.759,30.759,0,0,1-11.02,16.482q-7.98,6.033-20.235,6.033a31.735,31.735,0,0,1-16.625-4.323,29.8,29.8,0,0,1-11.258-12.065A37.547,37.547,0,0,1,740.62,66.56a38.044,38.044,0,0,1,4.037-17.765,29.724,29.724,0,0,1,11.258-12.113A31.735,31.735,0,0,1,772.54,32.36Zm73.53-.19a32.544,32.544,0,0,1,16.768,4.37A31.1,31.1,0,0,1,874.57,48.748a36.39,36.39,0,0,1,4.275,17.717,36.39,36.39,0,0,1-4.275,17.718A31.1,31.1,0,0,1,862.838,96.39a32.543,32.543,0,0,1-16.768,4.37,33.055,33.055,0,0,1-16.862-4.37A30.9,30.9,0,0,1,817.38,84.183a36.39,36.39,0,0,1-4.275-17.718,36.39,36.39,0,0,1,4.275-17.717A30.9,30.9,0,0,1,829.208,36.54,33.055,33.055,0,0,1,846.07,32.17Zm0,8.075a24.169,24.169,0,0,0-12.4,3.182,22.051,22.051,0,0,0-8.55,9.12,29.768,29.768,0,0,0-3.087,13.917,29.841,29.841,0,0,0,3.087,13.87,21.987,21.987,0,0,0,8.55,9.168,24.169,24.169,0,0,0,12.4,3.182,23.711,23.711,0,0,0,12.3-3.23,22.37,22.37,0,0,0,8.55-9.168,29.552,29.552,0,0,0,3.087-13.823,29.768,29.768,0,0,0-3.087-13.917,22.051,22.051,0,0,0-8.55-9.12A23.985,23.985,0,0,0,846.07,40.245Zm53.105-7.22V100H890.53V33.025ZM965.105,100H956.46L921.69,47.085V100h-8.645V33.025h8.645l34.77,53.01V33.025h8.645Z" transform="translate(12.48 81.3)" fill="none" stroke="#eab046" stroke-width="1" opacity="0.35"/>
  </g>
</svg>
