<svg xmlns="http://www.w3.org/2000/svg" xmlns:xlink="http://www.w3.org/1999/xlink" width="477.54" height="196.59" viewBox="0 0 477.54 196.59">
  <defs>
    <filter id="Path_13802" x="0" y="0" width="477.54" height="196.59" filterUnits="userSpaceOnUse">
      <feOffset dy="3" input="SourceAlpha"/>
      <feGaussianBlur stdDeviation="4.5" result="blur"/>
      <feFlood flood-color="#ffc124"/>
      <feComposite operator="in" in2="blur"/>
      <feComposite in="SourceGraphic"/>
    </filter>
  </defs>
  <g transform="matrix(1, 0, 0, 1, 0, 0)" filter="url(#Path_13802)">
    <path id="Path_13802-2" data-name="Path 13802" d="M63.365-33.535A36.691,36.691,0,0,1,59.28-15.818,28,28,0,0,1,47.263-4.133Q39.33,0,28.215,0H6.935V-66.975h21.28q11.115,0,19.048,4.038A27.445,27.445,0,0,1,59.28-51.348,36.9,36.9,0,0,1,63.365-33.535ZM27.55-7.79q13.11,0,20.045-6.745t6.935-19q0-12.255-6.887-19.048T27.55-59.375H15.58V-7.79ZM110.58,0,93.1-27.36h-9.4V0H75.05V-66.975H97.09q11.4,0,17.1,5.463t5.7,14.488q0,8.17-4.56,13.157t-13.205,6.223L120.365,0ZM83.695-33.63H96.33q14.725,0,14.725-12.92T96.33-59.47H83.695ZM169.67-15.485H140.22L134.615,0h-9.31l24.8-65.74h9.785L184.585,0h-9.31ZM167.2-22.23,154.945-56.05,142.69-22.23Zm56.525-45.41q11.685,0,19.617,5.795a28.188,28.188,0,0,1,10.688,15.77h-9.12a20.49,20.49,0,0,0-7.932-9.785,23.164,23.164,0,0,0-13.158-3.705,23.73,23.73,0,0,0-12.255,3.182,22.216,22.216,0,0,0-8.5,9.073,29.479,29.479,0,0,0-3.087,13.87,29.826,29.826,0,0,0,3.135,14.108,22.172,22.172,0,0,0,8.693,9.12A25.253,25.253,0,0,0,224.58-7.03a24.188,24.188,0,0,0,11.305-2.66,21.884,21.884,0,0,0,8.408-7.743,26.353,26.353,0,0,0,3.942-11.923H221.92v-6.46h33.63v7.98a33.261,33.261,0,0,1-4.94,14.44,29.632,29.632,0,0,1-11.02,10.26,32.275,32.275,0,0,1-15.77,3.8,33.311,33.311,0,0,1-17.1-4.323,30.046,30.046,0,0,1-11.542-12.065,37.046,37.046,0,0,1-4.133-17.718,37.046,37.046,0,0,1,4.133-17.717A30.372,30.372,0,0,1,206.72-63.27,32.841,32.841,0,0,1,223.725-67.64Zm74.195-.19a32.544,32.544,0,0,1,16.768,4.37A31.1,31.1,0,0,1,326.42-51.252,36.39,36.39,0,0,1,330.7-33.535a36.39,36.39,0,0,1-4.275,17.717A31.1,31.1,0,0,1,314.688-3.61,32.544,32.544,0,0,1,297.92.76a33.055,33.055,0,0,1-16.862-4.37A30.9,30.9,0,0,1,269.23-15.818a36.39,36.39,0,0,1-4.275-17.717,36.39,36.39,0,0,1,4.275-17.717A30.9,30.9,0,0,1,281.057-63.46,33.055,33.055,0,0,1,297.92-67.83Zm0,8.075a24.169,24.169,0,0,0-12.4,3.182,22.051,22.051,0,0,0-8.55,9.12,29.768,29.768,0,0,0-3.087,13.918,29.841,29.841,0,0,0,3.087,13.87,21.987,21.987,0,0,0,8.55,9.168,24.169,24.169,0,0,0,12.4,3.182,23.711,23.711,0,0,0,12.3-3.23,22.37,22.37,0,0,0,8.55-9.168,29.552,29.552,0,0,0,3.087-13.822,29.768,29.768,0,0,0-3.087-13.918,22.051,22.051,0,0,0-8.55-9.12A23.985,23.985,0,0,0,297.92-59.755ZM394.44,0h-8.645l-34.77-52.915V0H342.38V-66.975h8.645l34.77,53.01v-53.01h8.645ZM42.465,100,24.985,72.64h-9.4V100H6.935V33.025h22.04q11.4,0,17.1,5.463t5.7,14.488q0,8.17-4.56,13.157t-13.2,6.223L52.25,100ZM15.58,66.37H28.215q14.725,0,14.725-12.92T28.215,40.53H15.58Zm77.425-34.2a32.543,32.543,0,0,1,16.768,4.37,31.1,31.1,0,0,1,11.732,12.208,36.39,36.39,0,0,1,4.275,17.717,36.39,36.39,0,0,1-4.275,17.718A31.1,31.1,0,0,1,109.773,96.39a32.543,32.543,0,0,1-16.768,4.37,33.055,33.055,0,0,1-16.863-4.37A30.9,30.9,0,0,1,64.315,84.183,36.39,36.39,0,0,1,60.04,66.465a36.39,36.39,0,0,1,4.275-17.717A30.9,30.9,0,0,1,76.143,36.54,33.055,33.055,0,0,1,93.005,32.17Zm0,8.075a24.169,24.169,0,0,0-12.4,3.182,22.051,22.051,0,0,0-8.55,9.12A29.768,29.768,0,0,0,68.97,66.465a29.841,29.841,0,0,0,3.087,13.87,21.987,21.987,0,0,0,8.55,9.168,24.169,24.169,0,0,0,12.4,3.182,23.711,23.711,0,0,0,12.3-3.23,22.37,22.37,0,0,0,8.55-9.168,29.551,29.551,0,0,0,3.088-13.823,29.768,29.768,0,0,0-3.088-13.917,22.051,22.051,0,0,0-8.55-9.12A23.985,23.985,0,0,0,93.005,40.245ZM176.7,84.515H147.25L141.645,100h-9.31l24.8-65.74h9.785l24.7,65.74H182.3Zm-2.47-6.745L161.975,43.95,149.72,77.77Zm82.555-11.305A36.691,36.691,0,0,1,252.7,84.183a28,28,0,0,1-12.018,11.685Q232.75,100,221.635,100h-21.28V33.025h21.28q11.115,0,19.048,4.038A27.445,27.445,0,0,1,252.7,48.652,36.9,36.9,0,0,1,256.785,66.465ZM220.97,92.21q13.11,0,20.045-6.745t6.935-19q0-12.255-6.887-19.047T220.97,40.625H209V92.21ZM335.54,34.165V100H326.9V47.465L305.9,100h-7.695l-21.09-52.345V100H268.47V34.165h10.355l23.37,55.29,22.99-55.29Zm53.105,50.35H359.2L353.59,100h-9.31l24.8-65.74h9.785L403.56,100h-9.31Zm-2.47-6.745L373.92,43.95,361.665,77.77Zm34.77-4.75V100H412.3V33.025h21.28q11.495,0,17.2,5.368t5.7,14.678q0,9.405-5.89,14.677T433.58,73.02ZM432.82,65.8q7.885,0,11.353-3.325t3.467-9.4q0-6.27-3.467-9.548T432.82,40.245H420.945V65.8Z" transform="translate(7.06 78.83)" fill="none" stroke="#eab046" stroke-width="1"/>
  </g>
</svg>
