<svg xmlns="http://www.w3.org/2000/svg" xmlns:xlink="http://www.w3.org/1999/xlink" width="607.31" height="195.83" viewBox="0 0 607.31 195.83">
  <defs>
    <filter id="Path_13801" x="0" y="0" width="607.31" height="195.83" filterUnits="userSpaceOnUse">
      <feOffset dy="3" input="SourceAlpha"/>
      <feGaussianBlur stdDeviation="4.5" result="blur"/>
      <feFlood flood-color="#ffc124"/>
      <feComposite operator="in" in2="blur"/>
      <feComposite in="SourceGraphic"/>
    </filter>
  </defs>
  <g transform="matrix(1, 0, 0, 1, 0, 0)" filter="url(#Path_13801)">
    <path id="Path_13801-2" data-name="Path 13801" d="M47.975-66.975v7.03H29.07V0H20.425V-59.945H1.52v-7.03Zm59.945,0V0H99.18V-30.97H65.17V0H56.525V-66.975H65.17V-38H99.18V-66.975Zm22.515,7.03v22.9h25.46v6.65h-25.46V-7.03h28.31V0H121.79V-66.975h36.955v7.03Zm119.32,26.41a36.691,36.691,0,0,1-4.085,17.717A28,28,0,0,1,233.652-4.133Q225.72,0,214.6,0h-21.28V-66.975H214.6q11.115,0,19.048,4.038a27.445,27.445,0,0,1,12.017,11.59A36.9,36.9,0,0,1,249.755-33.535ZM213.94-7.79q13.11,0,20.045-6.745t6.935-19q0-12.255-6.887-19.048T213.94-59.375H201.97V-7.79ZM296.97,0,279.49-27.36h-9.405V0H261.44V-66.975h22.04q11.4,0,17.1,5.463t5.7,14.488q0,8.17-4.56,13.157t-13.2,6.223L306.755,0ZM270.085-33.63H282.72q14.725,0,14.725-12.92T282.72-59.47H270.085ZM356.06-15.485H326.61L321,0h-9.31l24.8-65.74h9.785L370.975,0h-9.31Zm-2.47-6.745L341.335-56.05,329.08-22.23Zm56.525-45.41q11.685,0,19.618,5.795a28.188,28.188,0,0,1,10.688,15.77H431.3a20.49,20.49,0,0,0-7.933-9.785,23.164,23.164,0,0,0-13.158-3.705,23.73,23.73,0,0,0-12.255,3.182,22.216,22.216,0,0,0-8.5,9.073,29.48,29.48,0,0,0-3.087,13.87A29.826,29.826,0,0,0,389.5-19.333a22.172,22.172,0,0,0,8.693,9.12A25.253,25.253,0,0,0,410.97-7.03a24.188,24.188,0,0,0,11.3-2.66,21.884,21.884,0,0,0,8.408-7.743,26.353,26.353,0,0,0,3.943-11.923H408.31v-6.46h33.63v7.98A33.261,33.261,0,0,1,437-13.4a29.632,29.632,0,0,1-11.02,10.26,32.275,32.275,0,0,1-15.77,3.8,33.31,33.31,0,0,1-17.1-4.323,30.046,30.046,0,0,1-11.543-12.065,37.046,37.046,0,0,1-4.133-17.718,37.046,37.046,0,0,1,4.133-17.717A30.372,30.372,0,0,1,393.11-63.27,32.841,32.841,0,0,1,410.115-67.64Zm74.2-.19a32.544,32.544,0,0,1,16.768,4.37A31.1,31.1,0,0,1,512.81-51.252a36.39,36.39,0,0,1,4.275,17.717,36.39,36.39,0,0,1-4.275,17.717A31.1,31.1,0,0,1,501.077-3.61,32.544,32.544,0,0,1,484.31.76a33.055,33.055,0,0,1-16.862-4.37A30.9,30.9,0,0,1,455.62-15.818a36.39,36.39,0,0,1-4.275-17.717,36.39,36.39,0,0,1,4.275-17.717A30.9,30.9,0,0,1,467.447-63.46,33.055,33.055,0,0,1,484.31-67.83Zm0,8.075a24.169,24.169,0,0,0-12.4,3.182,22.051,22.051,0,0,0-8.55,9.12,29.768,29.768,0,0,0-3.088,13.918,29.841,29.841,0,0,0,3.088,13.87,21.987,21.987,0,0,0,8.55,9.168,24.169,24.169,0,0,0,12.4,3.182,23.711,23.711,0,0,0,12.3-3.23,22.37,22.37,0,0,0,8.55-9.168,29.552,29.552,0,0,0,3.087-13.822,29.768,29.768,0,0,0-3.087-13.918,22.051,22.051,0,0,0-8.55-9.12A23.985,23.985,0,0,0,484.31-59.755ZM580.83,0h-8.645l-34.77-52.915V0H528.77V-66.975h8.645l34.77,53.01v-53.01h8.645ZM47.975,33.025v7.03H29.07V100H20.425V40.055H1.52v-7.03Zm17.195,7.03v22.9H90.63V69.6H65.17V92.97H93.48V100H56.525V33.025H93.48v7.03Zm78.66,44.46H114.38L108.775,100h-9.31L124.26,34.26h9.785l24.7,65.74h-9.31Zm-2.47-6.745L129.105,43.95,116.85,77.77Zm93.2-43.6V100H225.91V47.465L204.915,100h-7.7L176.13,47.655V100h-8.645V34.165H177.84l23.37,55.29,22.99-55.29Z" transform="translate(12.48 78.83)" fill="none" stroke="#eab046" stroke-width="1" opacity="0.35"/>
  </g>
</svg>
