<svg id="_Группа_" data-name="&lt;Группа&gt;" xmlns="http://www.w3.org/2000/svg" width="23.53" height="20" viewBox="0 0 23.53 20">
  <path id="_Составной_контур_" data-name="&lt;Составной контур&gt;" d="M191.46,208.633l5.422,1.976,2.1,6.591a.631.631,0,0,0,.425.413.65.65,0,0,0,.588-.114l3.023-2.407a.92.92,0,0,1,1.1-.029l5.447,3.865a.651.651,0,0,0,.606.076.627.627,0,0,0,.394-.456l4-18.75a.615.615,0,0,0-.212-.6.65.65,0,0,0-.644-.105l-22.25,8.376a.62.62,0,0,0,.006,1.169Zm7.182.923,10.6-6.375a.2.2,0,0,1,.218.065.186.186,0,0,1,.006.222l-8.754,7.939a1.746,1.746,0,0,0-.56,1.06l-.292,2.151a.274.274,0,0,1-.533.038l-1.146-3.931a1.028,1.028,0,0,1,.465-1.169Z" transform="translate(-191.045 -199.047)" fill="#e2ac57"/>
</svg>
