<svg xmlns="http://www.w3.org/2000/svg" width="22.486" height="17.989" viewBox="0 0 22.486 17.989">
  <g id="layer1" transform="translate(0 0)">
    <path id="path3611" d="M195.081,217.333a12.929,12.929,0,0,0,13.127-12.921c0-.2,0-.391-.012-.587a9.286,9.286,0,0,0,2.3-2.351,9.307,9.307,0,0,1-2.65.714,4.566,4.566,0,0,0,2.029-2.51,9.348,9.348,0,0,1-2.93,1.1,4.666,4.666,0,0,0-5.063-1.117,4.517,4.517,0,0,0-2.8,5.252,13.167,13.167,0,0,1-9.506-4.739A4.5,4.5,0,0,0,191,206.239a4.663,4.663,0,0,1-2.092-.568v.057a4.562,4.562,0,0,0,3.7,4.452,4.669,4.669,0,0,1-2.082.077,4.613,4.613,0,0,0,4.311,3.155,9.352,9.352,0,0,1-5.732,1.942,9.715,9.715,0,0,1-1.1-.062,13.208,13.208,0,0,0,7.072,2.04" transform="translate(-188.01 -199.344)" fill="#e2ac57"/>
  </g>
</svg>
